%TF.GenerationSoftware,KiCad,Pcbnew,9.0.3*%
%TF.CreationDate,2025-09-27T17:43:50-06:00*%
%TF.ProjectId,left_connected,6c656674-5f63-46f6-9e6e-65637465642e,v1.0.0*%
%TF.SameCoordinates,Original*%
%TF.FileFunction,Copper,L2,Bot*%
%TF.FilePolarity,Positive*%
%FSLAX46Y46*%
G04 Gerber Fmt 4.6, Leading zero omitted, Abs format (unit mm)*
G04 Created by KiCad (PCBNEW 9.0.3) date 2025-09-27 17:43:50*
%MOMM*%
%LPD*%
G01*
G04 APERTURE LIST*
G04 Aperture macros list*
%AMRotRect*
0 Rectangle, with rotation*
0 The origin of the aperture is its center*
0 $1 length*
0 $2 width*
0 $3 Rotation angle, in degrees counterclockwise*
0 Add horizontal line*
21,1,$1,$2,0,0,$3*%
G04 Aperture macros list end*
%TA.AperFunction,SMDPad,CuDef*%
%ADD10R,0.900000X0.900000*%
%TD*%
%TA.AperFunction,WasherPad*%
%ADD11C,1.000000*%
%TD*%
%TA.AperFunction,SMDPad,CuDef*%
%ADD12R,0.900000X1.250000*%
%TD*%
%TA.AperFunction,SMDPad,CuDef*%
%ADD13R,2.600000X2.600000*%
%TD*%
%TA.AperFunction,ComponentPad*%
%ADD14R,1.778000X1.778000*%
%TD*%
%TA.AperFunction,SMDPad,CuDef*%
%ADD15R,0.900000X1.200000*%
%TD*%
%TA.AperFunction,ComponentPad*%
%ADD16C,1.905000*%
%TD*%
%TA.AperFunction,ComponentPad*%
%ADD17RotRect,1.778000X1.778000X340.000000*%
%TD*%
%TA.AperFunction,SMDPad,CuDef*%
%ADD18RotRect,0.900000X1.200000X340.000000*%
%TD*%
%TA.AperFunction,ComponentPad*%
%ADD19R,1.200000X1.700000*%
%TD*%
%TA.AperFunction,ComponentPad*%
%ADD20O,1.200000X1.700000*%
%TD*%
%TA.AperFunction,ComponentPad*%
%ADD21R,1.752600X1.752600*%
%TD*%
%TA.AperFunction,ComponentPad*%
%ADD22C,1.752600*%
%TD*%
%TA.AperFunction,SMDPad,CuDef*%
%ADD23RotRect,2.600000X2.600000X340.000000*%
%TD*%
%TA.AperFunction,SMDPad,CuDef*%
%ADD24R,1.550000X1.000000*%
%TD*%
%TA.AperFunction,ComponentPad*%
%ADD25RotRect,1.778000X1.778000X320.000000*%
%TD*%
%TA.AperFunction,SMDPad,CuDef*%
%ADD26RotRect,0.900000X1.200000X320.000000*%
%TD*%
%TA.AperFunction,SMDPad,CuDef*%
%ADD27RotRect,2.600000X2.600000X320.000000*%
%TD*%
%TA.AperFunction,ViaPad*%
%ADD28C,0.800000*%
%TD*%
%TA.AperFunction,Conductor*%
%ADD29C,0.250000*%
%TD*%
G04 APERTURE END LIST*
D10*
%TO.P,T1,*%
%TO.N,*%
X158800000Y-41100000D03*
X158800000Y-43300000D03*
D11*
X161000000Y-42200000D03*
X164000000Y-42200000D03*
D10*
X166200000Y-41100000D03*
X166200000Y-43300000D03*
D12*
%TO.P,T1,1*%
%TO.N,pos*%
X160250000Y-44275000D03*
%TO.P,T1,2*%
%TO.N,RAW*%
X163250000Y-44275000D03*
%TO.P,T1,3*%
%TO.N,N/C*%
X164750000Y-44275000D03*
%TD*%
D13*
%TO.P,S11,1*%
%TO.N,P7*%
X153725000Y-65050000D03*
%TO.P,S11,2*%
%TO.N,middle_home*%
X165275000Y-67250000D03*
%TD*%
%TO.P,S8,1*%
%TO.N,P6*%
X134725000Y-70050000D03*
%TO.P,S8,2*%
%TO.N,ring_home*%
X146275000Y-72250000D03*
%TD*%
D14*
%TO.P,D9,1*%
%TO.N,P2*%
X134190000Y-62000000D03*
D15*
X136350000Y-62000000D03*
%TO.P,D9,2*%
%TO.N,ring_top*%
X139650000Y-62000000D03*
D16*
X141810000Y-62000000D03*
%TD*%
D13*
%TO.P,S19,1*%
%TO.N,P7*%
X161725000Y-109050000D03*
%TO.P,S19,2*%
%TO.N,near_thumb*%
X173275000Y-111250000D03*
%TD*%
D14*
%TO.P,D6,1*%
%TO.N,P2*%
X115190000Y-67000000D03*
D15*
X117350000Y-67000000D03*
%TO.P,D6,2*%
%TO.N,pinky_top*%
X120650000Y-67000000D03*
D16*
X122810000Y-67000000D03*
%TD*%
D13*
%TO.P,S10,1*%
%TO.N,P7*%
X153725000Y-84050000D03*
%TO.P,S10,2*%
%TO.N,middle_bottom*%
X165275000Y-86250000D03*
%TD*%
%TO.P,S16,1*%
%TO.N,P9*%
X191725000Y-89050000D03*
%TO.P,S16,2*%
%TO.N,inner_bottom*%
X203275000Y-91250000D03*
%TD*%
D14*
%TO.P,D5,1*%
%TO.N,P10*%
X115190000Y-86000000D03*
D15*
X117350000Y-86000000D03*
%TO.P,D5,2*%
%TO.N,pinky_home*%
X120650000Y-86000000D03*
D16*
X122810000Y-86000000D03*
%TD*%
D13*
%TO.P,S2,1*%
%TO.N,P4*%
X96725000Y-75050000D03*
%TO.P,S2,2*%
%TO.N,outer_home*%
X108275000Y-77250000D03*
%TD*%
D14*
%TO.P,D12,1*%
%TO.N,P2*%
X153190000Y-57000000D03*
D15*
X155350000Y-57000000D03*
%TO.P,D12,2*%
%TO.N,middle_top*%
X158650000Y-57000000D03*
D16*
X160810000Y-57000000D03*
%TD*%
D14*
%TO.P,D1,1*%
%TO.N,P16*%
X96190000Y-105000000D03*
D15*
X98350000Y-105000000D03*
%TO.P,D1,2*%
%TO.N,outer_bottom*%
X101650000Y-105000000D03*
D16*
X103810000Y-105000000D03*
%TD*%
D17*
%TO.P,D20,1*%
%TO.N,P3*%
X181842758Y-122298027D03*
D18*
X183872494Y-123036791D03*
%TO.P,D20,2*%
%TO.N,home_thumb*%
X186973480Y-124165457D03*
D16*
X189003216Y-124904221D03*
%TD*%
D14*
%TO.P,D16,1*%
%TO.N,P16*%
X191190000Y-100000000D03*
D15*
X193350000Y-100000000D03*
%TO.P,D16,2*%
%TO.N,inner_bottom*%
X196650000Y-100000000D03*
D16*
X198810000Y-100000000D03*
%TD*%
D19*
%TO.P,JST1,1*%
%TO.N,pos*%
X204000000Y-62000000D03*
D20*
%TO.P,JST1,2*%
%TO.N,GND*%
X206000000Y-62000000D03*
%TD*%
D14*
%TO.P,D10,1*%
%TO.N,P16*%
X153190000Y-95000000D03*
D15*
X155350000Y-95000000D03*
%TO.P,D10,2*%
%TO.N,middle_bottom*%
X158650000Y-95000000D03*
D16*
X160810000Y-95000000D03*
%TD*%
D14*
%TO.P,D18,1*%
%TO.N,P2*%
X191190000Y-62000000D03*
D15*
X193350000Y-62000000D03*
%TO.P,D18,2*%
%TO.N,inner_top*%
X196650000Y-62000000D03*
D16*
X198810000Y-62000000D03*
%TD*%
D13*
%TO.P,S13,1*%
%TO.N,P8*%
X172725000Y-89050000D03*
%TO.P,S13,2*%
%TO.N,index_bottom*%
X184275000Y-91250000D03*
%TD*%
D14*
%TO.P,D7,1*%
%TO.N,P16*%
X134190000Y-100000000D03*
D15*
X136350000Y-100000000D03*
%TO.P,D7,2*%
%TO.N,ring_bottom*%
X139650000Y-100000000D03*
D16*
X141810000Y-100000000D03*
%TD*%
D13*
%TO.P,S15,1*%
%TO.N,P8*%
X172725000Y-51050000D03*
%TO.P,S15,2*%
%TO.N,index_top*%
X184275000Y-53250000D03*
%TD*%
%TO.P,S12,1*%
%TO.N,P7*%
X153725000Y-46050000D03*
%TO.P,S12,2*%
%TO.N,middle_top*%
X165275000Y-48250000D03*
%TD*%
D14*
%TO.P,D19,1*%
%TO.N,P3*%
X161190000Y-120000000D03*
D15*
X163350000Y-120000000D03*
%TO.P,D19,2*%
%TO.N,near_thumb*%
X166650000Y-120000000D03*
D16*
X168810000Y-120000000D03*
%TD*%
D21*
%TO.P,MCU1,1*%
%TO.N,RAW*%
X212380000Y-51030000D03*
D22*
%TO.P,MCU1,2*%
%TO.N,GND*%
X212380000Y-53570000D03*
%TO.P,MCU1,3*%
%TO.N,RST*%
X212380000Y-56110000D03*
%TO.P,MCU1,4*%
%TO.N,VCC*%
X212380000Y-58650000D03*
%TO.P,MCU1,5*%
%TO.N,P21*%
X212380000Y-61190000D03*
%TO.P,MCU1,6*%
%TO.N,P20*%
X212380000Y-63730000D03*
%TO.P,MCU1,7*%
%TO.N,P19*%
X212380000Y-66270000D03*
%TO.P,MCU1,8*%
%TO.N,P18*%
X212380000Y-68810000D03*
%TO.P,MCU1,9*%
%TO.N,P15*%
X212380000Y-71350000D03*
%TO.P,MCU1,10*%
%TO.N,P14*%
X212380000Y-73890000D03*
%TO.P,MCU1,11*%
%TO.N,P16*%
X212380000Y-76430000D03*
%TO.P,MCU1,12*%
%TO.N,P10*%
X212380000Y-78970000D03*
%TO.P,MCU1,13*%
%TO.N,P1*%
X227620000Y-51030000D03*
%TO.P,MCU1,14*%
%TO.N,P0*%
X227620000Y-53570000D03*
%TO.P,MCU1,15*%
%TO.N,GND*%
X227620000Y-56110000D03*
%TO.P,MCU1,16*%
X227620000Y-58650000D03*
%TO.P,MCU1,17*%
%TO.N,P2*%
X227620000Y-61190000D03*
%TO.P,MCU1,18*%
%TO.N,P3*%
X227620000Y-63730000D03*
%TO.P,MCU1,19*%
%TO.N,P4*%
X227620000Y-66270000D03*
%TO.P,MCU1,20*%
%TO.N,P5*%
X227620000Y-68810000D03*
%TO.P,MCU1,21*%
%TO.N,P6*%
X227620000Y-71350000D03*
%TO.P,MCU1,22*%
%TO.N,P7*%
X227620000Y-73890000D03*
%TO.P,MCU1,23*%
%TO.N,P8*%
X227620000Y-76430000D03*
%TO.P,MCU1,24*%
%TO.N,P9*%
X227620000Y-78970000D03*
%TD*%
D14*
%TO.P,D14,1*%
%TO.N,P10*%
X172190000Y-81000000D03*
D15*
X174350000Y-81000000D03*
%TO.P,D14,2*%
%TO.N,index_home*%
X177650000Y-81000000D03*
D16*
X179810000Y-81000000D03*
%TD*%
D14*
%TO.P,D3,1*%
%TO.N,P2*%
X96190000Y-67000000D03*
D15*
X98350000Y-67000000D03*
%TO.P,D3,2*%
%TO.N,outer_top*%
X101650000Y-67000000D03*
D16*
X103810000Y-67000000D03*
%TD*%
D23*
%TO.P,S20,1*%
%TO.N,P8*%
X186090614Y-112191374D03*
%TO.P,S20,2*%
%TO.N,home_thumb*%
X196191619Y-118209030D03*
%TD*%
D13*
%TO.P,S1,1*%
%TO.N,P4*%
X96725000Y-94050000D03*
%TO.P,S1,2*%
%TO.N,outer_bottom*%
X108275000Y-96250000D03*
%TD*%
D14*
%TO.P,D17,1*%
%TO.N,P10*%
X191190000Y-81000000D03*
D15*
X193350000Y-81000000D03*
%TO.P,D17,2*%
%TO.N,inner_home*%
X196650000Y-81000000D03*
D16*
X198810000Y-81000000D03*
%TD*%
D14*
%TO.P,D11,1*%
%TO.N,P10*%
X153190000Y-76000000D03*
D15*
X155350000Y-76000000D03*
%TO.P,D11,2*%
%TO.N,middle_home*%
X158650000Y-76000000D03*
D16*
X160810000Y-76000000D03*
%TD*%
D13*
%TO.P,S6,1*%
%TO.N,P5*%
X115725000Y-56050000D03*
%TO.P,S6,2*%
%TO.N,pinky_top*%
X127275000Y-58250000D03*
%TD*%
%TO.P,S18,1*%
%TO.N,P9*%
X191725000Y-51050000D03*
%TO.P,S18,2*%
%TO.N,inner_top*%
X203275000Y-53250000D03*
%TD*%
%TO.P,S4,1*%
%TO.N,P5*%
X115725000Y-94050000D03*
%TO.P,S4,2*%
%TO.N,pinky_bottom*%
X127275000Y-96250000D03*
%TD*%
%TO.P,S9,1*%
%TO.N,P6*%
X134725000Y-51050000D03*
%TO.P,S9,2*%
%TO.N,ring_top*%
X146275000Y-53250000D03*
%TD*%
D14*
%TO.P,D13,1*%
%TO.N,P16*%
X172190000Y-100000000D03*
D15*
X174350000Y-100000000D03*
%TO.P,D13,2*%
%TO.N,index_bottom*%
X177650000Y-100000000D03*
D16*
X179810000Y-100000000D03*
%TD*%
D13*
%TO.P,S3,1*%
%TO.N,P4*%
X96725000Y-56050000D03*
%TO.P,S3,2*%
%TO.N,outer_top*%
X108275000Y-58250000D03*
%TD*%
D14*
%TO.P,D2,1*%
%TO.N,P10*%
X96190000Y-86000000D03*
D15*
X98350000Y-86000000D03*
%TO.P,D2,2*%
%TO.N,outer_home*%
X101650000Y-86000000D03*
D16*
X103810000Y-86000000D03*
%TD*%
D13*
%TO.P,S5,1*%
%TO.N,P5*%
X115725000Y-75050000D03*
%TO.P,S5,2*%
%TO.N,pinky_home*%
X127275000Y-77250000D03*
%TD*%
%TO.P,S14,1*%
%TO.N,P8*%
X172725000Y-70050000D03*
%TO.P,S14,2*%
%TO.N,index_home*%
X184275000Y-72250000D03*
%TD*%
D14*
%TO.P,D15,1*%
%TO.N,P2*%
X172190000Y-62000000D03*
D15*
X174350000Y-62000000D03*
%TO.P,D15,2*%
%TO.N,index_top*%
X177650000Y-62000000D03*
D16*
X179810000Y-62000000D03*
%TD*%
D24*
%TO.P,B1,1*%
%TO.N,GND*%
X148875000Y-41150000D03*
X154125000Y-41150000D03*
%TO.P,B1,2*%
%TO.N,RST*%
X148875000Y-42850000D03*
X154125000Y-42850000D03*
%TD*%
D25*
%TO.P,D21,1*%
%TO.N,P3*%
X200637679Y-131220357D03*
D26*
X202292335Y-132608778D03*
%TO.P,D21,2*%
%TO.N,far_thumb*%
X204820281Y-134729978D03*
D16*
X206474937Y-136118399D03*
%TD*%
D14*
%TO.P,D8,1*%
%TO.N,P10*%
X134190000Y-81000000D03*
D15*
X136350000Y-81000000D03*
%TO.P,D8,2*%
%TO.N,ring_home*%
X139650000Y-81000000D03*
D16*
X141810000Y-81000000D03*
%TD*%
D14*
%TO.P,D4,1*%
%TO.N,P16*%
X115190000Y-105000000D03*
D15*
X117350000Y-105000000D03*
%TO.P,D4,2*%
%TO.N,pinky_bottom*%
X120650000Y-105000000D03*
D16*
X122810000Y-105000000D03*
%TD*%
D13*
%TO.P,S7,1*%
%TO.N,P6*%
X134725000Y-89050000D03*
%TO.P,S7,2*%
%TO.N,ring_bottom*%
X146275000Y-91250000D03*
%TD*%
D27*
%TO.P,S21,1*%
%TO.N,P9*%
X208086037Y-123176062D03*
%TO.P,S21,2*%
%TO.N,far_thumb*%
X215519717Y-132285557D03*
%TD*%
D13*
%TO.P,S17,1*%
%TO.N,P9*%
X191725000Y-70050000D03*
%TO.P,S17,2*%
%TO.N,inner_home*%
X203275000Y-72250000D03*
%TD*%
D28*
%TO.N,P4*%
X153000000Y-118500000D03*
%TO.N,P5*%
X153500000Y-117500000D03*
%TO.N,P6*%
X153500000Y-113500000D03*
%TO.N,P7*%
X179500000Y-109000000D03*
%TO.N,P8*%
X197500000Y-108000000D03*
%TO.N,P9*%
X214000000Y-106000000D03*
%TO.N,GND*%
X156500000Y-41500000D03*
%TO.N,pos*%
X160000000Y-54000000D03*
%TD*%
D29*
%TO.N,P4*%
X94975000Y-65785000D02*
X94975000Y-73300000D01*
X96725000Y-64035000D02*
X94975000Y-65785000D01*
X96725000Y-75050000D02*
X96725000Y-82673000D01*
X96725000Y-82673000D02*
X94975000Y-84423000D01*
X94975000Y-84423000D02*
X94975000Y-92300000D01*
X148732049Y-114232049D02*
X153000000Y-118500000D01*
X96725000Y-101777000D02*
X109180049Y-114232049D01*
X94975000Y-92300000D02*
X96725000Y-94050000D01*
X96725000Y-94050000D02*
X96725000Y-101777000D01*
X109180049Y-114232049D02*
X148732049Y-114232049D01*
X96725000Y-56050000D02*
X96725000Y-64035000D01*
X94975000Y-73300000D02*
X96725000Y-75050000D01*
%TO.N,outer_bottom*%
X108275000Y-96250000D02*
X108275000Y-100535000D01*
X108275000Y-100535000D02*
X103810000Y-105000000D01*
X101650000Y-105000000D02*
X103810000Y-105000000D01*
%TO.N,outer_home*%
X108275000Y-81535000D02*
X103810000Y-86000000D01*
X103810000Y-86000000D02*
X101650000Y-86000000D01*
X108275000Y-77250000D02*
X108275000Y-81535000D01*
%TO.N,outer_top*%
X101650000Y-67000000D02*
X103810000Y-67000000D01*
X108275000Y-62535000D02*
X103810000Y-67000000D01*
X108275000Y-58250000D02*
X108275000Y-62535000D01*
%TO.N,P5*%
X115725000Y-56050000D02*
X115725000Y-64035000D01*
X115725000Y-94050000D02*
X115725000Y-101673000D01*
X113975000Y-65785000D02*
X113975000Y-73300000D01*
X115725000Y-80775000D02*
X113975000Y-82525000D01*
X149781049Y-113781049D02*
X153500000Y-117500000D01*
X115725000Y-75050000D02*
X115725000Y-80775000D01*
X127833049Y-113781049D02*
X149781049Y-113781049D01*
X113975000Y-92300000D02*
X115725000Y-94050000D01*
X115725000Y-64035000D02*
X113975000Y-65785000D01*
X113975000Y-73300000D02*
X115725000Y-75050000D01*
X115725000Y-101673000D02*
X127833049Y-113781049D01*
X113975000Y-82525000D02*
X113975000Y-92300000D01*
%TO.N,pinky_bottom*%
X127275000Y-100535000D02*
X122810000Y-105000000D01*
X120650000Y-105000000D02*
X122810000Y-105000000D01*
X127275000Y-96250000D02*
X127275000Y-100535000D01*
%TO.N,pinky_home*%
X127275000Y-77250000D02*
X127275000Y-81535000D01*
X127275000Y-81535000D02*
X122810000Y-86000000D01*
X122810000Y-86000000D02*
X120650000Y-86000000D01*
%TO.N,pinky_top*%
X122810000Y-67000000D02*
X120650000Y-67000000D01*
X127275000Y-62535000D02*
X122810000Y-67000000D01*
X127275000Y-58250000D02*
X127275000Y-62535000D01*
%TO.N,P6*%
X132500000Y-79898000D02*
X132500000Y-86825000D01*
X151448000Y-113500000D02*
X153500000Y-113500000D01*
X132975000Y-60785000D02*
X132975000Y-68300000D01*
X134725000Y-77673000D02*
X132500000Y-79898000D01*
X132500000Y-86825000D02*
X134725000Y-89050000D01*
X134725000Y-59035000D02*
X132975000Y-60785000D01*
X134725000Y-51050000D02*
X134725000Y-59035000D01*
X134725000Y-70050000D02*
X134725000Y-77673000D01*
X134725000Y-96777000D02*
X151448000Y-113500000D01*
X134725000Y-89050000D02*
X134725000Y-96777000D01*
X132975000Y-68300000D02*
X134725000Y-70050000D01*
%TO.N,ring_bottom*%
X146275000Y-91250000D02*
X146275000Y-95535000D01*
X139650000Y-100000000D02*
X141810000Y-100000000D01*
X146275000Y-95535000D02*
X141810000Y-100000000D01*
%TO.N,ring_home*%
X141810000Y-81000000D02*
X139650000Y-81000000D01*
X146275000Y-72250000D02*
X146275000Y-76535000D01*
X146275000Y-76535000D02*
X141810000Y-81000000D01*
%TO.N,ring_top*%
X146275000Y-57535000D02*
X146275000Y-53250000D01*
X139650000Y-62000000D02*
X141810000Y-62000000D01*
X141810000Y-62000000D02*
X146275000Y-57535000D01*
%TO.N,P7*%
X167596935Y-111000000D02*
X169596935Y-109000000D01*
X153725000Y-84050000D02*
X153725000Y-91673000D01*
X163675000Y-111000000D02*
X167596935Y-111000000D01*
X151975000Y-73025000D02*
X151975000Y-82300000D01*
X151975000Y-55785000D02*
X151975000Y-63300000D01*
X153725000Y-54035000D02*
X151975000Y-55785000D01*
X153725000Y-65050000D02*
X153725000Y-71275000D01*
X153725000Y-71275000D02*
X151975000Y-73025000D01*
X151975000Y-63300000D02*
X153725000Y-65050000D01*
X153725000Y-91673000D02*
X161725000Y-99673000D01*
X153725000Y-46050000D02*
X153725000Y-54035000D01*
X151975000Y-82300000D02*
X153725000Y-84050000D01*
X161725000Y-109050000D02*
X163675000Y-111000000D01*
X169596935Y-109000000D02*
X179500000Y-109000000D01*
X161725000Y-99673000D02*
X161725000Y-109050000D01*
%TO.N,middle_bottom*%
X165275000Y-86250000D02*
X165275000Y-90535000D01*
X165275000Y-90535000D02*
X160810000Y-95000000D01*
X160810000Y-95000000D02*
X158650000Y-95000000D01*
%TO.N,middle_home*%
X165275000Y-71535000D02*
X160810000Y-76000000D01*
X158650000Y-76000000D02*
X160810000Y-76000000D01*
X165275000Y-67250000D02*
X165275000Y-71535000D01*
%TO.N,middle_top*%
X165275000Y-52535000D02*
X160810000Y-57000000D01*
X160810000Y-57000000D02*
X158650000Y-57000000D01*
X165275000Y-48250000D02*
X165275000Y-52535000D01*
%TO.N,P8*%
X172725000Y-59035000D02*
X170975000Y-60785000D01*
X186090614Y-112191374D02*
X190281988Y-108000000D01*
X170975000Y-68300000D02*
X172725000Y-70050000D01*
X170975000Y-87300000D02*
X172725000Y-89050000D01*
X172725000Y-78035000D02*
X170975000Y-79785000D01*
X190281988Y-108000000D02*
X197500000Y-108000000D01*
X186090614Y-110016614D02*
X186090614Y-112191374D01*
X172725000Y-51050000D02*
X172725000Y-59035000D01*
X172725000Y-70050000D02*
X172725000Y-78035000D01*
X172725000Y-89050000D02*
X172725000Y-96651000D01*
X172725000Y-96651000D02*
X186090614Y-110016614D01*
X170975000Y-79785000D02*
X170975000Y-87300000D01*
X170975000Y-60785000D02*
X170975000Y-68300000D01*
%TO.N,index_bottom*%
X184275000Y-95535000D02*
X179810000Y-100000000D01*
X177650000Y-100000000D02*
X179810000Y-100000000D01*
X184275000Y-91250000D02*
X184275000Y-95535000D01*
%TO.N,index_home*%
X184275000Y-76535000D02*
X179810000Y-81000000D01*
X177650000Y-81000000D02*
X179810000Y-81000000D01*
X184275000Y-72250000D02*
X184275000Y-76535000D01*
%TO.N,index_top*%
X184275000Y-57535000D02*
X179810000Y-62000000D01*
X177650000Y-62000000D02*
X179810000Y-62000000D01*
X184275000Y-53250000D02*
X184275000Y-57535000D01*
%TO.N,P9*%
X191725000Y-89050000D02*
X191725000Y-96673000D01*
X191725000Y-51050000D02*
X191725000Y-59035000D01*
X208086037Y-123176062D02*
X208086037Y-111913963D01*
X191725000Y-59035000D02*
X189975000Y-60785000D01*
X191725000Y-96673000D02*
X208086037Y-113034037D01*
X208086037Y-111913963D02*
X214000000Y-106000000D01*
X189975000Y-77260099D02*
X189975000Y-87300000D01*
X208086037Y-113034037D02*
X208086037Y-123176062D01*
X191725000Y-75510099D02*
X189975000Y-77260099D01*
X189975000Y-60785000D02*
X189975000Y-68300000D01*
X189975000Y-87300000D02*
X191725000Y-89050000D01*
X189975000Y-68300000D02*
X191725000Y-70050000D01*
X191725000Y-70050000D02*
X191725000Y-75510099D01*
%TO.N,inner_bottom*%
X203275000Y-91250000D02*
X203275000Y-95535000D01*
X203275000Y-95535000D02*
X198810000Y-100000000D01*
X196650000Y-100000000D02*
X198810000Y-100000000D01*
%TO.N,inner_home*%
X203275000Y-76535000D02*
X198810000Y-81000000D01*
X203275000Y-72250000D02*
X203275000Y-76535000D01*
X198810000Y-81000000D02*
X196650000Y-81000000D01*
%TO.N,inner_top*%
X203275000Y-53250000D02*
X203275000Y-57535000D01*
X203275000Y-57535000D02*
X198810000Y-62000000D01*
X196650000Y-62000000D02*
X198810000Y-62000000D01*
%TO.N,near_thumb*%
X173275000Y-115535000D02*
X168810000Y-120000000D01*
X173275000Y-111250000D02*
X173275000Y-115535000D01*
X168810000Y-120000000D02*
X166650000Y-120000000D01*
%TO.N,home_thumb*%
X196191619Y-119592461D02*
X190879859Y-124904221D01*
X190879859Y-124904221D02*
X189003216Y-124904221D01*
X188264452Y-124165457D02*
X189003216Y-124904221D01*
X196191619Y-118209030D02*
X196191619Y-119592461D01*
X186973480Y-124165457D02*
X188264452Y-124165457D01*
%TO.N,far_thumb*%
X211686875Y-136118399D02*
X206474937Y-136118399D01*
X215519717Y-132285557D02*
X211686875Y-136118399D01*
X205086516Y-134729978D02*
X206474937Y-136118399D01*
X204820281Y-134729978D02*
X205086516Y-134729978D01*
%TO.N,P16*%
X115190000Y-105000000D02*
X117350000Y-105000000D01*
X96190000Y-105000000D02*
X98350000Y-105000000D01*
X172190000Y-100000000D02*
X174350000Y-100000000D01*
X191190000Y-100000000D02*
X193350000Y-100000000D01*
X155350000Y-95000000D02*
X153190000Y-95000000D01*
X134190000Y-100000000D02*
X136350000Y-100000000D01*
%TO.N,P10*%
X136350000Y-81000000D02*
X134190000Y-81000000D01*
X153190000Y-76000000D02*
X155350000Y-76000000D01*
X193350000Y-81000000D02*
X191190000Y-81000000D01*
X98350000Y-86000000D02*
X96190000Y-86000000D01*
X117350000Y-86000000D02*
X115190000Y-86000000D01*
X172190000Y-81000000D02*
X174350000Y-81000000D01*
%TO.N,P2*%
X172190000Y-62000000D02*
X174350000Y-62000000D01*
X191190000Y-62000000D02*
X193350000Y-62000000D01*
X134190000Y-62000000D02*
X136350000Y-62000000D01*
X96190000Y-67000000D02*
X98350000Y-67000000D01*
X117350000Y-67000000D02*
X115190000Y-67000000D01*
X155350000Y-57000000D02*
X153190000Y-57000000D01*
%TO.N,P3*%
X183133730Y-122298027D02*
X183872494Y-123036791D01*
X181842758Y-122298027D02*
X183133730Y-122298027D01*
X200903914Y-131220357D02*
X202292335Y-132608778D01*
X200637679Y-131220357D02*
X200903914Y-131220357D01*
X163350000Y-120000000D02*
X161190000Y-120000000D01*
%TO.N,RAW*%
X163250000Y-44275000D02*
X163250000Y-44502000D01*
X163250000Y-44502000D02*
X165372000Y-46624000D01*
X165372000Y-46624000D02*
X207974000Y-46624000D01*
X207974000Y-46624000D02*
X212380000Y-51030000D01*
%TO.N,GND*%
X154125000Y-41150000D02*
X156150000Y-41150000D01*
X153899000Y-41376000D02*
X154125000Y-41150000D01*
X149101000Y-41376000D02*
X153899000Y-41376000D01*
X156150000Y-41150000D02*
X156500000Y-41500000D01*
X148875000Y-41150000D02*
X149101000Y-41376000D01*
%TO.N,RST*%
X171349000Y-49174000D02*
X162244500Y-58278500D01*
X153899000Y-42624000D02*
X154125000Y-42850000D01*
X205444000Y-49174000D02*
X171349000Y-49174000D01*
X154176000Y-54221810D02*
X154176000Y-51527065D01*
X162244500Y-58278500D02*
X158232690Y-58278500D01*
X156453065Y-42850000D02*
X154125000Y-42850000D01*
X149101000Y-42624000D02*
X153899000Y-42624000D01*
X158232690Y-58278500D02*
X154176000Y-54221810D01*
X158876000Y-46827065D02*
X158876000Y-45272935D01*
X154176000Y-51527065D02*
X158876000Y-46827065D01*
X212380000Y-56110000D02*
X205444000Y-49174000D01*
X148875000Y-42850000D02*
X149101000Y-42624000D01*
X158876000Y-45272935D02*
X156453065Y-42850000D01*
%TO.N,pos*%
X160000000Y-44525000D02*
X160000000Y-54000000D01*
X160250000Y-44275000D02*
X160000000Y-44525000D01*
%TD*%
M02*
