M48
; DRILL file {KiCad 9.0.3} date 2025-09-27T17:44:07-0600
; FORMAT={-:-/ absolute / metric / decimal}
; #@! TF.CreationDate,2025-09-27T17:44:07-06:00
; #@! TF.GenerationSoftware,Kicad,Pcbnew,9.0.3
; #@! TF.FileFunction,Plated,1,2,PTH
FMAT,2
METRIC
; #@! TA.AperFunction,Plated,PTH,ViaDrill
T1C0.400
; #@! TA.AperFunction,Plated,PTH,ComponentDrill
T2C0.750
; #@! TA.AperFunction,Plated,PTH,ComponentDrill
T3C0.991
; #@! TA.AperFunction,Plated,PTH,ComponentDrill
T4C1.092
%
G90
G05
T1
X153.0Y-118.5
X153.5Y-113.5
X153.5Y-117.5
X156.5Y-41.5
X160.0Y-54.0
X179.5Y-109.0
X197.5Y-108.0
X214.0Y-106.0
T2
X204.0Y-62.0
X206.0Y-62.0
T3
X96.19Y-67.0
X96.19Y-86.0
X96.19Y-105.0
X103.81Y-67.0
X103.81Y-86.0
X103.81Y-105.0
X115.19Y-67.0
X115.19Y-86.0
X115.19Y-105.0
X122.81Y-67.0
X122.81Y-86.0
X122.81Y-105.0
X134.19Y-62.0
X134.19Y-81.0
X134.19Y-100.0
X141.81Y-62.0
X141.81Y-81.0
X141.81Y-100.0
X153.19Y-57.0
X153.19Y-76.0
X153.19Y-95.0
X160.81Y-57.0
X160.81Y-76.0
X160.81Y-95.0
X161.19Y-120.0
X168.81Y-120.0
X172.19Y-62.0
X172.19Y-81.0
X172.19Y-100.0
X179.81Y-62.0
X179.81Y-81.0
X179.81Y-100.0
X181.843Y-122.298
X189.003Y-124.904
X191.19Y-62.0
X191.19Y-81.0
X191.19Y-100.0
X198.81Y-62.0
X198.81Y-81.0
X198.81Y-100.0
X200.638Y-131.22
X206.475Y-136.118
T4
X212.38Y-51.03
X212.38Y-53.57
X212.38Y-56.11
X212.38Y-58.65
X212.38Y-61.19
X212.38Y-63.73
X212.38Y-66.27
X212.38Y-68.81
X212.38Y-71.35
X212.38Y-73.89
X212.38Y-76.43
X212.38Y-78.97
X227.62Y-51.03
X227.62Y-53.57
X227.62Y-56.11
X227.62Y-58.65
X227.62Y-61.19
X227.62Y-63.73
X227.62Y-66.27
X227.62Y-68.81
X227.62Y-71.35
X227.62Y-73.89
X227.62Y-76.43
X227.62Y-78.97
M30
