%TF.GenerationSoftware,KiCad,Pcbnew,9.0.3*%
%TF.CreationDate,2025-09-27T17:43:50-06:00*%
%TF.ProjectId,left_connected,6c656674-5f63-46f6-9e6e-65637465642e,v1.0.0*%
%TF.SameCoordinates,Original*%
%TF.FileFunction,Paste,Top*%
%TF.FilePolarity,Positive*%
%FSLAX46Y46*%
G04 Gerber Fmt 4.6, Leading zero omitted, Abs format (unit mm)*
G04 Created by KiCad (PCBNEW 9.0.3) date 2025-09-27 17:43:50*
%MOMM*%
%LPD*%
G01*
G04 APERTURE LIST*
G04 Aperture macros list*
%AMRotRect*
0 Rectangle, with rotation*
0 The origin of the aperture is its center*
0 $1 length*
0 $2 width*
0 $3 Rotation angle, in degrees counterclockwise*
0 Add horizontal line*
21,1,$1,$2,0,0,$3*%
G04 Aperture macros list end*
%ADD10R,0.900000X1.200000*%
%ADD11RotRect,0.900000X1.200000X340.000000*%
%ADD12RotRect,0.900000X1.200000X320.000000*%
G04 APERTURE END LIST*
D10*
%TO.C,D9*%
X136350000Y-62000000D03*
X139650000Y-62000000D03*
%TD*%
%TO.C,D6*%
X117350000Y-67000000D03*
X120650000Y-67000000D03*
%TD*%
%TO.C,D5*%
X117350000Y-86000000D03*
X120650000Y-86000000D03*
%TD*%
%TO.C,D12*%
X155350000Y-57000000D03*
X158650000Y-57000000D03*
%TD*%
%TO.C,D1*%
X98350000Y-105000000D03*
X101650000Y-105000000D03*
%TD*%
D11*
%TO.C,D20*%
X183872494Y-123036791D03*
X186973480Y-124165457D03*
%TD*%
D10*
%TO.C,D16*%
X193350000Y-100000000D03*
X196650000Y-100000000D03*
%TD*%
%TO.C,D10*%
X155350000Y-95000000D03*
X158650000Y-95000000D03*
%TD*%
%TO.C,D18*%
X193350000Y-62000000D03*
X196650000Y-62000000D03*
%TD*%
%TO.C,D7*%
X136350000Y-100000000D03*
X139650000Y-100000000D03*
%TD*%
%TO.C,D19*%
X163350000Y-120000000D03*
X166650000Y-120000000D03*
%TD*%
%TO.C,D14*%
X174350000Y-81000000D03*
X177650000Y-81000000D03*
%TD*%
%TO.C,D3*%
X98350000Y-67000000D03*
X101650000Y-67000000D03*
%TD*%
%TO.C,D17*%
X193350000Y-81000000D03*
X196650000Y-81000000D03*
%TD*%
%TO.C,D11*%
X155350000Y-76000000D03*
X158650000Y-76000000D03*
%TD*%
%TO.C,D13*%
X174350000Y-100000000D03*
X177650000Y-100000000D03*
%TD*%
%TO.C,D2*%
X98350000Y-86000000D03*
X101650000Y-86000000D03*
%TD*%
%TO.C,D15*%
X174350000Y-62000000D03*
X177650000Y-62000000D03*
%TD*%
D12*
%TO.C,D21*%
X202292335Y-132608778D03*
X204820281Y-134729978D03*
%TD*%
D10*
%TO.C,D8*%
X136350000Y-81000000D03*
X139650000Y-81000000D03*
%TD*%
%TO.C,D4*%
X117350000Y-105000000D03*
X120650000Y-105000000D03*
%TD*%
M02*
