%TF.GenerationSoftware,KiCad,Pcbnew,9.0.3*%
%TF.CreationDate,2025-09-27T17:43:50-06:00*%
%TF.ProjectId,left_connected,6c656674-5f63-46f6-9e6e-65637465642e,v1.0.0*%
%TF.SameCoordinates,Original*%
%TF.FileFunction,Legend,Bot*%
%TF.FilePolarity,Positive*%
%FSLAX46Y46*%
G04 Gerber Fmt 4.6, Leading zero omitted, Abs format (unit mm)*
G04 Created by KiCad (PCBNEW 9.0.3) date 2025-09-27 17:43:50*
%MOMM*%
%LPD*%
G01*
G04 APERTURE LIST*
%ADD10C,0.150000*%
%ADD11C,0.100000*%
%ADD12C,0.120000*%
%ADD13R,1.752600X1.752600*%
%ADD14C,1.752600*%
G04 APERTURE END LIST*
D10*
%TO.C,T1*%
X159200000Y-40850000D02*
X159200000Y-43700000D01*
X159200000Y-43700000D02*
X165800000Y-43700000D01*
X162500000Y-40850000D02*
X159200000Y-40850000D01*
X162500000Y-40850000D02*
X165800000Y-40850000D01*
X164450000Y-40850000D02*
X160550000Y-40850000D01*
X165800000Y-43700000D02*
X165800000Y-40850000D01*
D11*
%TO.C,D9*%
X137250000Y-62000000D02*
X137650000Y-62000000D01*
X137650000Y-62000000D02*
X137650000Y-61450000D01*
X137650000Y-62000000D02*
X137650000Y-62550000D01*
X137650000Y-62000000D02*
X138250000Y-61600000D01*
X138250000Y-61600000D02*
X138250000Y-62400000D01*
X138250000Y-62000000D02*
X138750000Y-62000000D01*
X138250000Y-62400000D02*
X137650000Y-62000000D01*
%TO.C,D6*%
X118250000Y-67000000D02*
X118650000Y-67000000D01*
X118650000Y-67000000D02*
X118650000Y-66450000D01*
X118650000Y-67000000D02*
X118650000Y-67550000D01*
X118650000Y-67000000D02*
X119250000Y-66600000D01*
X119250000Y-66600000D02*
X119250000Y-67400000D01*
X119250000Y-67000000D02*
X119750000Y-67000000D01*
X119250000Y-67400000D02*
X118650000Y-67000000D01*
%TO.C,D5*%
X118250000Y-86000000D02*
X118650000Y-86000000D01*
X118650000Y-86000000D02*
X118650000Y-85450000D01*
X118650000Y-86000000D02*
X118650000Y-86550000D01*
X118650000Y-86000000D02*
X119250000Y-85600000D01*
X119250000Y-85600000D02*
X119250000Y-86400000D01*
X119250000Y-86000000D02*
X119750000Y-86000000D01*
X119250000Y-86400000D02*
X118650000Y-86000000D01*
%TO.C,D12*%
X156250000Y-57000000D02*
X156650000Y-57000000D01*
X156650000Y-57000000D02*
X156650000Y-56450000D01*
X156650000Y-57000000D02*
X156650000Y-57550000D01*
X156650000Y-57000000D02*
X157250000Y-56600000D01*
X157250000Y-56600000D02*
X157250000Y-57400000D01*
X157250000Y-57000000D02*
X157750000Y-57000000D01*
X157250000Y-57400000D02*
X156650000Y-57000000D01*
%TO.C,D1*%
X99250000Y-105000000D02*
X99650000Y-105000000D01*
X99650000Y-105000000D02*
X99650000Y-104450000D01*
X99650000Y-105000000D02*
X99650000Y-105550000D01*
X99650000Y-105000000D02*
X100250000Y-104600000D01*
X100250000Y-104600000D02*
X100250000Y-105400000D01*
X100250000Y-105000000D02*
X100750000Y-105000000D01*
X100250000Y-105400000D02*
X99650000Y-105000000D01*
%TO.C,D20*%
X184718218Y-123344609D02*
X185094095Y-123481417D01*
X185094095Y-123481417D02*
X184905984Y-123998248D01*
X185094095Y-123481417D02*
X185282206Y-122964586D01*
X185094095Y-123481417D02*
X185794718Y-123310752D01*
X185521102Y-124062506D02*
X185094095Y-123481417D01*
X185657910Y-123686629D02*
X186127756Y-123857639D01*
X185794718Y-123310752D02*
X185521102Y-124062506D01*
%TO.C,D16*%
X194250000Y-100000000D02*
X194650000Y-100000000D01*
X194650000Y-100000000D02*
X194650000Y-99450000D01*
X194650000Y-100000000D02*
X194650000Y-100550000D01*
X194650000Y-100000000D02*
X195250000Y-99600000D01*
X195250000Y-99600000D02*
X195250000Y-100400000D01*
X195250000Y-100000000D02*
X195750000Y-100000000D01*
X195250000Y-100400000D02*
X194650000Y-100000000D01*
D10*
%TO.C,JST1*%
X202050000Y-60650000D02*
X202050000Y-68250000D01*
X202050000Y-68250000D02*
X207950000Y-68250000D01*
X202750000Y-60650000D02*
X202050000Y-60650000D01*
X202750000Y-62250000D02*
X202750000Y-60650000D01*
X203750000Y-63750000D02*
X204250000Y-63750000D01*
X204000000Y-63500000D02*
X204000000Y-64000000D01*
X207250000Y-60650000D02*
X207250000Y-62250000D01*
X207250000Y-62250000D02*
X202750000Y-62250000D01*
X207950000Y-60650000D02*
X207250000Y-60650000D01*
X207950000Y-68250000D02*
X207950000Y-60650000D01*
D11*
%TO.C,D10*%
X156250000Y-95000000D02*
X156650000Y-95000000D01*
X156650000Y-95000000D02*
X156650000Y-94450000D01*
X156650000Y-95000000D02*
X156650000Y-95550000D01*
X156650000Y-95000000D02*
X157250000Y-94600000D01*
X157250000Y-94600000D02*
X157250000Y-95400000D01*
X157250000Y-95000000D02*
X157750000Y-95000000D01*
X157250000Y-95400000D02*
X156650000Y-95000000D01*
%TO.C,D18*%
X194250000Y-62000000D02*
X194650000Y-62000000D01*
X194650000Y-62000000D02*
X194650000Y-61450000D01*
X194650000Y-62000000D02*
X194650000Y-62550000D01*
X194650000Y-62000000D02*
X195250000Y-61600000D01*
X195250000Y-61600000D02*
X195250000Y-62400000D01*
X195250000Y-62000000D02*
X195750000Y-62000000D01*
X195250000Y-62400000D02*
X194650000Y-62000000D01*
%TO.C,D7*%
X137250000Y-100000000D02*
X137650000Y-100000000D01*
X137650000Y-100000000D02*
X137650000Y-99450000D01*
X137650000Y-100000000D02*
X137650000Y-100550000D01*
X137650000Y-100000000D02*
X138250000Y-99600000D01*
X138250000Y-99600000D02*
X138250000Y-100400000D01*
X138250000Y-100000000D02*
X138750000Y-100000000D01*
X138250000Y-100400000D02*
X137650000Y-100000000D01*
%TO.C,D19*%
X164250000Y-120000000D02*
X164650000Y-120000000D01*
X164650000Y-120000000D02*
X164650000Y-119450000D01*
X164650000Y-120000000D02*
X164650000Y-120550000D01*
X164650000Y-120000000D02*
X165250000Y-119600000D01*
X165250000Y-119600000D02*
X165250000Y-120400000D01*
X165250000Y-120000000D02*
X165750000Y-120000000D01*
X165250000Y-120400000D02*
X164650000Y-120000000D01*
%TO.C,D14*%
X175250000Y-81000000D02*
X175650000Y-81000000D01*
X175650000Y-81000000D02*
X175650000Y-80450000D01*
X175650000Y-81000000D02*
X175650000Y-81550000D01*
X175650000Y-81000000D02*
X176250000Y-80600000D01*
X176250000Y-80600000D02*
X176250000Y-81400000D01*
X176250000Y-81000000D02*
X176750000Y-81000000D01*
X176250000Y-81400000D02*
X175650000Y-81000000D01*
%TO.C,D3*%
X99250000Y-67000000D02*
X99650000Y-67000000D01*
X99650000Y-67000000D02*
X99650000Y-66450000D01*
X99650000Y-67000000D02*
X99650000Y-67550000D01*
X99650000Y-67000000D02*
X100250000Y-66600000D01*
X100250000Y-66600000D02*
X100250000Y-67400000D01*
X100250000Y-67000000D02*
X100750000Y-67000000D01*
X100250000Y-67400000D02*
X99650000Y-67000000D01*
%TO.C,D17*%
X194250000Y-81000000D02*
X194650000Y-81000000D01*
X194650000Y-81000000D02*
X194650000Y-80450000D01*
X194650000Y-81000000D02*
X194650000Y-81550000D01*
X194650000Y-81000000D02*
X195250000Y-80600000D01*
X195250000Y-80600000D02*
X195250000Y-81400000D01*
X195250000Y-81000000D02*
X195750000Y-81000000D01*
X195250000Y-81400000D02*
X194650000Y-81000000D01*
%TO.C,D11*%
X156250000Y-76000000D02*
X156650000Y-76000000D01*
X156650000Y-76000000D02*
X156650000Y-75450000D01*
X156650000Y-76000000D02*
X156650000Y-76550000D01*
X156650000Y-76000000D02*
X157250000Y-75600000D01*
X157250000Y-75600000D02*
X157250000Y-76400000D01*
X157250000Y-76000000D02*
X157750000Y-76000000D01*
X157250000Y-76400000D02*
X156650000Y-76000000D01*
%TO.C,D13*%
X175250000Y-100000000D02*
X175650000Y-100000000D01*
X175650000Y-100000000D02*
X175650000Y-99450000D01*
X175650000Y-100000000D02*
X175650000Y-100550000D01*
X175650000Y-100000000D02*
X176250000Y-99600000D01*
X176250000Y-99600000D02*
X176250000Y-100400000D01*
X176250000Y-100000000D02*
X176750000Y-100000000D01*
X176250000Y-100400000D02*
X175650000Y-100000000D01*
%TO.C,D2*%
X99250000Y-86000000D02*
X99650000Y-86000000D01*
X99650000Y-86000000D02*
X99650000Y-85450000D01*
X99650000Y-86000000D02*
X99650000Y-86550000D01*
X99650000Y-86000000D02*
X100250000Y-85600000D01*
X100250000Y-85600000D02*
X100250000Y-86400000D01*
X100250000Y-86000000D02*
X100750000Y-86000000D01*
X100250000Y-86400000D02*
X99650000Y-86000000D01*
%TO.C,D15*%
X175250000Y-62000000D02*
X175650000Y-62000000D01*
X175650000Y-62000000D02*
X175650000Y-61450000D01*
X175650000Y-62000000D02*
X175650000Y-62550000D01*
X175650000Y-62000000D02*
X176250000Y-61600000D01*
X176250000Y-61600000D02*
X176250000Y-62400000D01*
X176250000Y-62000000D02*
X176750000Y-62000000D01*
X176250000Y-62400000D02*
X175650000Y-62000000D01*
D12*
%TO.C,B1*%
X149050000Y-42275000D02*
X149050000Y-41725000D01*
X150075000Y-40150000D02*
X149150000Y-40150000D01*
X153850000Y-40150000D02*
X152925000Y-40150000D01*
X153850000Y-43850000D02*
X149150000Y-43850000D01*
X153950000Y-42275000D02*
X153950000Y-41725000D01*
D11*
%TO.C,D21*%
X202981775Y-133187287D02*
X203288192Y-133444402D01*
X203288192Y-133444402D02*
X202934659Y-133865727D01*
X203288192Y-133444402D02*
X203641726Y-133023078D01*
X203288192Y-133444402D02*
X204004934Y-133523657D01*
X203490704Y-134136493D02*
X203288192Y-133444402D01*
X203747819Y-133830075D02*
X204130841Y-134151469D01*
X204004934Y-133523657D02*
X203490704Y-134136493D01*
%TO.C,D8*%
X137250000Y-81000000D02*
X137650000Y-81000000D01*
X137650000Y-81000000D02*
X137650000Y-80450000D01*
X137650000Y-81000000D02*
X137650000Y-81550000D01*
X137650000Y-81000000D02*
X138250000Y-80600000D01*
X138250000Y-80600000D02*
X138250000Y-81400000D01*
X138250000Y-81000000D02*
X138750000Y-81000000D01*
X138250000Y-81400000D02*
X137650000Y-81000000D01*
%TO.C,D4*%
X118250000Y-105000000D02*
X118650000Y-105000000D01*
X118650000Y-105000000D02*
X118650000Y-104450000D01*
X118650000Y-105000000D02*
X118650000Y-105550000D01*
X118650000Y-105000000D02*
X119250000Y-104600000D01*
X119250000Y-104600000D02*
X119250000Y-105400000D01*
X119250000Y-105000000D02*
X119750000Y-105000000D01*
X119250000Y-105400000D02*
X118650000Y-105000000D01*
%TD*%
D13*
%TO.C,MCU1*%
X212380000Y-51030000D03*
D14*
X212380000Y-53570000D03*
X212380000Y-56110000D03*
X212380000Y-58650000D03*
X212380000Y-61190000D03*
X212380000Y-63730000D03*
X212380000Y-66270000D03*
X212380000Y-68810000D03*
X212380000Y-71350000D03*
X212380000Y-73890000D03*
X212380000Y-76430000D03*
X212380000Y-78970000D03*
X227620000Y-51030000D03*
X227620000Y-53570000D03*
X227620000Y-56110000D03*
X227620000Y-58650000D03*
X227620000Y-61190000D03*
X227620000Y-63730000D03*
X227620000Y-66270000D03*
X227620000Y-68810000D03*
X227620000Y-71350000D03*
X227620000Y-73890000D03*
X227620000Y-76430000D03*
X227620000Y-78970000D03*
%TD*%
M02*
