M48
; DRILL file {KiCad 9.0.3} date 2025-09-27T17:44:07-0600
; FORMAT={-:-/ absolute / metric / decimal}
; #@! TF.CreationDate,2025-09-27T17:44:07-06:00
; #@! TF.GenerationSoftware,Kicad,Pcbnew,9.0.3
; #@! TF.FileFunction,NonPlated,1,2,NPTH
FMAT,2
METRIC
; #@! TA.AperFunction,NonPlated,NPTH,ComponentDrill
T1C0.750
; #@! TA.AperFunction,NonPlated,NPTH,ComponentDrill
T2C0.900
; #@! TA.AperFunction,NonPlated,NPTH,ComponentDrill
T3C1.702
; #@! TA.AperFunction,NonPlated,NPTH,ComponentDrill
T4C3.000
; #@! TA.AperFunction,NonPlated,NPTH,ComponentDrill
T5C3.429
; #@! TA.AperFunction,NonPlated,NPTH,ComponentDrill
T6C4.000
%
G90
G05
T1
X151.5Y-40.625
X151.5Y-43.375
T2
X161.0Y-42.2
X164.0Y-42.2
T3
X94.5Y-62.0
X94.5Y-81.0
X94.5Y-100.0
X105.5Y-62.0
X105.5Y-81.0
X105.5Y-100.0
X113.5Y-62.0
X113.5Y-81.0
X113.5Y-100.0
X124.5Y-62.0
X124.5Y-81.0
X124.5Y-100.0
X132.5Y-57.0
X132.5Y-76.0
X132.5Y-95.0
X143.5Y-57.0
X143.5Y-76.0
X143.5Y-95.0
X151.5Y-52.0
X151.5Y-71.0
X151.5Y-90.0
X159.5Y-115.0
X162.5Y-52.0
X162.5Y-71.0
X162.5Y-90.0
X170.5Y-57.0
X170.5Y-76.0
X170.5Y-95.0
X170.5Y-115.0
X181.5Y-57.0
X181.5Y-76.0
X181.5Y-95.0
X181.965Y-117.022
X189.5Y-57.0
X189.5Y-76.0
X189.5Y-95.0
X192.301Y-120.784
X200.5Y-57.0
X200.5Y-76.0
X200.5Y-95.0
X202.557Y-126.304
X210.983Y-133.374
T4
X100.0Y-56.05
X100.0Y-75.05
X100.0Y-94.05
X105.0Y-58.25
X105.0Y-77.25
X105.0Y-96.25
X119.0Y-56.05
X119.0Y-75.05
X119.0Y-94.05
X124.0Y-58.25
X124.0Y-77.25
X124.0Y-96.25
X138.0Y-51.05
X138.0Y-70.05
X138.0Y-89.05
X143.0Y-53.25
X143.0Y-72.25
X143.0Y-91.25
X157.0Y-46.05
X157.0Y-65.05
X157.0Y-84.05
X162.0Y-48.25
X162.0Y-67.25
X162.0Y-86.25
X165.0Y-109.05
X170.0Y-111.25
X176.0Y-51.05
X176.0Y-70.05
X176.0Y-89.05
X181.0Y-53.25
X181.0Y-72.25
X181.0Y-91.25
X189.168Y-113.311
X193.114Y-117.089
X195.0Y-51.05
X195.0Y-70.05
X195.0Y-89.05
X200.0Y-53.25
X200.0Y-72.25
X200.0Y-91.25
X210.595Y-125.281
X213.011Y-130.18
T5
X100.0Y-62.0
X100.0Y-81.0
X100.0Y-100.0
X119.0Y-62.0
X119.0Y-81.0
X119.0Y-100.0
X138.0Y-57.0
X138.0Y-76.0
X138.0Y-95.0
X157.0Y-52.0
X157.0Y-71.0
X157.0Y-90.0
X165.0Y-115.0
X176.0Y-57.0
X176.0Y-76.0
X176.0Y-95.0
X187.133Y-118.903
X195.0Y-57.0
X195.0Y-76.0
X195.0Y-95.0
X206.77Y-129.839
T6
X109.54Y-67.1
X109.54Y-105.1
X185.46Y-62.1
X185.46Y-100.1
X197.62Y-122.72
M30
