%TF.GenerationSoftware,KiCad,Pcbnew,9.0.3*%
%TF.CreationDate,2025-09-27T17:43:50-06:00*%
%TF.ProjectId,left_connected,6c656674-5f63-46f6-9e6e-65637465642e,v1.0.0*%
%TF.SameCoordinates,Original*%
%TF.FileFunction,Copper,L1,Top*%
%TF.FilePolarity,Positive*%
%FSLAX46Y46*%
G04 Gerber Fmt 4.6, Leading zero omitted, Abs format (unit mm)*
G04 Created by KiCad (PCBNEW 9.0.3) date 2025-09-27 17:43:50*
%MOMM*%
%LPD*%
G01*
G04 APERTURE LIST*
G04 Aperture macros list*
%AMRotRect*
0 Rectangle, with rotation*
0 The origin of the aperture is its center*
0 $1 length*
0 $2 width*
0 $3 Rotation angle, in degrees counterclockwise*
0 Add horizontal line*
21,1,$1,$2,0,0,$3*%
G04 Aperture macros list end*
%TA.AperFunction,WasherPad*%
%ADD10C,1.000000*%
%TD*%
%TA.AperFunction,ComponentPad*%
%ADD11R,1.778000X1.778000*%
%TD*%
%TA.AperFunction,SMDPad,CuDef*%
%ADD12R,0.900000X1.200000*%
%TD*%
%TA.AperFunction,ComponentPad*%
%ADD13C,1.905000*%
%TD*%
%TA.AperFunction,ComponentPad*%
%ADD14RotRect,1.778000X1.778000X340.000000*%
%TD*%
%TA.AperFunction,SMDPad,CuDef*%
%ADD15RotRect,0.900000X1.200000X340.000000*%
%TD*%
%TA.AperFunction,ComponentPad*%
%ADD16R,1.200000X1.700000*%
%TD*%
%TA.AperFunction,ComponentPad*%
%ADD17O,1.200000X1.700000*%
%TD*%
%TA.AperFunction,ComponentPad*%
%ADD18R,1.752600X1.752600*%
%TD*%
%TA.AperFunction,ComponentPad*%
%ADD19C,1.752600*%
%TD*%
%TA.AperFunction,ComponentPad*%
%ADD20RotRect,1.778000X1.778000X320.000000*%
%TD*%
%TA.AperFunction,SMDPad,CuDef*%
%ADD21RotRect,0.900000X1.200000X320.000000*%
%TD*%
%TA.AperFunction,ViaPad*%
%ADD22C,0.800000*%
%TD*%
%TA.AperFunction,Conductor*%
%ADD23C,0.250000*%
%TD*%
G04 APERTURE END LIST*
D10*
%TO.P,T1,*%
%TO.N,*%
X161000000Y-42200000D03*
X164000000Y-42200000D03*
%TD*%
D11*
%TO.P,D9,1*%
%TO.N,P2*%
X134190000Y-62000000D03*
D12*
X136350000Y-62000000D03*
%TO.P,D9,2*%
%TO.N,ring_top*%
X139650000Y-62000000D03*
D13*
X141810000Y-62000000D03*
%TD*%
D11*
%TO.P,D6,1*%
%TO.N,P2*%
X115190000Y-67000000D03*
D12*
X117350000Y-67000000D03*
%TO.P,D6,2*%
%TO.N,pinky_top*%
X120650000Y-67000000D03*
D13*
X122810000Y-67000000D03*
%TD*%
D11*
%TO.P,D5,1*%
%TO.N,P10*%
X115190000Y-86000000D03*
D12*
X117350000Y-86000000D03*
%TO.P,D5,2*%
%TO.N,pinky_home*%
X120650000Y-86000000D03*
D13*
X122810000Y-86000000D03*
%TD*%
D11*
%TO.P,D12,1*%
%TO.N,P2*%
X153190000Y-57000000D03*
D12*
X155350000Y-57000000D03*
%TO.P,D12,2*%
%TO.N,middle_top*%
X158650000Y-57000000D03*
D13*
X160810000Y-57000000D03*
%TD*%
D11*
%TO.P,D1,1*%
%TO.N,P16*%
X96190000Y-105000000D03*
D12*
X98350000Y-105000000D03*
%TO.P,D1,2*%
%TO.N,outer_bottom*%
X101650000Y-105000000D03*
D13*
X103810000Y-105000000D03*
%TD*%
D14*
%TO.P,D20,1*%
%TO.N,P3*%
X181842758Y-122298027D03*
D15*
X183872494Y-123036791D03*
%TO.P,D20,2*%
%TO.N,home_thumb*%
X186973480Y-124165457D03*
D13*
X189003216Y-124904221D03*
%TD*%
D11*
%TO.P,D16,1*%
%TO.N,P16*%
X191190000Y-100000000D03*
D12*
X193350000Y-100000000D03*
%TO.P,D16,2*%
%TO.N,inner_bottom*%
X196650000Y-100000000D03*
D13*
X198810000Y-100000000D03*
%TD*%
D16*
%TO.P,JST1,1*%
%TO.N,pos*%
X204000000Y-62000000D03*
D17*
%TO.P,JST1,2*%
%TO.N,GND*%
X206000000Y-62000000D03*
%TD*%
D11*
%TO.P,D10,1*%
%TO.N,P16*%
X153190000Y-95000000D03*
D12*
X155350000Y-95000000D03*
%TO.P,D10,2*%
%TO.N,middle_bottom*%
X158650000Y-95000000D03*
D13*
X160810000Y-95000000D03*
%TD*%
D11*
%TO.P,D18,1*%
%TO.N,P2*%
X191190000Y-62000000D03*
D12*
X193350000Y-62000000D03*
%TO.P,D18,2*%
%TO.N,inner_top*%
X196650000Y-62000000D03*
D13*
X198810000Y-62000000D03*
%TD*%
D11*
%TO.P,D7,1*%
%TO.N,P16*%
X134190000Y-100000000D03*
D12*
X136350000Y-100000000D03*
%TO.P,D7,2*%
%TO.N,ring_bottom*%
X139650000Y-100000000D03*
D13*
X141810000Y-100000000D03*
%TD*%
D11*
%TO.P,D19,1*%
%TO.N,P3*%
X161190000Y-120000000D03*
D12*
X163350000Y-120000000D03*
%TO.P,D19,2*%
%TO.N,near_thumb*%
X166650000Y-120000000D03*
D13*
X168810000Y-120000000D03*
%TD*%
D18*
%TO.P,MCU1,1*%
%TO.N,RAW*%
X212380000Y-51030000D03*
D19*
%TO.P,MCU1,2*%
%TO.N,GND*%
X212380000Y-53570000D03*
%TO.P,MCU1,3*%
%TO.N,RST*%
X212380000Y-56110000D03*
%TO.P,MCU1,4*%
%TO.N,VCC*%
X212380000Y-58650000D03*
%TO.P,MCU1,5*%
%TO.N,P21*%
X212380000Y-61190000D03*
%TO.P,MCU1,6*%
%TO.N,P20*%
X212380000Y-63730000D03*
%TO.P,MCU1,7*%
%TO.N,P19*%
X212380000Y-66270000D03*
%TO.P,MCU1,8*%
%TO.N,P18*%
X212380000Y-68810000D03*
%TO.P,MCU1,9*%
%TO.N,P15*%
X212380000Y-71350000D03*
%TO.P,MCU1,10*%
%TO.N,P14*%
X212380000Y-73890000D03*
%TO.P,MCU1,11*%
%TO.N,P16*%
X212380000Y-76430000D03*
%TO.P,MCU1,12*%
%TO.N,P10*%
X212380000Y-78970000D03*
%TO.P,MCU1,13*%
%TO.N,P1*%
X227620000Y-51030000D03*
%TO.P,MCU1,14*%
%TO.N,P0*%
X227620000Y-53570000D03*
%TO.P,MCU1,15*%
%TO.N,GND*%
X227620000Y-56110000D03*
%TO.P,MCU1,16*%
X227620000Y-58650000D03*
%TO.P,MCU1,17*%
%TO.N,P2*%
X227620000Y-61190000D03*
%TO.P,MCU1,18*%
%TO.N,P3*%
X227620000Y-63730000D03*
%TO.P,MCU1,19*%
%TO.N,P4*%
X227620000Y-66270000D03*
%TO.P,MCU1,20*%
%TO.N,P5*%
X227620000Y-68810000D03*
%TO.P,MCU1,21*%
%TO.N,P6*%
X227620000Y-71350000D03*
%TO.P,MCU1,22*%
%TO.N,P7*%
X227620000Y-73890000D03*
%TO.P,MCU1,23*%
%TO.N,P8*%
X227620000Y-76430000D03*
%TO.P,MCU1,24*%
%TO.N,P9*%
X227620000Y-78970000D03*
%TD*%
D11*
%TO.P,D14,1*%
%TO.N,P10*%
X172190000Y-81000000D03*
D12*
X174350000Y-81000000D03*
%TO.P,D14,2*%
%TO.N,index_home*%
X177650000Y-81000000D03*
D13*
X179810000Y-81000000D03*
%TD*%
D11*
%TO.P,D3,1*%
%TO.N,P2*%
X96190000Y-67000000D03*
D12*
X98350000Y-67000000D03*
%TO.P,D3,2*%
%TO.N,outer_top*%
X101650000Y-67000000D03*
D13*
X103810000Y-67000000D03*
%TD*%
D11*
%TO.P,D17,1*%
%TO.N,P10*%
X191190000Y-81000000D03*
D12*
X193350000Y-81000000D03*
%TO.P,D17,2*%
%TO.N,inner_home*%
X196650000Y-81000000D03*
D13*
X198810000Y-81000000D03*
%TD*%
D11*
%TO.P,D11,1*%
%TO.N,P10*%
X153190000Y-76000000D03*
D12*
X155350000Y-76000000D03*
%TO.P,D11,2*%
%TO.N,middle_home*%
X158650000Y-76000000D03*
D13*
X160810000Y-76000000D03*
%TD*%
D11*
%TO.P,D13,1*%
%TO.N,P16*%
X172190000Y-100000000D03*
D12*
X174350000Y-100000000D03*
%TO.P,D13,2*%
%TO.N,index_bottom*%
X177650000Y-100000000D03*
D13*
X179810000Y-100000000D03*
%TD*%
D11*
%TO.P,D2,1*%
%TO.N,P10*%
X96190000Y-86000000D03*
D12*
X98350000Y-86000000D03*
%TO.P,D2,2*%
%TO.N,outer_home*%
X101650000Y-86000000D03*
D13*
X103810000Y-86000000D03*
%TD*%
D11*
%TO.P,D15,1*%
%TO.N,P2*%
X172190000Y-62000000D03*
D12*
X174350000Y-62000000D03*
%TO.P,D15,2*%
%TO.N,index_top*%
X177650000Y-62000000D03*
D13*
X179810000Y-62000000D03*
%TD*%
D20*
%TO.P,D21,1*%
%TO.N,P3*%
X200637679Y-131220357D03*
D21*
X202292335Y-132608778D03*
%TO.P,D21,2*%
%TO.N,far_thumb*%
X204820281Y-134729978D03*
D13*
X206474937Y-136118399D03*
%TD*%
D11*
%TO.P,D8,1*%
%TO.N,P10*%
X134190000Y-81000000D03*
D12*
X136350000Y-81000000D03*
%TO.P,D8,2*%
%TO.N,ring_home*%
X139650000Y-81000000D03*
D13*
X141810000Y-81000000D03*
%TD*%
D11*
%TO.P,D4,1*%
%TO.N,P16*%
X115190000Y-105000000D03*
D12*
X117350000Y-105000000D03*
%TO.P,D4,2*%
%TO.N,pinky_bottom*%
X120650000Y-105000000D03*
D13*
X122810000Y-105000000D03*
%TD*%
D22*
%TO.N,P4*%
X153000000Y-118500000D03*
%TO.N,P5*%
X153500000Y-117500000D03*
%TO.N,P6*%
X153500000Y-113500000D03*
%TO.N,P7*%
X179500000Y-109000000D03*
%TO.N,P8*%
X197500000Y-108000000D03*
%TO.N,P9*%
X214000000Y-106000000D03*
%TO.N,GND*%
X156500000Y-41500000D03*
%TO.N,pos*%
X160000000Y-54000000D03*
%TD*%
D23*
%TO.N,P4*%
X227000000Y-111500000D02*
X227000000Y-100500000D01*
X219500000Y-119000000D02*
X227000000Y-111500000D01*
X233000000Y-94500000D02*
X233000000Y-71650000D01*
X184687839Y-116812161D02*
X190064884Y-116812161D01*
X227000000Y-100500000D02*
X233000000Y-94500000D01*
X233000000Y-71650000D02*
X227620000Y-66270000D01*
X192252723Y-119000000D02*
X219500000Y-119000000D01*
X153000000Y-118500000D02*
X183000000Y-118500000D01*
X190064884Y-116812161D02*
X192252723Y-119000000D01*
X183000000Y-118500000D02*
X184687839Y-116812161D01*
%TO.N,outer_bottom*%
X103810000Y-105000000D02*
X101650000Y-105000000D01*
%TO.N,outer_home*%
X101650000Y-86000000D02*
X103810000Y-86000000D01*
%TO.N,outer_top*%
X101650000Y-67000000D02*
X103810000Y-67000000D01*
%TO.N,P5*%
X226000000Y-100000000D02*
X232000000Y-94000000D01*
X182063739Y-115187490D02*
X222312510Y-115187490D01*
X179751229Y-117500000D02*
X182063739Y-115187490D01*
X153500000Y-117500000D02*
X179751229Y-117500000D01*
X226000000Y-111500000D02*
X226000000Y-100000000D01*
X222312510Y-115187490D02*
X226000000Y-111500000D01*
X232000000Y-94000000D02*
X232000000Y-73190000D01*
X232000000Y-73190000D02*
X227620000Y-68810000D01*
%TO.N,pinky_bottom*%
X122810000Y-105000000D02*
X120650000Y-105000000D01*
%TO.N,pinky_home*%
X120650000Y-86000000D02*
X122810000Y-86000000D01*
%TO.N,pinky_top*%
X120650000Y-67000000D02*
X122810000Y-67000000D01*
%TO.N,P6*%
X169304828Y-113207893D02*
X186618639Y-113207893D01*
X231000000Y-74730000D02*
X227620000Y-71350000D01*
X188826532Y-111000000D02*
X225000000Y-111000000D01*
X231000000Y-92500000D02*
X231000000Y-74730000D01*
X154090500Y-112909500D02*
X169006435Y-112909500D01*
X186618639Y-113207893D02*
X188826532Y-111000000D01*
X169006435Y-112909500D02*
X169304828Y-113207893D01*
X225000000Y-111000000D02*
X225000000Y-98500000D01*
X225000000Y-98500000D02*
X231000000Y-92500000D01*
X153500000Y-113500000D02*
X154090500Y-112909500D01*
%TO.N,ring_bottom*%
X141810000Y-100000000D02*
X139650000Y-100000000D01*
%TO.N,ring_home*%
X139650000Y-81000000D02*
X141810000Y-81000000D01*
%TO.N,ring_top*%
X141810000Y-62000000D02*
X139650000Y-62000000D01*
%TO.N,P7*%
X224000000Y-108500000D02*
X224000000Y-97500000D01*
X223500000Y-109000000D02*
X224000000Y-108500000D01*
X230000000Y-76270000D02*
X227620000Y-73890000D01*
X230000000Y-91500000D02*
X230000000Y-76270000D01*
X224000000Y-97500000D02*
X230000000Y-91500000D01*
X179500000Y-109000000D02*
X223500000Y-109000000D01*
%TO.N,middle_bottom*%
X158650000Y-95000000D02*
X160810000Y-95000000D01*
%TO.N,middle_home*%
X160810000Y-76000000D02*
X158650000Y-76000000D01*
%TO.N,middle_top*%
X158650000Y-57000000D02*
X160810000Y-57000000D01*
%TO.N,P8*%
X223000000Y-105500000D02*
X223000000Y-96000000D01*
X229000000Y-90000000D02*
X229000000Y-77810000D01*
X197500000Y-108000000D02*
X220500000Y-108000000D01*
X229000000Y-77810000D02*
X227620000Y-76430000D01*
X220500000Y-108000000D02*
X223000000Y-105500000D01*
X223000000Y-96000000D02*
X229000000Y-90000000D01*
%TO.N,index_bottom*%
X179810000Y-100000000D02*
X177650000Y-100000000D01*
%TO.N,index_home*%
X177650000Y-81000000D02*
X179810000Y-81000000D01*
%TO.N,index_top*%
X179810000Y-62000000D02*
X177650000Y-62000000D01*
%TO.N,P9*%
X222000000Y-98000000D02*
X222000000Y-94500000D01*
X214000000Y-106000000D02*
X222000000Y-98000000D01*
X227500000Y-89000000D02*
X227500000Y-79090000D01*
X222000000Y-94500000D02*
X227500000Y-89000000D01*
X227500000Y-79090000D02*
X227620000Y-78970000D01*
%TO.N,inner_bottom*%
X198810000Y-100000000D02*
X196650000Y-100000000D01*
%TO.N,inner_home*%
X196650000Y-81000000D02*
X198810000Y-81000000D01*
%TO.N,inner_top*%
X198810000Y-62000000D02*
X196650000Y-62000000D01*
%TO.N,near_thumb*%
X166650000Y-120000000D02*
X168810000Y-120000000D01*
%TO.N,home_thumb*%
X186973480Y-124165457D02*
X188264452Y-124165457D01*
X188264452Y-124165457D02*
X189003216Y-124904221D01*
%TO.N,far_thumb*%
X204820281Y-134729978D02*
X205086516Y-134729978D01*
X205086516Y-134729978D02*
X206474937Y-136118399D01*
%TO.N,P16*%
X136350000Y-100000000D02*
X137628500Y-101278500D01*
X98350000Y-105000000D02*
X100876000Y-107526000D01*
X136350000Y-100000000D02*
X134190000Y-100000000D01*
X174350000Y-100000000D02*
X176876000Y-102526000D01*
X208778500Y-98721500D02*
X216000000Y-91500000D01*
X117350000Y-105000000D02*
X118628500Y-106278500D01*
X118628500Y-106278500D02*
X127911500Y-106278500D01*
X153190000Y-95000000D02*
X155350000Y-95000000D01*
X216000000Y-80050000D02*
X212380000Y-76430000D01*
X117350000Y-105000000D02*
X115190000Y-105000000D01*
X96190000Y-105000000D02*
X98350000Y-105000000D01*
X194628500Y-98721500D02*
X208778500Y-98721500D01*
X146911500Y-101278500D02*
X153190000Y-95000000D01*
X137628500Y-101278500D02*
X146911500Y-101278500D01*
X193350000Y-100000000D02*
X191190000Y-100000000D01*
X112664000Y-107526000D02*
X115190000Y-105000000D01*
X216000000Y-91500000D02*
X216000000Y-80050000D01*
X188664000Y-102526000D02*
X191190000Y-100000000D01*
X127911500Y-106278500D02*
X134190000Y-100000000D01*
X193350000Y-100000000D02*
X194628500Y-98721500D01*
X155350000Y-95000000D02*
X160350000Y-100000000D01*
X176876000Y-102526000D02*
X188664000Y-102526000D01*
X174350000Y-100000000D02*
X172190000Y-100000000D01*
X160350000Y-100000000D02*
X172190000Y-100000000D01*
X100876000Y-107526000D02*
X112664000Y-107526000D01*
%TO.N,P10*%
X146911500Y-82278500D02*
X153190000Y-76000000D01*
X175628500Y-82278500D02*
X189911500Y-82278500D01*
X136350000Y-81000000D02*
X137628500Y-82278500D01*
X98350000Y-86000000D02*
X99628500Y-87278500D01*
X96190000Y-86000000D02*
X98350000Y-86000000D01*
X115190000Y-86000000D02*
X117350000Y-86000000D01*
X118628500Y-87278500D02*
X127911500Y-87278500D01*
X193350000Y-81000000D02*
X194628500Y-82278500D01*
X172190000Y-81000000D02*
X174350000Y-81000000D01*
X191190000Y-81000000D02*
X193350000Y-81000000D01*
X113911500Y-87278500D02*
X115190000Y-86000000D01*
X99628500Y-87278500D02*
X113911500Y-87278500D01*
X189911500Y-82278500D02*
X191190000Y-81000000D01*
X155350000Y-76000000D02*
X153190000Y-76000000D01*
X155350000Y-76000000D02*
X160350000Y-81000000D01*
X194628500Y-82278500D02*
X209071500Y-82278500D01*
X134190000Y-81000000D02*
X136350000Y-81000000D01*
X174350000Y-81000000D02*
X175628500Y-82278500D01*
X209071500Y-82278500D02*
X212380000Y-78970000D01*
X137628500Y-82278500D02*
X146911500Y-82278500D01*
X117350000Y-86000000D02*
X118628500Y-87278500D01*
X160350000Y-81000000D02*
X172190000Y-81000000D01*
X127911500Y-87278500D02*
X134190000Y-81000000D01*
%TO.N,P2*%
X146911500Y-63278500D02*
X153190000Y-57000000D01*
X137628500Y-63278500D02*
X146911500Y-63278500D01*
X176876000Y-64526000D02*
X188664000Y-64526000D01*
X115190000Y-67000000D02*
X117350000Y-67000000D01*
X136350000Y-62000000D02*
X134190000Y-62000000D01*
X188664000Y-64526000D02*
X191190000Y-62000000D01*
X196417700Y-65067700D02*
X223742300Y-65067700D01*
X160350000Y-62000000D02*
X172190000Y-62000000D01*
X174350000Y-62000000D02*
X176876000Y-64526000D01*
X155350000Y-57000000D02*
X160350000Y-62000000D01*
X100876000Y-69526000D02*
X112664000Y-69526000D01*
X193350000Y-62000000D02*
X196417700Y-65067700D01*
X118628500Y-68278500D02*
X127911500Y-68278500D01*
X193350000Y-62000000D02*
X191190000Y-62000000D01*
X96190000Y-67000000D02*
X98350000Y-67000000D01*
X117350000Y-67000000D02*
X118628500Y-68278500D01*
X136350000Y-62000000D02*
X137628500Y-63278500D01*
X127911500Y-68278500D02*
X134190000Y-62000000D01*
X112664000Y-69526000D02*
X115190000Y-67000000D01*
X223742300Y-65067700D02*
X227620000Y-61190000D01*
X174350000Y-62000000D02*
X172190000Y-62000000D01*
X98350000Y-67000000D02*
X100876000Y-69526000D01*
X153190000Y-57000000D02*
X155350000Y-57000000D01*
%TO.N,P3*%
X189036791Y-123036791D02*
X197220357Y-131220357D01*
X197220357Y-131220357D02*
X200637679Y-131220357D01*
X233500000Y-95000000D02*
X233500000Y-69610000D01*
X227500000Y-101000000D02*
X233500000Y-95000000D01*
X233500000Y-69610000D02*
X227620000Y-63730000D01*
X183872494Y-123036791D02*
X189036791Y-123036791D01*
X202292335Y-132608778D02*
X207929506Y-132608778D01*
X183133730Y-122298027D02*
X183872494Y-123036791D01*
X227500000Y-113038284D02*
X227500000Y-101000000D01*
X200637679Y-131220357D02*
X200903914Y-131220357D01*
X181842758Y-122298027D02*
X183133730Y-122298027D01*
X165648027Y-122298027D02*
X181842758Y-122298027D01*
X161190000Y-120000000D02*
X163350000Y-120000000D01*
X207929506Y-132608778D02*
X227500000Y-113038284D01*
X163350000Y-120000000D02*
X165648027Y-122298027D01*
X200903914Y-131220357D02*
X202292335Y-132608778D01*
%TO.N,GND*%
X201978040Y-51000000D02*
X208912047Y-51000000D01*
X206000000Y-59950000D02*
X206000000Y-62000000D01*
X212380000Y-53570000D02*
X206000000Y-59950000D01*
X211482047Y-53570000D02*
X212380000Y-53570000D01*
X225080000Y-53570000D02*
X227620000Y-56110000D01*
X156500000Y-41500000D02*
X160000000Y-45000000D01*
X160000000Y-45000000D02*
X195978040Y-45000000D01*
X212380000Y-53570000D02*
X225080000Y-53570000D01*
X227620000Y-56110000D02*
X227620000Y-58650000D01*
X195978040Y-45000000D02*
X201978040Y-51000000D01*
X208912047Y-51000000D02*
X211482047Y-53570000D01*
%TO.N,pos*%
X160000000Y-54000000D02*
X165090500Y-59090500D01*
X201090500Y-59090500D02*
X204000000Y-62000000D01*
X165090500Y-59090500D02*
X201090500Y-59090500D01*
%TD*%
M02*
