%TF.GenerationSoftware,KiCad,Pcbnew,9.0.3*%
%TF.CreationDate,2025-09-27T17:43:50-06:00*%
%TF.ProjectId,left_connected,6c656674-5f63-46f6-9e6e-65637465642e,v1.0.0*%
%TF.SameCoordinates,Original*%
%TF.FileFunction,Soldermask,Top*%
%TF.FilePolarity,Negative*%
%FSLAX46Y46*%
G04 Gerber Fmt 4.6, Leading zero omitted, Abs format (unit mm)*
G04 Created by KiCad (PCBNEW 9.0.3) date 2025-09-27 17:43:50*
%MOMM*%
%LPD*%
G01*
G04 APERTURE LIST*
G04 Aperture macros list*
%AMRoundRect*
0 Rectangle with rounded corners*
0 $1 Rounding radius*
0 $2 $3 $4 $5 $6 $7 $8 $9 X,Y pos of 4 corners*
0 Add a 4 corners polygon primitive as box body*
4,1,4,$2,$3,$4,$5,$6,$7,$8,$9,$2,$3,0*
0 Add four circle primitives for the rounded corners*
1,1,$1+$1,$2,$3*
1,1,$1+$1,$4,$5*
1,1,$1+$1,$6,$7*
1,1,$1+$1,$8,$9*
0 Add four rect primitives between the rounded corners*
20,1,$1+$1,$2,$3,$4,$5,0*
20,1,$1+$1,$4,$5,$6,$7,0*
20,1,$1+$1,$6,$7,$8,$9,0*
20,1,$1+$1,$8,$9,$2,$3,0*%
G04 Aperture macros list end*
%ADD10C,1.100000*%
%ADD11C,1.801800*%
%ADD12C,3.100000*%
%ADD13C,3.529000*%
%ADD14RoundRect,0.050000X-0.889000X-0.889000X0.889000X-0.889000X0.889000X0.889000X-0.889000X0.889000X0*%
%ADD15RoundRect,0.050000X-0.450000X-0.600000X0.450000X-0.600000X0.450000X0.600000X-0.450000X0.600000X0*%
%ADD16C,2.005000*%
%ADD17RoundRect,0.050000X-1.139443X-0.531331X0.531331X-1.139443X1.139443X0.531331X-0.531331X1.139443X0*%
%ADD18RoundRect,0.050000X-0.628074X-0.409907X0.217650X-0.717725X0.628074X0.409907X-0.217650X0.717725X0*%
%ADD19RoundRect,0.050000X-0.600000X-0.850000X0.600000X-0.850000X0.600000X0.850000X-0.600000X0.850000X0*%
%ADD20O,1.300000X1.800000*%
%ADD21RoundRect,0.050000X-0.876300X0.876300X-0.876300X-0.876300X0.876300X-0.876300X0.876300X0.876300X0*%
%ADD22C,1.852600*%
%ADD23C,4.100000*%
%ADD24C,0.850000*%
%ADD25RoundRect,0.050000X-1.252452X-0.109575X0.109575X-1.252452X1.252452X0.109575X-0.109575X1.252452X0*%
%ADD26RoundRect,0.050000X-0.730393X-0.170372X-0.040953X-0.748881X0.730393X0.170372X0.040953X0.748881X0*%
G04 APERTURE END LIST*
D10*
%TO.C,T1*%
X161000000Y-42200000D03*
X164000000Y-42200000D03*
%TD*%
D11*
%TO.C,S11*%
X151500000Y-71000000D03*
D12*
X157000000Y-65050000D03*
D13*
X157000000Y-71000000D03*
D12*
X162000000Y-67250000D03*
D11*
X162500000Y-71000000D03*
%TD*%
%TO.C,S8*%
X132500000Y-76000000D03*
D12*
X138000000Y-70050000D03*
D13*
X138000000Y-76000000D03*
D12*
X143000000Y-72250000D03*
D11*
X143500000Y-76000000D03*
%TD*%
D14*
%TO.C,D9*%
X134190000Y-62000000D03*
D15*
X136350000Y-62000000D03*
X139650000Y-62000000D03*
D16*
X141810000Y-62000000D03*
%TD*%
D11*
%TO.C,S19*%
X159500000Y-115000000D03*
D12*
X165000000Y-109050000D03*
D13*
X165000000Y-115000000D03*
D12*
X170000000Y-111250000D03*
D11*
X170500000Y-115000000D03*
%TD*%
D14*
%TO.C,D6*%
X115190000Y-67000000D03*
D15*
X117350000Y-67000000D03*
X120650000Y-67000000D03*
D16*
X122810000Y-67000000D03*
%TD*%
D11*
%TO.C,S10*%
X151500000Y-90000000D03*
D12*
X157000000Y-84050000D03*
D13*
X157000000Y-90000000D03*
D12*
X162000000Y-86250000D03*
D11*
X162500000Y-90000000D03*
%TD*%
%TO.C,S16*%
X189500000Y-95000000D03*
D12*
X195000000Y-89050000D03*
D13*
X195000000Y-95000000D03*
D12*
X200000000Y-91250000D03*
D11*
X200500000Y-95000000D03*
%TD*%
D14*
%TO.C,D5*%
X115190000Y-86000000D03*
D15*
X117350000Y-86000000D03*
X120650000Y-86000000D03*
D16*
X122810000Y-86000000D03*
%TD*%
D11*
%TO.C,S2*%
X94500000Y-81000000D03*
D12*
X100000000Y-75050000D03*
D13*
X100000000Y-81000000D03*
D12*
X105000000Y-77250000D03*
D11*
X105500000Y-81000000D03*
%TD*%
D14*
%TO.C,D12*%
X153190000Y-57000000D03*
D15*
X155350000Y-57000000D03*
X158650000Y-57000000D03*
D16*
X160810000Y-57000000D03*
%TD*%
D14*
%TO.C,D1*%
X96190000Y-105000000D03*
D15*
X98350000Y-105000000D03*
X101650000Y-105000000D03*
D16*
X103810000Y-105000000D03*
%TD*%
D17*
%TO.C,D20*%
X181842758Y-122298027D03*
D18*
X183872494Y-123036791D03*
X186973480Y-124165457D03*
D16*
X189003216Y-124904221D03*
%TD*%
D14*
%TO.C,D16*%
X191190000Y-100000000D03*
D15*
X193350000Y-100000000D03*
X196650000Y-100000000D03*
D16*
X198810000Y-100000000D03*
%TD*%
D19*
%TO.C,JST1*%
X204000000Y-62000000D03*
D20*
X206000000Y-62000000D03*
%TD*%
D14*
%TO.C,D10*%
X153190000Y-95000000D03*
D15*
X155350000Y-95000000D03*
X158650000Y-95000000D03*
D16*
X160810000Y-95000000D03*
%TD*%
D14*
%TO.C,D18*%
X191190000Y-62000000D03*
D15*
X193350000Y-62000000D03*
X196650000Y-62000000D03*
D16*
X198810000Y-62000000D03*
%TD*%
D11*
%TO.C,S13*%
X170500000Y-95000000D03*
D12*
X176000000Y-89050000D03*
D13*
X176000000Y-95000000D03*
D12*
X181000000Y-91250000D03*
D11*
X181500000Y-95000000D03*
%TD*%
D14*
%TO.C,D7*%
X134190000Y-100000000D03*
D15*
X136350000Y-100000000D03*
X139650000Y-100000000D03*
D16*
X141810000Y-100000000D03*
%TD*%
D11*
%TO.C,S15*%
X170500000Y-57000000D03*
D12*
X176000000Y-51050000D03*
D13*
X176000000Y-57000000D03*
D12*
X181000000Y-53250000D03*
D11*
X181500000Y-57000000D03*
%TD*%
%TO.C,S12*%
X151500000Y-52000000D03*
D12*
X157000000Y-46050000D03*
D13*
X157000000Y-52000000D03*
D12*
X162000000Y-48250000D03*
D11*
X162500000Y-52000000D03*
%TD*%
D14*
%TO.C,D19*%
X161190000Y-120000000D03*
D15*
X163350000Y-120000000D03*
X166650000Y-120000000D03*
D16*
X168810000Y-120000000D03*
%TD*%
D21*
%TO.C,MCU1*%
X212380000Y-51030000D03*
D22*
X212380000Y-53570000D03*
X212380000Y-56110000D03*
X212380000Y-58650000D03*
X212380000Y-61190000D03*
X212380000Y-63730000D03*
X212380000Y-66270000D03*
X212380000Y-68810000D03*
X212380000Y-71350000D03*
X212380000Y-73890000D03*
X212380000Y-76430000D03*
X212380000Y-78970000D03*
X227620000Y-51030000D03*
X227620000Y-53570000D03*
X227620000Y-56110000D03*
X227620000Y-58650000D03*
X227620000Y-61190000D03*
X227620000Y-63730000D03*
X227620000Y-66270000D03*
X227620000Y-68810000D03*
X227620000Y-71350000D03*
X227620000Y-73890000D03*
X227620000Y-76430000D03*
X227620000Y-78970000D03*
%TD*%
D14*
%TO.C,D14*%
X172190000Y-81000000D03*
D15*
X174350000Y-81000000D03*
X177650000Y-81000000D03*
D16*
X179810000Y-81000000D03*
%TD*%
D23*
%TO.C,*%
X185460000Y-62100000D03*
%TD*%
D14*
%TO.C,D3*%
X96190000Y-67000000D03*
D15*
X98350000Y-67000000D03*
X101650000Y-67000000D03*
D16*
X103810000Y-67000000D03*
%TD*%
D11*
%TO.C,S20*%
X181964778Y-117021550D03*
D12*
X189168107Y-113311490D03*
D13*
X187133087Y-118902661D03*
D12*
X193114126Y-117088914D03*
D11*
X192301396Y-120783772D03*
%TD*%
D23*
%TO.C,*%
X185460000Y-100100000D03*
%TD*%
D11*
%TO.C,S1*%
X94500000Y-100000000D03*
D12*
X100000000Y-94050000D03*
D13*
X100000000Y-100000000D03*
D12*
X105000000Y-96250000D03*
D11*
X105500000Y-100000000D03*
%TD*%
D14*
%TO.C,D17*%
X191190000Y-81000000D03*
D15*
X193350000Y-81000000D03*
X196650000Y-81000000D03*
D16*
X198810000Y-81000000D03*
%TD*%
D14*
%TO.C,D11*%
X153190000Y-76000000D03*
D15*
X155350000Y-76000000D03*
X158650000Y-76000000D03*
D16*
X160810000Y-76000000D03*
%TD*%
D11*
%TO.C,S6*%
X113500000Y-62000000D03*
D12*
X119000000Y-56050000D03*
D13*
X119000000Y-62000000D03*
D12*
X124000000Y-58250000D03*
D11*
X124500000Y-62000000D03*
%TD*%
%TO.C,S18*%
X189500000Y-57000000D03*
D12*
X195000000Y-51050000D03*
D13*
X195000000Y-57000000D03*
D12*
X200000000Y-53250000D03*
D11*
X200500000Y-57000000D03*
%TD*%
%TO.C,S4*%
X113500000Y-100000000D03*
D12*
X119000000Y-94050000D03*
D13*
X119000000Y-100000000D03*
D12*
X124000000Y-96250000D03*
D11*
X124500000Y-100000000D03*
%TD*%
%TO.C,S9*%
X132500000Y-57000000D03*
D12*
X138000000Y-51050000D03*
D13*
X138000000Y-57000000D03*
D12*
X143000000Y-53250000D03*
D11*
X143500000Y-57000000D03*
%TD*%
D14*
%TO.C,D13*%
X172190000Y-100000000D03*
D15*
X174350000Y-100000000D03*
X177650000Y-100000000D03*
D16*
X179810000Y-100000000D03*
%TD*%
D11*
%TO.C,S3*%
X94500000Y-62000000D03*
D12*
X100000000Y-56050000D03*
D13*
X100000000Y-62000000D03*
D12*
X105000000Y-58250000D03*
D11*
X105500000Y-62000000D03*
%TD*%
D14*
%TO.C,D2*%
X96190000Y-86000000D03*
D15*
X98350000Y-86000000D03*
X101650000Y-86000000D03*
D16*
X103810000Y-86000000D03*
%TD*%
D11*
%TO.C,S5*%
X113500000Y-81000000D03*
D12*
X119000000Y-75050000D03*
D13*
X119000000Y-81000000D03*
D12*
X124000000Y-77250000D03*
D11*
X124500000Y-81000000D03*
%TD*%
D23*
%TO.C,*%
X109540000Y-67100000D03*
%TD*%
%TO.C,*%
X109540000Y-105100000D03*
%TD*%
D11*
%TO.C,S14*%
X170500000Y-76000000D03*
D12*
X176000000Y-70050000D03*
D13*
X176000000Y-76000000D03*
D12*
X181000000Y-72250000D03*
D11*
X181500000Y-76000000D03*
%TD*%
D14*
%TO.C,D15*%
X172190000Y-62000000D03*
D15*
X174350000Y-62000000D03*
X177650000Y-62000000D03*
D16*
X179810000Y-62000000D03*
%TD*%
D24*
%TO.C,B1*%
X151500000Y-40625000D03*
X151500000Y-43375000D03*
%TD*%
D25*
%TO.C,D21*%
X200637679Y-131220357D03*
D26*
X202292335Y-132608778D03*
X204820281Y-134729978D03*
D16*
X206474937Y-136118399D03*
%TD*%
D14*
%TO.C,D8*%
X134190000Y-81000000D03*
D15*
X136350000Y-81000000D03*
X139650000Y-81000000D03*
D16*
X141810000Y-81000000D03*
%TD*%
D14*
%TO.C,D4*%
X115190000Y-105000000D03*
D15*
X117350000Y-105000000D03*
X120650000Y-105000000D03*
D16*
X122810000Y-105000000D03*
%TD*%
D11*
%TO.C,S7*%
X132500000Y-95000000D03*
D12*
X138000000Y-89050000D03*
D13*
X138000000Y-95000000D03*
D12*
X143000000Y-91250000D03*
D11*
X143500000Y-95000000D03*
%TD*%
%TO.C,S21*%
X202557002Y-126303824D03*
D12*
X210594832Y-125281192D03*
D13*
X206770246Y-129839156D03*
D12*
X213010922Y-130180427D03*
D11*
X210983490Y-133374488D03*
%TD*%
D23*
%TO.C,*%
X197620057Y-122719605D03*
%TD*%
D11*
%TO.C,S17*%
X189500000Y-76000000D03*
D12*
X195000000Y-70050000D03*
D13*
X195000000Y-76000000D03*
D12*
X200000000Y-72250000D03*
D11*
X200500000Y-76000000D03*
%TD*%
M02*
