%TF.GenerationSoftware,KiCad,Pcbnew,9.0.3*%
%TF.CreationDate,2025-09-27T17:44:53-06:00*%
%TF.ProjectId,right_connected,72696768-745f-4636-9f6e-6e6563746564,v1.0.0*%
%TF.SameCoordinates,Original*%
%TF.FileFunction,Paste,Top*%
%TF.FilePolarity,Positive*%
%FSLAX46Y46*%
G04 Gerber Fmt 4.6, Leading zero omitted, Abs format (unit mm)*
G04 Created by KiCad (PCBNEW 9.0.3) date 2025-09-27 17:44:53*
%MOMM*%
%LPD*%
G01*
G04 APERTURE LIST*
G04 Aperture macros list*
%AMRotRect*
0 Rectangle, with rotation*
0 The origin of the aperture is its center*
0 $1 length*
0 $2 width*
0 $3 Rotation angle, in degrees counterclockwise*
0 Add horizontal line*
21,1,$1,$2,0,0,$3*%
G04 Aperture macros list end*
%ADD10R,0.900000X1.200000*%
%ADD11RotRect,0.900000X1.200000X20.000000*%
%ADD12RotRect,0.900000X1.200000X40.000000*%
G04 APERTURE END LIST*
D10*
%TO.C,D14*%
X292350000Y-81000000D03*
X295650000Y-81000000D03*
%TD*%
%TO.C,D1*%
X368350000Y-105000000D03*
X371650000Y-105000000D03*
%TD*%
%TO.C,D9*%
X330350000Y-62000000D03*
X333650000Y-62000000D03*
%TD*%
%TO.C,D3*%
X368350000Y-67000000D03*
X371650000Y-67000000D03*
%TD*%
%TO.C,D15*%
X292350000Y-62000000D03*
X295650000Y-62000000D03*
%TD*%
%TO.C,D6*%
X349350000Y-67000000D03*
X352650000Y-67000000D03*
%TD*%
%TO.C,D7*%
X330350000Y-100000000D03*
X333650000Y-100000000D03*
%TD*%
%TO.C,D17*%
X273350000Y-81000000D03*
X276650000Y-81000000D03*
%TD*%
%TO.C,D11*%
X311350000Y-76000000D03*
X314650000Y-76000000D03*
%TD*%
%TO.C,D18*%
X273350000Y-62000000D03*
X276650000Y-62000000D03*
%TD*%
%TO.C,D2*%
X368350000Y-86000000D03*
X371650000Y-86000000D03*
%TD*%
D11*
%TO.C,D20*%
X283026520Y-124165457D03*
X286127506Y-123036791D03*
%TD*%
D10*
%TO.C,D4*%
X349350000Y-105000000D03*
X352650000Y-105000000D03*
%TD*%
%TO.C,D5*%
X349350000Y-86000000D03*
X352650000Y-86000000D03*
%TD*%
%TO.C,D8*%
X330350000Y-81000000D03*
X333650000Y-81000000D03*
%TD*%
D12*
%TO.C,D21*%
X265179719Y-134729978D03*
X267707665Y-132608778D03*
%TD*%
D10*
%TO.C,D10*%
X311350000Y-95000000D03*
X314650000Y-95000000D03*
%TD*%
%TO.C,D16*%
X273350000Y-100000000D03*
X276650000Y-100000000D03*
%TD*%
%TO.C,D12*%
X311350000Y-57000000D03*
X314650000Y-57000000D03*
%TD*%
%TO.C,D19*%
X303350000Y-120000000D03*
X306650000Y-120000000D03*
%TD*%
%TO.C,D13*%
X292350000Y-100000000D03*
X295650000Y-100000000D03*
%TD*%
M02*
