%TF.GenerationSoftware,KiCad,Pcbnew,9.0.3*%
%TF.CreationDate,2025-09-27T17:44:53-06:00*%
%TF.ProjectId,right_connected,72696768-745f-4636-9f6e-6e6563746564,v1.0.0*%
%TF.SameCoordinates,Original*%
%TF.FileFunction,Paste,Bot*%
%TF.FilePolarity,Positive*%
%FSLAX46Y46*%
G04 Gerber Fmt 4.6, Leading zero omitted, Abs format (unit mm)*
G04 Created by KiCad (PCBNEW 9.0.3) date 2025-09-27 17:44:53*
%MOMM*%
%LPD*%
G01*
G04 APERTURE LIST*
G04 Aperture macros list*
%AMRotRect*
0 Rectangle, with rotation*
0 The origin of the aperture is its center*
0 $1 length*
0 $2 width*
0 $3 Rotation angle, in degrees counterclockwise*
0 Add horizontal line*
21,1,$1,$2,0,0,$3*%
G04 Aperture macros list end*
%ADD10R,0.900000X0.900000*%
%ADD11R,0.900000X1.250000*%
%ADD12R,2.600000X2.600000*%
%ADD13R,0.900000X1.200000*%
%ADD14RotRect,2.600000X2.600000X20.000000*%
%ADD15R,1.550000X1.000000*%
%ADD16RotRect,0.900000X1.200000X20.000000*%
%ADD17RotRect,0.900000X1.200000X40.000000*%
%ADD18RotRect,2.600000X2.600000X40.000000*%
G04 APERTURE END LIST*
D10*
%TO.C,T1*%
X314800000Y-41100000D03*
X314800000Y-43300000D03*
X322200000Y-41100000D03*
X322200000Y-43300000D03*
D11*
X316250000Y-44275000D03*
X319250000Y-44275000D03*
X320750000Y-44275000D03*
%TD*%
D12*
%TO.C,S19*%
X301725000Y-109050000D03*
X313275000Y-111250000D03*
%TD*%
%TO.C,S18*%
X271725000Y-51050000D03*
X283275000Y-53250000D03*
%TD*%
D13*
%TO.C,D14*%
X292350000Y-81000000D03*
X295650000Y-81000000D03*
%TD*%
D12*
%TO.C,S5*%
X347725000Y-75050000D03*
X359275000Y-77250000D03*
%TD*%
%TO.C,S4*%
X347725000Y-94050000D03*
X359275000Y-96250000D03*
%TD*%
%TO.C,S15*%
X290725000Y-51050000D03*
X302275000Y-53250000D03*
%TD*%
D13*
%TO.C,D1*%
X368350000Y-105000000D03*
X371650000Y-105000000D03*
%TD*%
%TO.C,D9*%
X330350000Y-62000000D03*
X333650000Y-62000000D03*
%TD*%
D14*
%TO.C,S20*%
X277754400Y-114431606D03*
X289360294Y-112548597D03*
%TD*%
D13*
%TO.C,D3*%
X368350000Y-67000000D03*
X371650000Y-67000000D03*
%TD*%
%TO.C,D15*%
X292350000Y-62000000D03*
X295650000Y-62000000D03*
%TD*%
%TO.C,D6*%
X349350000Y-67000000D03*
X352650000Y-67000000D03*
%TD*%
D12*
%TO.C,S13*%
X290725000Y-89050000D03*
X302275000Y-91250000D03*
%TD*%
D13*
%TO.C,D7*%
X330350000Y-100000000D03*
X333650000Y-100000000D03*
%TD*%
%TO.C,D17*%
X273350000Y-81000000D03*
X276650000Y-81000000D03*
%TD*%
D12*
%TO.C,S10*%
X309725000Y-84050000D03*
X321275000Y-86250000D03*
%TD*%
D15*
%TO.C,B1*%
X304875000Y-41150000D03*
X310125000Y-41150000D03*
X304875000Y-42850000D03*
X310125000Y-42850000D03*
%TD*%
D13*
%TO.C,D11*%
X311350000Y-76000000D03*
X314650000Y-76000000D03*
%TD*%
%TO.C,D18*%
X273350000Y-62000000D03*
X276650000Y-62000000D03*
%TD*%
%TO.C,D2*%
X368350000Y-86000000D03*
X371650000Y-86000000D03*
%TD*%
D12*
%TO.C,S3*%
X366725000Y-56050000D03*
X378275000Y-58250000D03*
%TD*%
D16*
%TO.C,D20*%
X283026520Y-124165457D03*
X286127506Y-123036791D03*
%TD*%
D13*
%TO.C,D4*%
X349350000Y-105000000D03*
X352650000Y-105000000D03*
%TD*%
D12*
%TO.C,S7*%
X328725000Y-89050000D03*
X340275000Y-91250000D03*
%TD*%
D13*
%TO.C,D5*%
X349350000Y-86000000D03*
X352650000Y-86000000D03*
%TD*%
D12*
%TO.C,S6*%
X347725000Y-56050000D03*
X359275000Y-58250000D03*
%TD*%
D13*
%TO.C,D8*%
X330350000Y-81000000D03*
X333650000Y-81000000D03*
%TD*%
D17*
%TO.C,D21*%
X265179719Y-134729978D03*
X267707665Y-132608778D03*
%TD*%
D13*
%TO.C,D10*%
X311350000Y-95000000D03*
X314650000Y-95000000D03*
%TD*%
D12*
%TO.C,S2*%
X366725000Y-75050000D03*
X378275000Y-77250000D03*
%TD*%
%TO.C,S14*%
X290725000Y-70050000D03*
X302275000Y-72250000D03*
%TD*%
%TO.C,S1*%
X366725000Y-94050000D03*
X378275000Y-96250000D03*
%TD*%
%TO.C,S12*%
X309725000Y-46050000D03*
X321275000Y-48250000D03*
%TD*%
%TO.C,S9*%
X328725000Y-51050000D03*
X340275000Y-53250000D03*
%TD*%
%TO.C,S17*%
X271725000Y-70050000D03*
X283275000Y-72250000D03*
%TD*%
D18*
%TO.C,S21*%
X256896372Y-127386321D03*
X267158318Y-121647422D03*
%TD*%
D13*
%TO.C,D16*%
X273350000Y-100000000D03*
X276650000Y-100000000D03*
%TD*%
%TO.C,D12*%
X311350000Y-57000000D03*
X314650000Y-57000000D03*
%TD*%
%TO.C,D19*%
X303350000Y-120000000D03*
X306650000Y-120000000D03*
%TD*%
D12*
%TO.C,S16*%
X271725000Y-89050000D03*
X283275000Y-91250000D03*
%TD*%
%TO.C,S8*%
X328725000Y-70050000D03*
X340275000Y-72250000D03*
%TD*%
D13*
%TO.C,D13*%
X292350000Y-100000000D03*
X295650000Y-100000000D03*
%TD*%
D12*
%TO.C,S11*%
X309725000Y-65050000D03*
X321275000Y-67250000D03*
%TD*%
M02*
