%TF.GenerationSoftware,KiCad,Pcbnew,9.0.3*%
%TF.CreationDate,2025-09-27T17:44:53-06:00*%
%TF.ProjectId,right_connected,72696768-745f-4636-9f6e-6e6563746564,v1.0.0*%
%TF.SameCoordinates,Original*%
%TF.FileFunction,Copper,L2,Bot*%
%TF.FilePolarity,Positive*%
%FSLAX46Y46*%
G04 Gerber Fmt 4.6, Leading zero omitted, Abs format (unit mm)*
G04 Created by KiCad (PCBNEW 9.0.3) date 2025-09-27 17:44:53*
%MOMM*%
%LPD*%
G01*
G04 APERTURE LIST*
G04 Aperture macros list*
%AMRotRect*
0 Rectangle, with rotation*
0 The origin of the aperture is its center*
0 $1 length*
0 $2 width*
0 $3 Rotation angle, in degrees counterclockwise*
0 Add horizontal line*
21,1,$1,$2,0,0,$3*%
G04 Aperture macros list end*
%TA.AperFunction,SMDPad,CuDef*%
%ADD10R,0.900000X0.900000*%
%TD*%
%TA.AperFunction,WasherPad*%
%ADD11C,1.000000*%
%TD*%
%TA.AperFunction,SMDPad,CuDef*%
%ADD12R,0.900000X1.250000*%
%TD*%
%TA.AperFunction,SMDPad,CuDef*%
%ADD13R,2.600000X2.600000*%
%TD*%
%TA.AperFunction,ComponentPad*%
%ADD14R,1.778000X1.778000*%
%TD*%
%TA.AperFunction,SMDPad,CuDef*%
%ADD15R,0.900000X1.200000*%
%TD*%
%TA.AperFunction,ComponentPad*%
%ADD16C,1.905000*%
%TD*%
%TA.AperFunction,SMDPad,CuDef*%
%ADD17RotRect,2.600000X2.600000X20.000000*%
%TD*%
%TA.AperFunction,SMDPad,CuDef*%
%ADD18R,1.550000X1.000000*%
%TD*%
%TA.AperFunction,ComponentPad*%
%ADD19R,1.200000X1.700000*%
%TD*%
%TA.AperFunction,ComponentPad*%
%ADD20O,1.200000X1.700000*%
%TD*%
%TA.AperFunction,ComponentPad*%
%ADD21RotRect,1.778000X1.778000X20.000000*%
%TD*%
%TA.AperFunction,SMDPad,CuDef*%
%ADD22RotRect,0.900000X1.200000X20.000000*%
%TD*%
%TA.AperFunction,ComponentPad*%
%ADD23RotRect,1.778000X1.778000X40.000000*%
%TD*%
%TA.AperFunction,SMDPad,CuDef*%
%ADD24RotRect,0.900000X1.200000X40.000000*%
%TD*%
%TA.AperFunction,ComponentPad*%
%ADD25R,1.752600X1.752600*%
%TD*%
%TA.AperFunction,ComponentPad*%
%ADD26C,1.752600*%
%TD*%
%TA.AperFunction,SMDPad,CuDef*%
%ADD27RotRect,2.600000X2.600000X40.000000*%
%TD*%
%TA.AperFunction,ViaPad*%
%ADD28C,0.800000*%
%TD*%
%TA.AperFunction,Conductor*%
%ADD29C,0.250000*%
%TD*%
G04 APERTURE END LIST*
D10*
%TO.P,T1,*%
%TO.N,*%
X314800000Y-41100000D03*
X314800000Y-43300000D03*
D11*
X317000000Y-42200000D03*
X320000000Y-42200000D03*
D10*
X322200000Y-41100000D03*
X322200000Y-43300000D03*
D12*
%TO.P,T1,1*%
%TO.N,pos*%
X316250000Y-44275000D03*
%TO.P,T1,2*%
%TO.N,RAW*%
X319250000Y-44275000D03*
%TO.P,T1,3*%
%TO.N,N/C*%
X320750000Y-44275000D03*
%TD*%
D13*
%TO.P,S19,1*%
%TO.N,P7*%
X301725000Y-109050000D03*
%TO.P,S19,2*%
%TO.N,mirror_near_thumb*%
X313275000Y-111250000D03*
%TD*%
%TO.P,S18,1*%
%TO.N,P9*%
X271725000Y-51050000D03*
%TO.P,S18,2*%
%TO.N,mirror_inner_top*%
X283275000Y-53250000D03*
%TD*%
D14*
%TO.P,D14,1*%
%TO.N,P10*%
X290190000Y-81000000D03*
D15*
X292350000Y-81000000D03*
%TO.P,D14,2*%
%TO.N,mirror_index_home*%
X295650000Y-81000000D03*
D16*
X297810000Y-81000000D03*
%TD*%
D13*
%TO.P,S5,1*%
%TO.N,P5*%
X347725000Y-75050000D03*
%TO.P,S5,2*%
%TO.N,mirror_pinky_home*%
X359275000Y-77250000D03*
%TD*%
%TO.P,S4,1*%
%TO.N,P5*%
X347725000Y-94050000D03*
%TO.P,S4,2*%
%TO.N,mirror_pinky_bottom*%
X359275000Y-96250000D03*
%TD*%
%TO.P,S15,1*%
%TO.N,P8*%
X290725000Y-51050000D03*
%TO.P,S15,2*%
%TO.N,mirror_index_top*%
X302275000Y-53250000D03*
%TD*%
D14*
%TO.P,D1,1*%
%TO.N,P16*%
X366190000Y-105000000D03*
D15*
X368350000Y-105000000D03*
%TO.P,D1,2*%
%TO.N,mirror_outer_bottom*%
X371650000Y-105000000D03*
D16*
X373810000Y-105000000D03*
%TD*%
D14*
%TO.P,D9,1*%
%TO.N,P2*%
X328190000Y-62000000D03*
D15*
X330350000Y-62000000D03*
%TO.P,D9,2*%
%TO.N,mirror_ring_top*%
X333650000Y-62000000D03*
D16*
X335810000Y-62000000D03*
%TD*%
D17*
%TO.P,S20,1*%
%TO.N,P8*%
X277754400Y-114431606D03*
%TO.P,S20,2*%
%TO.N,mirror_home_thumb*%
X289360294Y-112548597D03*
%TD*%
D14*
%TO.P,D3,1*%
%TO.N,P2*%
X366190000Y-67000000D03*
D15*
X368350000Y-67000000D03*
%TO.P,D3,2*%
%TO.N,mirror_outer_top*%
X371650000Y-67000000D03*
D16*
X373810000Y-67000000D03*
%TD*%
D14*
%TO.P,D15,1*%
%TO.N,P2*%
X290190000Y-62000000D03*
D15*
X292350000Y-62000000D03*
%TO.P,D15,2*%
%TO.N,mirror_index_top*%
X295650000Y-62000000D03*
D16*
X297810000Y-62000000D03*
%TD*%
D14*
%TO.P,D6,1*%
%TO.N,P2*%
X347190000Y-67000000D03*
D15*
X349350000Y-67000000D03*
%TO.P,D6,2*%
%TO.N,mirror_pinky_top*%
X352650000Y-67000000D03*
D16*
X354810000Y-67000000D03*
%TD*%
D13*
%TO.P,S13,1*%
%TO.N,P8*%
X290725000Y-89050000D03*
%TO.P,S13,2*%
%TO.N,mirror_index_bottom*%
X302275000Y-91250000D03*
%TD*%
D14*
%TO.P,D7,1*%
%TO.N,P16*%
X328190000Y-100000000D03*
D15*
X330350000Y-100000000D03*
%TO.P,D7,2*%
%TO.N,mirror_ring_bottom*%
X333650000Y-100000000D03*
D16*
X335810000Y-100000000D03*
%TD*%
D14*
%TO.P,D17,1*%
%TO.N,P10*%
X271190000Y-81000000D03*
D15*
X273350000Y-81000000D03*
%TO.P,D17,2*%
%TO.N,mirror_inner_home*%
X276650000Y-81000000D03*
D16*
X278810000Y-81000000D03*
%TD*%
D13*
%TO.P,S10,1*%
%TO.N,P7*%
X309725000Y-84050000D03*
%TO.P,S10,2*%
%TO.N,mirror_middle_bottom*%
X321275000Y-86250000D03*
%TD*%
D18*
%TO.P,B1,1*%
%TO.N,GND*%
X304875000Y-41150000D03*
X310125000Y-41150000D03*
%TO.P,B1,2*%
%TO.N,RST*%
X304875000Y-42850000D03*
X310125000Y-42850000D03*
%TD*%
D14*
%TO.P,D11,1*%
%TO.N,P10*%
X309190000Y-76000000D03*
D15*
X311350000Y-76000000D03*
%TO.P,D11,2*%
%TO.N,mirror_middle_home*%
X314650000Y-76000000D03*
D16*
X316810000Y-76000000D03*
%TD*%
D14*
%TO.P,D18,1*%
%TO.N,P2*%
X271190000Y-62000000D03*
D15*
X273350000Y-62000000D03*
%TO.P,D18,2*%
%TO.N,mirror_inner_top*%
X276650000Y-62000000D03*
D16*
X278810000Y-62000000D03*
%TD*%
D19*
%TO.P,JST1,1*%
%TO.N,pos*%
X264000000Y-62000000D03*
D20*
%TO.P,JST1,2*%
%TO.N,GND*%
X266000000Y-62000000D03*
%TD*%
D14*
%TO.P,D2,1*%
%TO.N,P10*%
X366190000Y-86000000D03*
D15*
X368350000Y-86000000D03*
%TO.P,D2,2*%
%TO.N,mirror_outer_home*%
X371650000Y-86000000D03*
D16*
X373810000Y-86000000D03*
%TD*%
D13*
%TO.P,S3,1*%
%TO.N,P4*%
X366725000Y-56050000D03*
%TO.P,S3,2*%
%TO.N,mirror_outer_top*%
X378275000Y-58250000D03*
%TD*%
D21*
%TO.P,D20,1*%
%TO.N,P3*%
X280996784Y-124904221D03*
D22*
X283026520Y-124165457D03*
%TO.P,D20,2*%
%TO.N,mirror_home_thumb*%
X286127506Y-123036791D03*
D16*
X288157242Y-122298027D03*
%TD*%
D14*
%TO.P,D4,1*%
%TO.N,P16*%
X347190000Y-105000000D03*
D15*
X349350000Y-105000000D03*
%TO.P,D4,2*%
%TO.N,mirror_pinky_bottom*%
X352650000Y-105000000D03*
D16*
X354810000Y-105000000D03*
%TD*%
D13*
%TO.P,S7,1*%
%TO.N,P6*%
X328725000Y-89050000D03*
%TO.P,S7,2*%
%TO.N,mirror_ring_bottom*%
X340275000Y-91250000D03*
%TD*%
D14*
%TO.P,D5,1*%
%TO.N,P10*%
X347190000Y-86000000D03*
D15*
X349350000Y-86000000D03*
%TO.P,D5,2*%
%TO.N,mirror_pinky_home*%
X352650000Y-86000000D03*
D16*
X354810000Y-86000000D03*
%TD*%
D13*
%TO.P,S6,1*%
%TO.N,P5*%
X347725000Y-56050000D03*
%TO.P,S6,2*%
%TO.N,mirror_pinky_top*%
X359275000Y-58250000D03*
%TD*%
D14*
%TO.P,D8,1*%
%TO.N,P10*%
X328190000Y-81000000D03*
D15*
X330350000Y-81000000D03*
%TO.P,D8,2*%
%TO.N,mirror_ring_home*%
X333650000Y-81000000D03*
D16*
X335810000Y-81000000D03*
%TD*%
D23*
%TO.P,D21,1*%
%TO.N,P3*%
X263525063Y-136118399D03*
D24*
X265179719Y-134729978D03*
%TO.P,D21,2*%
%TO.N,mirror_far_thumb*%
X267707665Y-132608778D03*
D16*
X269362321Y-131220357D03*
%TD*%
D14*
%TO.P,D10,1*%
%TO.N,P16*%
X309190000Y-95000000D03*
D15*
X311350000Y-95000000D03*
%TO.P,D10,2*%
%TO.N,mirror_middle_bottom*%
X314650000Y-95000000D03*
D16*
X316810000Y-95000000D03*
%TD*%
D25*
%TO.P,MCU1,1*%
%TO.N,RAW*%
X242380000Y-51030000D03*
D26*
%TO.P,MCU1,2*%
%TO.N,GND*%
X242380000Y-53570000D03*
%TO.P,MCU1,3*%
%TO.N,RST*%
X242380000Y-56110000D03*
%TO.P,MCU1,4*%
%TO.N,VCC*%
X242380000Y-58650000D03*
%TO.P,MCU1,5*%
%TO.N,P21*%
X242380000Y-61190000D03*
%TO.P,MCU1,6*%
%TO.N,P20*%
X242380000Y-63730000D03*
%TO.P,MCU1,7*%
%TO.N,P19*%
X242380000Y-66270000D03*
%TO.P,MCU1,8*%
%TO.N,P18*%
X242380000Y-68810000D03*
%TO.P,MCU1,9*%
%TO.N,P15*%
X242380000Y-71350000D03*
%TO.P,MCU1,10*%
%TO.N,P14*%
X242380000Y-73890000D03*
%TO.P,MCU1,11*%
%TO.N,P16*%
X242380000Y-76430000D03*
%TO.P,MCU1,12*%
%TO.N,P10*%
X242380000Y-78970000D03*
%TO.P,MCU1,13*%
%TO.N,P1*%
X257620000Y-51030000D03*
%TO.P,MCU1,14*%
%TO.N,P0*%
X257620000Y-53570000D03*
%TO.P,MCU1,15*%
%TO.N,GND*%
X257620000Y-56110000D03*
%TO.P,MCU1,16*%
X257620000Y-58650000D03*
%TO.P,MCU1,17*%
%TO.N,P2*%
X257620000Y-61190000D03*
%TO.P,MCU1,18*%
%TO.N,P3*%
X257620000Y-63730000D03*
%TO.P,MCU1,19*%
%TO.N,P4*%
X257620000Y-66270000D03*
%TO.P,MCU1,20*%
%TO.N,P5*%
X257620000Y-68810000D03*
%TO.P,MCU1,21*%
%TO.N,P6*%
X257620000Y-71350000D03*
%TO.P,MCU1,22*%
%TO.N,P7*%
X257620000Y-73890000D03*
%TO.P,MCU1,23*%
%TO.N,P8*%
X257620000Y-76430000D03*
%TO.P,MCU1,24*%
%TO.N,P9*%
X257620000Y-78970000D03*
%TD*%
D13*
%TO.P,S2,1*%
%TO.N,P4*%
X366725000Y-75050000D03*
%TO.P,S2,2*%
%TO.N,mirror_outer_home*%
X378275000Y-77250000D03*
%TD*%
%TO.P,S14,1*%
%TO.N,P8*%
X290725000Y-70050000D03*
%TO.P,S14,2*%
%TO.N,mirror_index_home*%
X302275000Y-72250000D03*
%TD*%
%TO.P,S1,1*%
%TO.N,P4*%
X366725000Y-94050000D03*
%TO.P,S1,2*%
%TO.N,mirror_outer_bottom*%
X378275000Y-96250000D03*
%TD*%
%TO.P,S12,1*%
%TO.N,P7*%
X309725000Y-46050000D03*
%TO.P,S12,2*%
%TO.N,mirror_middle_top*%
X321275000Y-48250000D03*
%TD*%
%TO.P,S9,1*%
%TO.N,P6*%
X328725000Y-51050000D03*
%TO.P,S9,2*%
%TO.N,mirror_ring_top*%
X340275000Y-53250000D03*
%TD*%
%TO.P,S17,1*%
%TO.N,P9*%
X271725000Y-70050000D03*
%TO.P,S17,2*%
%TO.N,mirror_inner_home*%
X283275000Y-72250000D03*
%TD*%
D27*
%TO.P,S21,1*%
%TO.N,P9*%
X256896372Y-127386321D03*
%TO.P,S21,2*%
%TO.N,mirror_far_thumb*%
X267158318Y-121647422D03*
%TD*%
D14*
%TO.P,D16,1*%
%TO.N,P16*%
X271190000Y-100000000D03*
D15*
X273350000Y-100000000D03*
%TO.P,D16,2*%
%TO.N,mirror_inner_bottom*%
X276650000Y-100000000D03*
D16*
X278810000Y-100000000D03*
%TD*%
D14*
%TO.P,D12,1*%
%TO.N,P2*%
X309190000Y-57000000D03*
D15*
X311350000Y-57000000D03*
%TO.P,D12,2*%
%TO.N,mirror_middle_top*%
X314650000Y-57000000D03*
D16*
X316810000Y-57000000D03*
%TD*%
D14*
%TO.P,D19,1*%
%TO.N,P3*%
X301190000Y-120000000D03*
D15*
X303350000Y-120000000D03*
%TO.P,D19,2*%
%TO.N,mirror_near_thumb*%
X306650000Y-120000000D03*
D16*
X308810000Y-120000000D03*
%TD*%
D13*
%TO.P,S16,1*%
%TO.N,P9*%
X271725000Y-89050000D03*
%TO.P,S16,2*%
%TO.N,mirror_inner_bottom*%
X283275000Y-91250000D03*
%TD*%
%TO.P,S8,1*%
%TO.N,P6*%
X328725000Y-70050000D03*
%TO.P,S8,2*%
%TO.N,mirror_ring_home*%
X340275000Y-72250000D03*
%TD*%
D14*
%TO.P,D13,1*%
%TO.N,P16*%
X290190000Y-100000000D03*
D15*
X292350000Y-100000000D03*
%TO.P,D13,2*%
%TO.N,mirror_index_bottom*%
X295650000Y-100000000D03*
D16*
X297810000Y-100000000D03*
%TD*%
D13*
%TO.P,S11,1*%
%TO.N,P7*%
X309725000Y-65050000D03*
%TO.P,S11,2*%
%TO.N,mirror_middle_home*%
X321275000Y-67250000D03*
%TD*%
D28*
%TO.N,P4*%
X329500000Y-65000000D03*
%TO.N,P5*%
X328500000Y-66500000D03*
%TO.N,P6*%
X325000000Y-66500000D03*
%TO.N,P7*%
X265000000Y-104000000D03*
X257500000Y-96500000D03*
X262500000Y-101500000D03*
%TO.N,P8*%
X250000000Y-97000000D03*
X270500000Y-113000000D03*
X255000000Y-102000000D03*
%TO.N,P9*%
X241500000Y-91500000D03*
%TO.N,RAW*%
X311000000Y-49000000D03*
%TO.N,GND*%
X264500000Y-53500000D03*
%TO.N,RST*%
X292000000Y-44824000D03*
X301000000Y-44000000D03*
%TO.N,pos*%
X261000000Y-60500000D03*
%TD*%
D29*
%TO.N,P4*%
X364975000Y-73300000D02*
X366725000Y-75050000D01*
X364975000Y-82260099D02*
X364975000Y-92300000D01*
X366725000Y-75050000D02*
X366725000Y-80510099D01*
X366725000Y-56050000D02*
X366725000Y-61510099D01*
X364975000Y-63260099D02*
X364975000Y-73300000D01*
X366725000Y-56050000D02*
X362049000Y-51374000D01*
X362049000Y-51374000D02*
X348244073Y-51374000D01*
X366725000Y-61510099D02*
X364975000Y-63260099D01*
X348244073Y-51374000D02*
X334618073Y-65000000D01*
X366725000Y-80510099D02*
X364975000Y-82260099D01*
X334618073Y-65000000D02*
X329500000Y-65000000D01*
X364975000Y-92300000D02*
X366725000Y-94050000D01*
%TO.N,mirror_outer_bottom*%
X378275000Y-96250000D02*
X378275000Y-100535000D01*
X378275000Y-100535000D02*
X373810000Y-105000000D01*
X371650000Y-105000000D02*
X373810000Y-105000000D01*
%TO.N,mirror_outer_home*%
X373810000Y-86000000D02*
X371650000Y-86000000D01*
X378275000Y-77250000D02*
X378275000Y-81535000D01*
X378275000Y-81535000D02*
X373810000Y-86000000D01*
%TO.N,mirror_outer_top*%
X371650000Y-67000000D02*
X373810000Y-67000000D01*
X378275000Y-62535000D02*
X373810000Y-67000000D01*
X378275000Y-58250000D02*
X378275000Y-62535000D01*
%TO.N,P5*%
X339175000Y-66500000D02*
X328500000Y-66500000D01*
X347725000Y-75050000D02*
X347725000Y-83035000D01*
X347725000Y-83035000D02*
X345975000Y-84785000D01*
X347725000Y-75050000D02*
X339175000Y-66500000D01*
X345975000Y-92300000D02*
X347725000Y-94050000D01*
X347725000Y-64035000D02*
X345975000Y-65785000D01*
X345975000Y-84785000D02*
X345975000Y-92300000D01*
X345975000Y-73300000D02*
X347725000Y-75050000D01*
X347725000Y-56050000D02*
X347725000Y-64035000D01*
X345975000Y-65785000D02*
X345975000Y-73300000D01*
%TO.N,mirror_pinky_bottom*%
X359275000Y-96250000D02*
X359275000Y-100535000D01*
X359275000Y-100535000D02*
X354810000Y-105000000D01*
X354810000Y-105000000D02*
X352650000Y-105000000D01*
%TO.N,mirror_pinky_home*%
X359275000Y-81535000D02*
X354810000Y-86000000D01*
X354810000Y-86000000D02*
X352650000Y-86000000D01*
X359275000Y-77250000D02*
X359275000Y-81535000D01*
%TO.N,mirror_pinky_top*%
X359275000Y-58250000D02*
X359275000Y-62535000D01*
X352650000Y-67000000D02*
X354810000Y-67000000D01*
X359275000Y-62535000D02*
X354810000Y-67000000D01*
%TO.N,P6*%
X328725000Y-70050000D02*
X325175000Y-66500000D01*
X328725000Y-59035000D02*
X326975000Y-60785000D01*
X328725000Y-77673000D02*
X326975000Y-79423000D01*
X326975000Y-87300000D02*
X328725000Y-89050000D01*
X325175000Y-66500000D02*
X325000000Y-66500000D01*
X326975000Y-79423000D02*
X326975000Y-87300000D01*
X328725000Y-51050000D02*
X328725000Y-59035000D01*
X328725000Y-70050000D02*
X328725000Y-77673000D01*
X326975000Y-68300000D02*
X328725000Y-70050000D01*
X326975000Y-60785000D02*
X326975000Y-68300000D01*
%TO.N,mirror_ring_bottom*%
X333650000Y-100000000D02*
X335810000Y-100000000D01*
X340275000Y-91250000D02*
X340275000Y-95535000D01*
X340275000Y-95535000D02*
X335810000Y-100000000D01*
%TO.N,mirror_ring_home*%
X340275000Y-76535000D02*
X335810000Y-81000000D01*
X335810000Y-81000000D02*
X333650000Y-81000000D01*
X340275000Y-72250000D02*
X340275000Y-76535000D01*
%TO.N,mirror_ring_top*%
X340275000Y-53250000D02*
X340275000Y-57535000D01*
X340275000Y-57535000D02*
X335810000Y-62000000D01*
X333650000Y-62000000D02*
X335810000Y-62000000D01*
%TO.N,P7*%
X309725000Y-65050000D02*
X309725000Y-72673000D01*
X262500000Y-101500000D02*
X257500000Y-96500000D01*
X287746448Y-109050000D02*
X280372615Y-116423833D01*
X301725000Y-109050000D02*
X287746448Y-109050000D01*
X272897113Y-116423833D02*
X265000000Y-108526720D01*
X309725000Y-46050000D02*
X309725000Y-54035000D01*
X301725000Y-97510099D02*
X309725000Y-89510099D01*
X301725000Y-109050000D02*
X301725000Y-97510099D01*
X309725000Y-72673000D02*
X307975000Y-74423000D01*
X309725000Y-54035000D02*
X307975000Y-55785000D01*
X265000000Y-108526720D02*
X265000000Y-104000000D01*
X307975000Y-63300000D02*
X309725000Y-65050000D01*
X280372615Y-116423833D02*
X272897113Y-116423833D01*
X307975000Y-55785000D02*
X307975000Y-63300000D01*
X309725000Y-89510099D02*
X309725000Y-84050000D01*
X307975000Y-82300000D02*
X309725000Y-84050000D01*
X307975000Y-74423000D02*
X307975000Y-82300000D01*
%TO.N,mirror_middle_bottom*%
X321275000Y-90535000D02*
X316810000Y-95000000D01*
X316810000Y-95000000D02*
X314650000Y-95000000D01*
X321275000Y-86250000D02*
X321275000Y-90535000D01*
%TO.N,mirror_middle_home*%
X321275000Y-71535000D02*
X316810000Y-76000000D01*
X321275000Y-67250000D02*
X321275000Y-71535000D01*
X316810000Y-76000000D02*
X314650000Y-76000000D01*
%TO.N,mirror_middle_top*%
X321275000Y-52535000D02*
X316810000Y-57000000D01*
X321275000Y-48250000D02*
X321275000Y-52535000D01*
X314650000Y-57000000D02*
X316810000Y-57000000D01*
%TO.N,P8*%
X290725000Y-78035000D02*
X288975000Y-79785000D01*
X277754400Y-114431606D02*
X276322794Y-113000000D01*
X288975000Y-96260099D02*
X290725000Y-94510099D01*
X288975000Y-79785000D02*
X288975000Y-87300000D01*
X290725000Y-94510099D02*
X290725000Y-89050000D01*
X288975000Y-87300000D02*
X290725000Y-89050000D01*
X288975000Y-60785000D02*
X288975000Y-68300000D01*
X288975000Y-68300000D02*
X290725000Y-70050000D01*
X288975000Y-99095882D02*
X288975000Y-96260099D01*
X277754400Y-114431606D02*
X277754400Y-110316482D01*
X290725000Y-51050000D02*
X290725000Y-59035000D01*
X277754400Y-110316482D02*
X288975000Y-99095882D01*
X276322794Y-113000000D02*
X270500000Y-113000000D01*
X290725000Y-70050000D02*
X290725000Y-78035000D01*
X255000000Y-102000000D02*
X250000000Y-97000000D01*
X290725000Y-59035000D02*
X288975000Y-60785000D01*
%TO.N,mirror_index_bottom*%
X302275000Y-91250000D02*
X302275000Y-95535000D01*
X302275000Y-95535000D02*
X297810000Y-100000000D01*
X295650000Y-100000000D02*
X297810000Y-100000000D01*
%TO.N,mirror_index_home*%
X302275000Y-76535000D02*
X297810000Y-81000000D01*
X297810000Y-81000000D02*
X295650000Y-81000000D01*
X302275000Y-72250000D02*
X302275000Y-76535000D01*
%TO.N,mirror_index_top*%
X295650000Y-62000000D02*
X297810000Y-62000000D01*
X302275000Y-53250000D02*
X302275000Y-57535000D01*
X302275000Y-57535000D02*
X297810000Y-62000000D01*
%TO.N,P9*%
X271725000Y-51050000D02*
X271725000Y-59035000D01*
X256896372Y-127386321D02*
X256896372Y-106896372D01*
X271725000Y-70050000D02*
X271725000Y-78035000D01*
X269975000Y-79785000D02*
X269975000Y-87300000D01*
X271725000Y-94510099D02*
X271725000Y-89050000D01*
X269975000Y-60785000D02*
X269975000Y-68300000D01*
X271725000Y-78035000D02*
X269975000Y-79785000D01*
X269975000Y-68300000D02*
X271725000Y-70050000D01*
X269975000Y-87300000D02*
X271725000Y-89050000D01*
X256896372Y-127386321D02*
X256896372Y-109338727D01*
X271725000Y-59035000D02*
X269975000Y-60785000D01*
X256896372Y-109338727D02*
X271725000Y-94510099D01*
X256896372Y-106896372D02*
X241500000Y-91500000D01*
%TO.N,mirror_inner_bottom*%
X283275000Y-91250000D02*
X283275000Y-95535000D01*
X276650000Y-100000000D02*
X278810000Y-100000000D01*
X283275000Y-95535000D02*
X278810000Y-100000000D01*
%TO.N,mirror_inner_home*%
X283275000Y-76535000D02*
X278810000Y-81000000D01*
X276650000Y-81000000D02*
X278810000Y-81000000D01*
X283275000Y-72250000D02*
X283275000Y-76535000D01*
%TO.N,mirror_inner_top*%
X283275000Y-53250000D02*
X283275000Y-57535000D01*
X278810000Y-62000000D02*
X276650000Y-62000000D01*
X283275000Y-57535000D02*
X278810000Y-62000000D01*
%TO.N,mirror_near_thumb*%
X313275000Y-111250000D02*
X313275000Y-115535000D01*
X313275000Y-115535000D02*
X308810000Y-120000000D01*
X308810000Y-120000000D02*
X306650000Y-120000000D01*
%TO.N,mirror_home_thumb*%
X286866270Y-122298027D02*
X286127506Y-123036791D01*
X289360294Y-112548597D02*
X289360294Y-121094975D01*
X289360294Y-121094975D02*
X288157242Y-122298027D01*
X288157242Y-122298027D02*
X286866270Y-122298027D01*
%TO.N,mirror_far_thumb*%
X269362321Y-123851425D02*
X269362321Y-131220357D01*
X269096086Y-131220357D02*
X267707665Y-132608778D01*
X267158318Y-121647422D02*
X269362321Y-123851425D01*
X269362321Y-131220357D02*
X269096086Y-131220357D01*
%TO.N,P16*%
X366190000Y-105000000D02*
X368350000Y-105000000D01*
X330350000Y-100000000D02*
X328190000Y-100000000D01*
X290190000Y-100000000D02*
X292350000Y-100000000D01*
X349350000Y-105000000D02*
X347190000Y-105000000D01*
X273350000Y-100000000D02*
X271190000Y-100000000D01*
X311350000Y-95000000D02*
X309190000Y-95000000D01*
%TO.N,P10*%
X368350000Y-86000000D02*
X366190000Y-86000000D01*
X330350000Y-81000000D02*
X328190000Y-81000000D01*
X271190000Y-81000000D02*
X273350000Y-81000000D01*
X349350000Y-86000000D02*
X347190000Y-86000000D01*
X292350000Y-81000000D02*
X290190000Y-81000000D01*
X311350000Y-76000000D02*
X309190000Y-76000000D01*
%TO.N,P2*%
X290190000Y-62000000D02*
X292350000Y-62000000D01*
X328190000Y-62000000D02*
X330350000Y-62000000D01*
X347190000Y-67000000D02*
X349350000Y-67000000D01*
X309190000Y-57000000D02*
X311350000Y-57000000D01*
X273350000Y-62000000D02*
X271190000Y-62000000D01*
X366190000Y-67000000D02*
X368350000Y-67000000D01*
%TO.N,P3*%
X264913484Y-134729978D02*
X263525063Y-136118399D01*
X303350000Y-120000000D02*
X301190000Y-120000000D01*
X265179719Y-134729978D02*
X264913484Y-134729978D01*
X281735548Y-124165457D02*
X280996784Y-124904221D01*
X283026520Y-124165457D02*
X281735548Y-124165457D01*
%TO.N,RAW*%
X319250000Y-44275000D02*
X314525000Y-49000000D01*
X314525000Y-49000000D02*
X311000000Y-49000000D01*
%TO.N,GND*%
X304875000Y-41150000D02*
X296948360Y-41150000D01*
X305101000Y-41376000D02*
X304875000Y-41150000D01*
X296948360Y-41150000D02*
X292549360Y-45549000D01*
X272451000Y-45549000D02*
X264500000Y-53500000D01*
X310125000Y-41150000D02*
X309899000Y-41376000D01*
X309899000Y-41376000D02*
X305101000Y-41376000D01*
X292549360Y-45549000D02*
X272451000Y-45549000D01*
%TO.N,RST*%
X302150000Y-42850000D02*
X304875000Y-42850000D01*
X301000000Y-44000000D02*
X302150000Y-42850000D01*
X309899000Y-42624000D02*
X305101000Y-42624000D01*
X272538190Y-44824000D02*
X292000000Y-44824000D01*
X242380000Y-56110000D02*
X246257700Y-52232300D01*
X246257700Y-52232300D02*
X265129890Y-52232300D01*
X265129890Y-52232300D02*
X272538190Y-44824000D01*
X305101000Y-42624000D02*
X304875000Y-42850000D01*
X310125000Y-42850000D02*
X309899000Y-42624000D01*
%TO.N,pos*%
X273523000Y-46000000D02*
X308099000Y-46000000D01*
X314876000Y-44275000D02*
X316250000Y-44275000D01*
X261000000Y-60500000D02*
X261000000Y-58523000D01*
X311351000Y-44174000D02*
X314775000Y-44174000D01*
X261000000Y-58523000D02*
X273523000Y-46000000D01*
X311351000Y-44424000D02*
X311351000Y-44174000D01*
X308099000Y-44424000D02*
X311351000Y-44424000D01*
X308099000Y-46000000D02*
X308099000Y-44424000D01*
X314775000Y-44174000D02*
X314876000Y-44275000D01*
%TD*%
M02*
