M48
; DRILL file {KiCad 9.0.3} date 2025-09-27T17:44:56-0600
; FORMAT={-:-/ absolute / metric / decimal}
; #@! TF.CreationDate,2025-09-27T17:44:56-06:00
; #@! TF.GenerationSoftware,Kicad,Pcbnew,9.0.3
; #@! TF.FileFunction,NonPlated,1,2,NPTH
FMAT,2
METRIC
; #@! TA.AperFunction,NonPlated,NPTH,ComponentDrill
T1C0.750
; #@! TA.AperFunction,NonPlated,NPTH,ComponentDrill
T2C0.900
; #@! TA.AperFunction,NonPlated,NPTH,ComponentDrill
T3C1.702
; #@! TA.AperFunction,NonPlated,NPTH,ComponentDrill
T4C3.000
; #@! TA.AperFunction,NonPlated,NPTH,ComponentDrill
T5C3.429
; #@! TA.AperFunction,NonPlated,NPTH,ComponentDrill
T6C4.000
%
G90
G05
T1
X307.5Y-40.625
X307.5Y-43.375
T2
X317.0Y-42.2
X320.0Y-42.2
T3
X259.017Y-133.374
X267.443Y-126.304
X269.5Y-57.0
X269.5Y-76.0
X269.5Y-95.0
X277.699Y-120.784
X280.5Y-57.0
X280.5Y-76.0
X280.5Y-95.0
X288.035Y-117.022
X288.5Y-57.0
X288.5Y-76.0
X288.5Y-95.0
X299.5Y-57.0
X299.5Y-76.0
X299.5Y-95.0
X299.5Y-115.0
X307.5Y-52.0
X307.5Y-71.0
X307.5Y-90.0
X310.5Y-115.0
X318.5Y-52.0
X318.5Y-71.0
X318.5Y-90.0
X326.5Y-57.0
X326.5Y-76.0
X326.5Y-95.0
X337.5Y-57.0
X337.5Y-76.0
X337.5Y-95.0
X345.5Y-62.0
X345.5Y-81.0
X345.5Y-100.0
X356.5Y-62.0
X356.5Y-81.0
X356.5Y-100.0
X364.5Y-62.0
X364.5Y-81.0
X364.5Y-100.0
X375.5Y-62.0
X375.5Y-81.0
X375.5Y-100.0
T4
X259.405Y-125.281
X264.65Y-123.753
X275.0Y-51.05
X275.0Y-70.05
X275.0Y-89.05
X280.0Y-53.25
X280.0Y-72.25
X280.0Y-91.25
X280.832Y-113.311
X286.283Y-113.669
X294.0Y-51.05
X294.0Y-70.05
X294.0Y-89.05
X299.0Y-53.25
X299.0Y-72.25
X299.0Y-91.25
X305.0Y-109.05
X310.0Y-111.25
X313.0Y-46.05
X313.0Y-65.05
X313.0Y-84.05
X318.0Y-48.25
X318.0Y-67.25
X318.0Y-86.25
X332.0Y-51.05
X332.0Y-70.05
X332.0Y-89.05
X337.0Y-53.25
X337.0Y-72.25
X337.0Y-91.25
X351.0Y-56.05
X351.0Y-75.05
X351.0Y-94.05
X356.0Y-58.25
X356.0Y-77.25
X356.0Y-96.25
X370.0Y-56.05
X370.0Y-75.05
X370.0Y-94.05
X375.0Y-58.25
X375.0Y-77.25
X375.0Y-96.25
T5
X263.23Y-129.839
X275.0Y-57.0
X275.0Y-76.0
X275.0Y-95.0
X282.867Y-118.903
X294.0Y-57.0
X294.0Y-76.0
X294.0Y-95.0
X305.0Y-115.0
X313.0Y-52.0
X313.0Y-71.0
X313.0Y-90.0
X332.0Y-57.0
X332.0Y-76.0
X332.0Y-95.0
X351.0Y-62.0
X351.0Y-81.0
X351.0Y-100.0
X370.0Y-62.0
X370.0Y-81.0
X370.0Y-100.0
T6
X272.38Y-122.72
X284.54Y-62.1
X284.54Y-100.1
X360.46Y-67.1
X360.46Y-105.1
M30
