%TF.GenerationSoftware,KiCad,Pcbnew,9.0.3*%
%TF.CreationDate,2025-09-27T17:44:53-06:00*%
%TF.ProjectId,right_connected,72696768-745f-4636-9f6e-6e6563746564,v1.0.0*%
%TF.SameCoordinates,Original*%
%TF.FileFunction,Soldermask,Top*%
%TF.FilePolarity,Negative*%
%FSLAX46Y46*%
G04 Gerber Fmt 4.6, Leading zero omitted, Abs format (unit mm)*
G04 Created by KiCad (PCBNEW 9.0.3) date 2025-09-27 17:44:53*
%MOMM*%
%LPD*%
G01*
G04 APERTURE LIST*
G04 Aperture macros list*
%AMRoundRect*
0 Rectangle with rounded corners*
0 $1 Rounding radius*
0 $2 $3 $4 $5 $6 $7 $8 $9 X,Y pos of 4 corners*
0 Add a 4 corners polygon primitive as box body*
4,1,4,$2,$3,$4,$5,$6,$7,$8,$9,$2,$3,0*
0 Add four circle primitives for the rounded corners*
1,1,$1+$1,$2,$3*
1,1,$1+$1,$4,$5*
1,1,$1+$1,$6,$7*
1,1,$1+$1,$8,$9*
0 Add four rect primitives between the rounded corners*
20,1,$1+$1,$2,$3,$4,$5,0*
20,1,$1+$1,$4,$5,$6,$7,0*
20,1,$1+$1,$6,$7,$8,$9,0*
20,1,$1+$1,$8,$9,$2,$3,0*%
G04 Aperture macros list end*
%ADD10C,1.100000*%
%ADD11C,1.801800*%
%ADD12C,3.100000*%
%ADD13C,3.529000*%
%ADD14RoundRect,0.050000X-0.889000X-0.889000X0.889000X-0.889000X0.889000X0.889000X-0.889000X0.889000X0*%
%ADD15RoundRect,0.050000X-0.450000X-0.600000X0.450000X-0.600000X0.450000X0.600000X-0.450000X0.600000X0*%
%ADD16C,2.005000*%
%ADD17C,4.100000*%
%ADD18C,0.850000*%
%ADD19RoundRect,0.050000X-0.600000X-0.850000X0.600000X-0.850000X0.600000X0.850000X-0.600000X0.850000X0*%
%ADD20O,1.300000X1.800000*%
%ADD21RoundRect,0.050000X-0.531331X-1.139443X1.139443X-0.531331X0.531331X1.139443X-1.139443X0.531331X0*%
%ADD22RoundRect,0.050000X-0.217650X-0.717725X0.628074X-0.409907X0.217650X0.717725X-0.628074X0.409907X0*%
%ADD23RoundRect,0.050000X-0.109575X-1.252452X1.252452X-0.109575X0.109575X1.252452X-1.252452X0.109575X0*%
%ADD24RoundRect,0.050000X0.040953X-0.748881X0.730393X-0.170372X-0.040953X0.748881X-0.730393X0.170372X0*%
%ADD25RoundRect,0.050000X-0.876300X0.876300X-0.876300X-0.876300X0.876300X-0.876300X0.876300X0.876300X0*%
%ADD26C,1.852600*%
G04 APERTURE END LIST*
D10*
%TO.C,T1*%
X317000000Y-42200000D03*
X320000000Y-42200000D03*
%TD*%
D11*
%TO.C,S19*%
X299500000Y-115000000D03*
D12*
X305000000Y-109050000D03*
D13*
X305000000Y-115000000D03*
D12*
X310000000Y-111250000D03*
D11*
X310500000Y-115000000D03*
%TD*%
%TO.C,S18*%
X269500000Y-57000000D03*
D12*
X275000000Y-51050000D03*
D13*
X275000000Y-57000000D03*
D12*
X280000000Y-53250000D03*
D11*
X280500000Y-57000000D03*
%TD*%
D14*
%TO.C,D14*%
X290190000Y-81000000D03*
D15*
X292350000Y-81000000D03*
X295650000Y-81000000D03*
D16*
X297810000Y-81000000D03*
%TD*%
D11*
%TO.C,S5*%
X345500000Y-81000000D03*
D12*
X351000000Y-75050000D03*
D13*
X351000000Y-81000000D03*
D12*
X356000000Y-77250000D03*
D11*
X356500000Y-81000000D03*
%TD*%
D17*
%TO.C,*%
X360460000Y-67100000D03*
%TD*%
D11*
%TO.C,S4*%
X345500000Y-100000000D03*
D12*
X351000000Y-94050000D03*
D13*
X351000000Y-100000000D03*
D12*
X356000000Y-96250000D03*
D11*
X356500000Y-100000000D03*
%TD*%
%TO.C,S15*%
X288500000Y-57000000D03*
D12*
X294000000Y-51050000D03*
D13*
X294000000Y-57000000D03*
D12*
X299000000Y-53250000D03*
D11*
X299500000Y-57000000D03*
%TD*%
D14*
%TO.C,D1*%
X366190000Y-105000000D03*
D15*
X368350000Y-105000000D03*
X371650000Y-105000000D03*
D16*
X373810000Y-105000000D03*
%TD*%
D14*
%TO.C,D9*%
X328190000Y-62000000D03*
D15*
X330350000Y-62000000D03*
X333650000Y-62000000D03*
D16*
X335810000Y-62000000D03*
%TD*%
D11*
%TO.C,S20*%
X277698604Y-120783772D03*
D12*
X280831893Y-113311490D03*
D13*
X282866913Y-118902661D03*
D12*
X286282801Y-113668713D03*
D11*
X288035222Y-117021550D03*
%TD*%
D14*
%TO.C,D3*%
X366190000Y-67000000D03*
D15*
X368350000Y-67000000D03*
X371650000Y-67000000D03*
D16*
X373810000Y-67000000D03*
%TD*%
D14*
%TO.C,D15*%
X290190000Y-62000000D03*
D15*
X292350000Y-62000000D03*
X295650000Y-62000000D03*
D16*
X297810000Y-62000000D03*
%TD*%
D14*
%TO.C,D6*%
X347190000Y-67000000D03*
D15*
X349350000Y-67000000D03*
X352650000Y-67000000D03*
D16*
X354810000Y-67000000D03*
%TD*%
D11*
%TO.C,S13*%
X288500000Y-95000000D03*
D12*
X294000000Y-89050000D03*
D13*
X294000000Y-95000000D03*
D12*
X299000000Y-91250000D03*
D11*
X299500000Y-95000000D03*
%TD*%
D17*
%TO.C,*%
X284540000Y-62100000D03*
%TD*%
D14*
%TO.C,D7*%
X328190000Y-100000000D03*
D15*
X330350000Y-100000000D03*
X333650000Y-100000000D03*
D16*
X335810000Y-100000000D03*
%TD*%
D14*
%TO.C,D17*%
X271190000Y-81000000D03*
D15*
X273350000Y-81000000D03*
X276650000Y-81000000D03*
D16*
X278810000Y-81000000D03*
%TD*%
D11*
%TO.C,S10*%
X307500000Y-90000000D03*
D12*
X313000000Y-84050000D03*
D13*
X313000000Y-90000000D03*
D12*
X318000000Y-86250000D03*
D11*
X318500000Y-90000000D03*
%TD*%
D18*
%TO.C,B1*%
X307500000Y-40625000D03*
X307500000Y-43375000D03*
%TD*%
D14*
%TO.C,D11*%
X309190000Y-76000000D03*
D15*
X311350000Y-76000000D03*
X314650000Y-76000000D03*
D16*
X316810000Y-76000000D03*
%TD*%
D14*
%TO.C,D18*%
X271190000Y-62000000D03*
D15*
X273350000Y-62000000D03*
X276650000Y-62000000D03*
D16*
X278810000Y-62000000D03*
%TD*%
D19*
%TO.C,JST1*%
X264000000Y-62000000D03*
D20*
X266000000Y-62000000D03*
%TD*%
D14*
%TO.C,D2*%
X366190000Y-86000000D03*
D15*
X368350000Y-86000000D03*
X371650000Y-86000000D03*
D16*
X373810000Y-86000000D03*
%TD*%
D11*
%TO.C,S3*%
X364500000Y-62000000D03*
D12*
X370000000Y-56050000D03*
D13*
X370000000Y-62000000D03*
D12*
X375000000Y-58250000D03*
D11*
X375500000Y-62000000D03*
%TD*%
D21*
%TO.C,D20*%
X280996784Y-124904221D03*
D22*
X283026520Y-124165457D03*
X286127506Y-123036791D03*
D16*
X288157242Y-122298027D03*
%TD*%
D14*
%TO.C,D4*%
X347190000Y-105000000D03*
D15*
X349350000Y-105000000D03*
X352650000Y-105000000D03*
D16*
X354810000Y-105000000D03*
%TD*%
D11*
%TO.C,S7*%
X326500000Y-95000000D03*
D12*
X332000000Y-89050000D03*
D13*
X332000000Y-95000000D03*
D12*
X337000000Y-91250000D03*
D11*
X337500000Y-95000000D03*
%TD*%
D14*
%TO.C,D5*%
X347190000Y-86000000D03*
D15*
X349350000Y-86000000D03*
X352650000Y-86000000D03*
D16*
X354810000Y-86000000D03*
%TD*%
D11*
%TO.C,S6*%
X345500000Y-62000000D03*
D12*
X351000000Y-56050000D03*
D13*
X351000000Y-62000000D03*
D12*
X356000000Y-58250000D03*
D11*
X356500000Y-62000000D03*
%TD*%
D17*
%TO.C,*%
X360460000Y-105100000D03*
%TD*%
D14*
%TO.C,D8*%
X328190000Y-81000000D03*
D15*
X330350000Y-81000000D03*
X333650000Y-81000000D03*
D16*
X335810000Y-81000000D03*
%TD*%
D23*
%TO.C,D21*%
X263525063Y-136118399D03*
D24*
X265179719Y-134729978D03*
X267707665Y-132608778D03*
D16*
X269362321Y-131220357D03*
%TD*%
D17*
%TO.C,*%
X272379943Y-122719605D03*
%TD*%
D14*
%TO.C,D10*%
X309190000Y-95000000D03*
D15*
X311350000Y-95000000D03*
X314650000Y-95000000D03*
D16*
X316810000Y-95000000D03*
%TD*%
D25*
%TO.C,MCU1*%
X242380000Y-51030000D03*
D26*
X242380000Y-53570000D03*
X242380000Y-56110000D03*
X242380000Y-58650000D03*
X242380000Y-61190000D03*
X242380000Y-63730000D03*
X242380000Y-66270000D03*
X242380000Y-68810000D03*
X242380000Y-71350000D03*
X242380000Y-73890000D03*
X242380000Y-76430000D03*
X242380000Y-78970000D03*
X257620000Y-51030000D03*
X257620000Y-53570000D03*
X257620000Y-56110000D03*
X257620000Y-58650000D03*
X257620000Y-61190000D03*
X257620000Y-63730000D03*
X257620000Y-66270000D03*
X257620000Y-68810000D03*
X257620000Y-71350000D03*
X257620000Y-73890000D03*
X257620000Y-76430000D03*
X257620000Y-78970000D03*
%TD*%
D11*
%TO.C,S2*%
X364500000Y-81000000D03*
D12*
X370000000Y-75050000D03*
D13*
X370000000Y-81000000D03*
D12*
X375000000Y-77250000D03*
D11*
X375500000Y-81000000D03*
%TD*%
D17*
%TO.C,*%
X284540000Y-100100000D03*
%TD*%
D11*
%TO.C,S14*%
X288500000Y-76000000D03*
D12*
X294000000Y-70050000D03*
D13*
X294000000Y-76000000D03*
D12*
X299000000Y-72250000D03*
D11*
X299500000Y-76000000D03*
%TD*%
%TO.C,S1*%
X364500000Y-100000000D03*
D12*
X370000000Y-94050000D03*
D13*
X370000000Y-100000000D03*
D12*
X375000000Y-96250000D03*
D11*
X375500000Y-100000000D03*
%TD*%
%TO.C,S12*%
X307500000Y-52000000D03*
D12*
X313000000Y-46050000D03*
D13*
X313000000Y-52000000D03*
D12*
X318000000Y-48250000D03*
D11*
X318500000Y-52000000D03*
%TD*%
%TO.C,S9*%
X326500000Y-57000000D03*
D12*
X332000000Y-51050000D03*
D13*
X332000000Y-57000000D03*
D12*
X337000000Y-53250000D03*
D11*
X337500000Y-57000000D03*
%TD*%
%TO.C,S17*%
X269500000Y-76000000D03*
D12*
X275000000Y-70050000D03*
D13*
X275000000Y-76000000D03*
D12*
X280000000Y-72250000D03*
D11*
X280500000Y-76000000D03*
%TD*%
%TO.C,S21*%
X259016510Y-133374488D03*
D12*
X259405168Y-125281192D03*
D13*
X263229754Y-129839156D03*
D12*
X264649523Y-123752551D03*
D11*
X267442998Y-126303824D03*
%TD*%
D14*
%TO.C,D16*%
X271190000Y-100000000D03*
D15*
X273350000Y-100000000D03*
X276650000Y-100000000D03*
D16*
X278810000Y-100000000D03*
%TD*%
D14*
%TO.C,D12*%
X309190000Y-57000000D03*
D15*
X311350000Y-57000000D03*
X314650000Y-57000000D03*
D16*
X316810000Y-57000000D03*
%TD*%
D14*
%TO.C,D19*%
X301190000Y-120000000D03*
D15*
X303350000Y-120000000D03*
X306650000Y-120000000D03*
D16*
X308810000Y-120000000D03*
%TD*%
D11*
%TO.C,S16*%
X269500000Y-95000000D03*
D12*
X275000000Y-89050000D03*
D13*
X275000000Y-95000000D03*
D12*
X280000000Y-91250000D03*
D11*
X280500000Y-95000000D03*
%TD*%
%TO.C,S8*%
X326500000Y-76000000D03*
D12*
X332000000Y-70050000D03*
D13*
X332000000Y-76000000D03*
D12*
X337000000Y-72250000D03*
D11*
X337500000Y-76000000D03*
%TD*%
D14*
%TO.C,D13*%
X290190000Y-100000000D03*
D15*
X292350000Y-100000000D03*
X295650000Y-100000000D03*
D16*
X297810000Y-100000000D03*
%TD*%
D11*
%TO.C,S11*%
X307500000Y-71000000D03*
D12*
X313000000Y-65050000D03*
D13*
X313000000Y-71000000D03*
D12*
X318000000Y-67250000D03*
D11*
X318500000Y-71000000D03*
%TD*%
M02*
