M48
; DRILL file {KiCad 9.0.3} date 2025-09-27T17:44:56-0600
; FORMAT={-:-/ absolute / metric / decimal}
; #@! TF.CreationDate,2025-09-27T17:44:56-06:00
; #@! TF.GenerationSoftware,Kicad,Pcbnew,9.0.3
; #@! TF.FileFunction,Plated,1,2,PTH
FMAT,2
METRIC
; #@! TA.AperFunction,Plated,PTH,ViaDrill
T1C0.400
; #@! TA.AperFunction,Plated,PTH,ComponentDrill
T2C0.750
; #@! TA.AperFunction,Plated,PTH,ComponentDrill
T3C0.991
; #@! TA.AperFunction,Plated,PTH,ComponentDrill
T4C1.092
%
G90
G05
T1
X241.5Y-91.5
X250.0Y-97.0
X255.0Y-102.0
X257.5Y-96.5
X261.0Y-60.5
X262.5Y-101.5
X264.5Y-53.5
X265.0Y-104.0
X270.5Y-113.0
X292.0Y-44.824
X301.0Y-44.0
X311.0Y-49.0
X325.0Y-66.5
X328.5Y-66.5
X329.5Y-65.0
T2
X264.0Y-62.0
X266.0Y-62.0
T3
X263.525Y-136.118
X269.362Y-131.22
X271.19Y-62.0
X271.19Y-81.0
X271.19Y-100.0
X278.81Y-62.0
X278.81Y-81.0
X278.81Y-100.0
X280.997Y-124.904
X288.157Y-122.298
X290.19Y-62.0
X290.19Y-81.0
X290.19Y-100.0
X297.81Y-62.0
X297.81Y-81.0
X297.81Y-100.0
X301.19Y-120.0
X308.81Y-120.0
X309.19Y-57.0
X309.19Y-76.0
X309.19Y-95.0
X316.81Y-57.0
X316.81Y-76.0
X316.81Y-95.0
X328.19Y-62.0
X328.19Y-81.0
X328.19Y-100.0
X335.81Y-62.0
X335.81Y-81.0
X335.81Y-100.0
X347.19Y-67.0
X347.19Y-86.0
X347.19Y-105.0
X354.81Y-67.0
X354.81Y-86.0
X354.81Y-105.0
X366.19Y-67.0
X366.19Y-86.0
X366.19Y-105.0
X373.81Y-67.0
X373.81Y-86.0
X373.81Y-105.0
T4
X242.38Y-51.03
X242.38Y-53.57
X242.38Y-56.11
X242.38Y-58.65
X242.38Y-61.19
X242.38Y-63.73
X242.38Y-66.27
X242.38Y-68.81
X242.38Y-71.35
X242.38Y-73.89
X242.38Y-76.43
X242.38Y-78.97
X257.62Y-51.03
X257.62Y-53.57
X257.62Y-56.11
X257.62Y-58.65
X257.62Y-61.19
X257.62Y-63.73
X257.62Y-66.27
X257.62Y-68.81
X257.62Y-71.35
X257.62Y-73.89
X257.62Y-76.43
X257.62Y-78.97
M30
