0
SECTION
2
HEADER
9
$INSUNITS
70
4
0
ENDSEC
0
SECTION
2
TABLES
0
TABLE
2
LTYPE
0
LTYPE
72
65
70
64
2
CONTINUOUS
3
______
73
0
40
0
0
ENDTAB
0
TABLE
2
LAYER
0
ENDTAB
0
ENDSEC
0
SECTION
2
ENTITIES
0
LINE
8
0
10
99.7283526
20
-111.9
11
89.4
21
-111.9
0
LINE
8
0
10
87.4
20
-109.9
11
87.4
21
-51.7970146
0
LINE
8
0
10
89.0743708
20
-49.8237012
11
147.8382793
21
-40.1266866
0
LINE
8
0
10
148.1639085
20
-40.1
11
165.8802384
21
-40.1
0
LINE
8
0
10
166.1189052
20
-40.1142915
11
205.8386668
21
-44.8883013
0
LINE
8
0
10
207.6
20
-46.8740098
11
207.6
21
-99.5672199
0
LINE
8
0
10
207.8650459
20
-100.5621743
11
223.3770595
21
-127.611282
0
LINE
8
0
10
223.1741942
20
-129.8918117
11
210.0026803
21
-145.5890108
0
LINE
8
0
10
207.254646
20
-145.8913514
11
190.0775983
21
-132.7380383
0
LINE
8
0
10
189.5337339
20
-132.4422591
11
174.3259772
21
-127.0163049
0
LINE
8
0
10
173.6538962
20
-126.9
11
154.4716474
21
-126.9
0
LINE
8
0
10
153.9381942
20
-126.8275445
11
100.2618058
21
-111.9724555
0
LINE
8
0
10
370.2716474
20
-111.9
11
380.6
21
-111.9
0
LINE
8
0
10
382.6
20
-109.9
11
382.6
21
-51.7970146
0
LINE
8
0
10
380.9256292
20
-49.8237012
11
322.1617207
21
-40.1266866
0
LINE
8
0
10
321.8360915
20
-40.1
11
304.1197616
21
-40.1
0
LINE
8
0
10
303.8810948
20
-40.1142915
11
264.1613332
21
-44.8883013
0
LINE
8
0
10
262.4
20
-46.8740098
11
262.4
21
-99.5672199
0
LINE
8
0
10
262.1349541
20
-100.5621743
11
246.6229405
21
-127.611282
0
LINE
8
0
10
246.8258058
20
-129.8918117
11
259.9973197
21
-145.5890108
0
LINE
8
0
10
262.745354
20
-145.8913514
11
279.9224017
21
-132.7380383
0
LINE
8
0
10
280.4662661
20
-132.4422591
11
295.6740228
21
-127.0163049
0
LINE
8
0
10
296.3461038
20
-126.9
11
315.5283526
21
-126.9
0
LINE
8
0
10
316.0618058
20
-126.8275445
11
369.7381942
21
-111.9724555
0
ARC
8
0
10
380.6
20
-109.9
40
2
50
270
51
0
0
ARC
8
0
10
380.6
20
-51.7970146
40
2
50
0
51
80.6296966
0
ARC
8
0
10
321.8360915
20
-42.1
40
2
50
80.6296966
51
90
0
ARC
8
0
10
304.1197616
20
-42.1
40
2
50
90
51
96.853633
0
ARC
8
0
10
264.4
20
-46.8740098
40
2
50
96.853633
51
180
0
ARC
8
0
10
260.4
20
-99.5672199
40
2
50
330.1667657
51
0
0
ARC
8
0
10
248.3578946
20
-128.6062365
40
2
50
150.1667657
51
220.0000012
0
ARC
8
0
10
261.5294086
20
-144.3034356
40
2
50
220.0000012
51
307.443061
0
ARC
8
0
10
281.1383471
20
-134.3259542
40
2
50
109.6358233
51
127.443061
0
ARC
8
0
10
296.3461038
20
-128.9
40
2
50
90
51
109.6358233
0
ARC
8
0
10
315.5283526
20
-124.9
40
2
50
270
51
285.4695735
0
ARC
8
0
10
370.2716474
20
-113.9
40
2
50
90
51
105.4695735
0
ARC
8
0
10
89.4
20
-109.9
40
2
50
180
51
270
0
ARC
8
0
10
89.4
20
-51.7970146
40
2
50
99.3703034
51
180
0
ARC
8
0
10
148.1639085
20
-42.1
40
2
50
90
51
99.3703034
0
ARC
8
0
10
165.8802384
20
-42.1
40
2
50
83.146367
51
90
0
ARC
8
0
10
205.6
20
-46.8740098
40
2
50
0
51
83.146367
0
ARC
8
0
10
209.6
20
-99.5672199
40
2
50
180
51
209.8332343
0
ARC
8
0
10
221.6421054
20
-128.6062365
40
2
50
319.9999988
51
29.8332343
0
ARC
8
0
10
208.4705914
20
-144.3034356
40
2
50
232.556939
51
319.9999988
0
ARC
8
0
10
188.8616529
20
-134.3259542
40
2
50
52.556939
51
70.3641767
0
ARC
8
0
10
173.6538962
20
-128.9
40
2
50
70.3641767
51
90
0
ARC
8
0
10
154.4716474
20
-124.9
40
2
50
254.5304265
51
270
0
ARC
8
0
10
99.7283526
20
-113.9
40
2
50
74.5304265
51
90
0
ENDSEC
0
EOF