0
SECTION
2
HEADER
9
$INSUNITS
70
4
0
ENDSEC
0
SECTION
2
TABLES
0
TABLE
2
LTYPE
0
LTYPE
72
65
70
64
2
CONTINUOUS
3
______
73
0
40
0
0
ENDTAB
0
TABLE
2
LAYER
0
ENDTAB
0
ENDSEC
0
SECTION
2
ENTITIES
0
LINE
8
0
10
99.7283526
20
-111.9
11
89.4
21
-111.9
0
LINE
8
0
10
87.4
20
-109.9
11
87.4
21
-51.7970146
0
LINE
8
0
10
89.0743708
20
-49.8237012
11
147.8382793
21
-40.1266866
0
LINE
8
0
10
148.1639085
20
-40.1
11
165.8802384
21
-40.1
0
LINE
8
0
10
166.1189052
20
-40.1142915
11
205.8386668
21
-44.8883013
0
LINE
8
0
10
207.6
20
-46.8740098
11
207.6
21
-99.5672199
0
LINE
8
0
10
207.8650459
20
-100.5621743
11
223.3770595
21
-127.611282
0
LINE
8
0
10
223.1741942
20
-129.8918117
11
210.0026803
21
-145.5890108
0
LINE
8
0
10
207.254646
20
-145.8913514
11
190.0775983
21
-132.7380383
0
LINE
8
0
10
189.5337339
20
-132.4422591
11
174.3259772
21
-127.0163049
0
LINE
8
0
10
173.6538962
20
-126.9
11
154.4716474
21
-126.9
0
LINE
8
0
10
153.9381942
20
-126.8275445
11
100.2618058
21
-111.9724555
0
LINE
8
0
10
370.2716474
20
-111.9
11
380.6
21
-111.9
0
LINE
8
0
10
382.6
20
-109.9
11
382.6
21
-51.7970146
0
LINE
8
0
10
380.9256292
20
-49.8237012
11
322.1617207
21
-40.1266866
0
LINE
8
0
10
321.8360915
20
-40.1
11
304.1197616
21
-40.1
0
LINE
8
0
10
303.8810948
20
-40.1142915
11
264.1613332
21
-44.8883013
0
LINE
8
0
10
262.4
20
-46.8740098
11
262.4
21
-99.5672199
0
LINE
8
0
10
262.1349541
20
-100.5621743
11
246.6229405
21
-127.611282
0
LINE
8
0
10
246.8258058
20
-129.8918117
11
259.9973197
21
-145.5890108
0
LINE
8
0
10
262.745354
20
-145.8913514
11
279.9224017
21
-132.7380383
0
LINE
8
0
10
280.4662661
20
-132.4422591
11
295.6740228
21
-127.0163049
0
LINE
8
0
10
296.3461038
20
-126.9
11
315.5283526
21
-126.9
0
LINE
8
0
10
316.0618058
20
-126.8275445
11
369.7381942
21
-111.9724555
0
ARC
8
0
10
380.6
20
-109.9
40
2
50
270
51
0
0
ARC
8
0
10
380.6
20
-51.7970146
40
2
50
0
51
80.6296966
0
ARC
8
0
10
321.8360915
20
-42.1
40
2
50
80.6296966
51
90
0
ARC
8
0
10
304.1197616
20
-42.1
40
2
50
90
51
96.853633
0
ARC
8
0
10
264.4
20
-46.8740098
40
2
50
96.853633
51
180
0
ARC
8
0
10
260.4
20
-99.5672199
40
2
50
330.1667657
51
0
0
ARC
8
0
10
248.3578946
20
-128.6062365
40
2
50
150.1667657
51
220.0000012
0
ARC
8
0
10
261.5294086
20
-144.3034356
40
2
50
220.0000012
51
307.443061
0
ARC
8
0
10
281.1383471
20
-134.3259542
40
2
50
109.6358233
51
127.443061
0
ARC
8
0
10
296.3461038
20
-128.9
40
2
50
90
51
109.6358233
0
ARC
8
0
10
315.5283526
20
-124.9
40
2
50
270
51
285.4695735
0
ARC
8
0
10
370.2716474
20
-113.9
40
2
50
90
51
105.4695735
0
ARC
8
0
10
89.4
20
-109.9
40
2
50
180
51
270
0
ARC
8
0
10
89.4
20
-51.7970146
40
2
50
99.3703034
51
180
0
ARC
8
0
10
148.1639085
20
-42.1
40
2
50
90
51
99.3703034
0
ARC
8
0
10
165.8802384
20
-42.1
40
2
50
83.146367
51
90
0
ARC
8
0
10
205.6
20
-46.8740098
40
2
50
0
51
83.146367
0
ARC
8
0
10
209.6
20
-99.5672199
40
2
50
180
51
209.8332343
0
ARC
8
0
10
221.6421054
20
-128.6062365
40
2
50
319.9999988
51
29.8332343
0
ARC
8
0
10
208.4705914
20
-144.3034356
40
2
50
232.556939
51
319.9999988
0
ARC
8
0
10
188.8616529
20
-134.3259542
40
2
50
52.556939
51
70.3641767
0
ARC
8
0
10
173.6538962
20
-128.9
40
2
50
70.3641767
51
90
0
ARC
8
0
10
154.4716474
20
-124.9
40
2
50
254.5304265
51
270
0
ARC
8
0
10
99.7283526
20
-113.9
40
2
50
74.5304265
51
90
0
LINE
8
0
10
95
20
-107
11
105
21
-107
0
LINE
8
0
10
107
20
-105
11
107
21
-95
0
LINE
8
0
10
105
20
-93
11
95
21
-93
0
LINE
8
0
10
93
20
-95
11
93
21
-105
0
LINE
8
0
10
95
20
-88
11
105
21
-88
0
LINE
8
0
10
107
20
-86
11
107
21
-76
0
LINE
8
0
10
105
20
-74
11
95
21
-74
0
LINE
8
0
10
93
20
-76
11
93
21
-86
0
LINE
8
0
10
95
20
-69
11
105
21
-69
0
LINE
8
0
10
107
20
-67
11
107
21
-57
0
LINE
8
0
10
105
20
-55
11
95
21
-55
0
LINE
8
0
10
93
20
-57
11
93
21
-67
0
LINE
8
0
10
114
20
-107
11
124
21
-107
0
LINE
8
0
10
126
20
-105
11
126
21
-95
0
LINE
8
0
10
124
20
-93
11
114
21
-93
0
LINE
8
0
10
112
20
-95
11
112
21
-105
0
LINE
8
0
10
114
20
-88
11
124
21
-88
0
LINE
8
0
10
126
20
-86
11
126
21
-76
0
LINE
8
0
10
124
20
-74
11
114
21
-74
0
LINE
8
0
10
112
20
-76
11
112
21
-86
0
LINE
8
0
10
114
20
-69
11
124
21
-69
0
LINE
8
0
10
126
20
-67
11
126
21
-57
0
LINE
8
0
10
124
20
-55
11
114
21
-55
0
LINE
8
0
10
112
20
-57
11
112
21
-67
0
LINE
8
0
10
133
20
-102
11
143
21
-102
0
LINE
8
0
10
145
20
-100
11
145
21
-90
0
LINE
8
0
10
143
20
-88
11
133
21
-88
0
LINE
8
0
10
131
20
-90
11
131
21
-100
0
LINE
8
0
10
133
20
-83
11
143
21
-83
0
LINE
8
0
10
145
20
-81
11
145
21
-71
0
LINE
8
0
10
143
20
-69
11
133
21
-69
0
LINE
8
0
10
131
20
-71
11
131
21
-81
0
LINE
8
0
10
133
20
-64
11
143
21
-64
0
LINE
8
0
10
145
20
-62
11
145
21
-52
0
LINE
8
0
10
143
20
-50
11
133
21
-50
0
LINE
8
0
10
131
20
-52
11
131
21
-62
0
LINE
8
0
10
152
20
-97
11
162
21
-97
0
LINE
8
0
10
164
20
-95
11
164
21
-85
0
LINE
8
0
10
162
20
-83
11
152
21
-83
0
LINE
8
0
10
150
20
-85
11
150
21
-95
0
LINE
8
0
10
152
20
-78
11
162
21
-78
0
LINE
8
0
10
164
20
-76
11
164
21
-66
0
LINE
8
0
10
162
20
-64
11
152
21
-64
0
LINE
8
0
10
150
20
-66
11
150
21
-76
0
LINE
8
0
10
152
20
-59
11
162
21
-59
0
LINE
8
0
10
164
20
-57
11
164
21
-47
0
LINE
8
0
10
162
20
-45
11
152
21
-45
0
LINE
8
0
10
150
20
-47
11
150
21
-57
0
LINE
8
0
10
171
20
-102
11
181
21
-102
0
LINE
8
0
10
183
20
-100
11
183
21
-90
0
LINE
8
0
10
181
20
-88
11
171
21
-88
0
LINE
8
0
10
169
20
-90
11
169
21
-100
0
LINE
8
0
10
171
20
-83
11
181
21
-83
0
LINE
8
0
10
183
20
-81
11
183
21
-71
0
LINE
8
0
10
181
20
-69
11
171
21
-69
0
LINE
8
0
10
169
20
-71
11
169
21
-81
0
LINE
8
0
10
171
20
-64
11
181
21
-64
0
LINE
8
0
10
183
20
-62
11
183
21
-52
0
LINE
8
0
10
181
20
-50
11
171
21
-50
0
LINE
8
0
10
169
20
-52
11
169
21
-62
0
LINE
8
0
10
190
20
-102
11
200
21
-102
0
LINE
8
0
10
202
20
-100
11
202
21
-90
0
LINE
8
0
10
200
20
-88
11
190
21
-88
0
LINE
8
0
10
188
20
-90
11
188
21
-100
0
LINE
8
0
10
190
20
-83
11
200
21
-83
0
LINE
8
0
10
202
20
-81
11
202
21
-71
0
LINE
8
0
10
200
20
-69
11
190
21
-69
0
LINE
8
0
10
188
20
-71
11
188
21
-81
0
LINE
8
0
10
190
20
-64
11
200
21
-64
0
LINE
8
0
10
202
20
-62
11
202
21
-52
0
LINE
8
0
10
200
20
-50
11
190
21
-50
0
LINE
8
0
10
188
20
-52
11
188
21
-62
0
LINE
8
0
10
160
20
-122
11
170
21
-122
0
LINE
8
0
10
172
20
-120
11
172
21
-110
0
LINE
8
0
10
170
20
-108
11
160
21
-108
0
LINE
8
0
10
158
20
-110
11
158
21
-120
0
LINE
8
0
10
180.0404834
20
-123.7704081
11
189.4374096
21
-127.1906095
0
LINE
8
0
10
192.000835
20
-125.9952645
11
195.4210364
21
-116.5983383
0
LINE
8
0
10
194.2256914
20
-114.0349129
11
184.8287652
21
-110.6147115
0
LINE
8
0
10
182.2653398
20
-111.8100565
11
178.8451384
21
-121.2069827
0
LINE
8
0
10
198.4405104
20
-131.9875289
11
206.1009548
21
-138.4154051
0
LINE
8
0
10
208.9186189
20
-138.1688914
11
215.3464951
21
-130.508447
0
LINE
8
0
10
215.0999814
20
-127.6907829
11
207.439537
21
-121.2629067
0
LINE
8
0
10
204.6218729
20
-121.5094204
11
198.1939967
21
-129.1698648
0
LINE
8
0
10
365
20
-107
11
375
21
-107
0
LINE
8
0
10
377
20
-105
11
377
21
-95
0
LINE
8
0
10
375
20
-93
11
365
21
-93
0
LINE
8
0
10
363
20
-95
11
363
21
-105
0
LINE
8
0
10
365
20
-88
11
375
21
-88
0
LINE
8
0
10
377
20
-86
11
377
21
-76
0
LINE
8
0
10
375
20
-74
11
365
21
-74
0
LINE
8
0
10
363
20
-76
11
363
21
-86
0
LINE
8
0
10
365
20
-69
11
375
21
-69
0
LINE
8
0
10
377
20
-67
11
377
21
-57
0
LINE
8
0
10
375
20
-55
11
365
21
-55
0
LINE
8
0
10
363
20
-57
11
363
21
-67
0
LINE
8
0
10
346
20
-107
11
356
21
-107
0
LINE
8
0
10
358
20
-105
11
358
21
-95
0
LINE
8
0
10
356
20
-93
11
346
21
-93
0
LINE
8
0
10
344
20
-95
11
344
21
-105
0
LINE
8
0
10
346
20
-88
11
356
21
-88
0
LINE
8
0
10
358
20
-86
11
358
21
-76
0
LINE
8
0
10
356
20
-74
11
346
21
-74
0
LINE
8
0
10
344
20
-76
11
344
21
-86
0
LINE
8
0
10
346
20
-69
11
356
21
-69
0
LINE
8
0
10
358
20
-67
11
358
21
-57
0
LINE
8
0
10
356
20
-55
11
346
21
-55
0
LINE
8
0
10
344
20
-57
11
344
21
-67
0
LINE
8
0
10
327
20
-102
11
337
21
-102
0
LINE
8
0
10
339
20
-100
11
339
21
-90
0
LINE
8
0
10
337
20
-88
11
327
21
-88
0
LINE
8
0
10
325
20
-90
11
325
21
-100
0
LINE
8
0
10
327
20
-83
11
337
21
-83
0
LINE
8
0
10
339
20
-81
11
339
21
-71
0
LINE
8
0
10
337
20
-69
11
327
21
-69
0
LINE
8
0
10
325
20
-71
11
325
21
-81
0
LINE
8
0
10
327
20
-64
11
337
21
-64
0
LINE
8
0
10
339
20
-62
11
339
21
-52
0
LINE
8
0
10
337
20
-50
11
327
21
-50
0
LINE
8
0
10
325
20
-52
11
325
21
-62
0
LINE
8
0
10
308
20
-97
11
318
21
-97
0
LINE
8
0
10
320
20
-95
11
320
21
-85
0
LINE
8
0
10
318
20
-83
11
308
21
-83
0
LINE
8
0
10
306
20
-85
11
306
21
-95
0
LINE
8
0
10
308
20
-78
11
318
21
-78
0
LINE
8
0
10
320
20
-76
11
320
21
-66
0
LINE
8
0
10
318
20
-64
11
308
21
-64
0
LINE
8
0
10
306
20
-66
11
306
21
-76
0
LINE
8
0
10
308
20
-59
11
318
21
-59
0
LINE
8
0
10
320
20
-57
11
320
21
-47
0
LINE
8
0
10
318
20
-45
11
308
21
-45
0
LINE
8
0
10
306
20
-47
11
306
21
-57
0
LINE
8
0
10
289
20
-102
11
299
21
-102
0
LINE
8
0
10
301
20
-100
11
301
21
-90
0
LINE
8
0
10
299
20
-88
11
289
21
-88
0
LINE
8
0
10
287
20
-90
11
287
21
-100
0
LINE
8
0
10
289
20
-83
11
299
21
-83
0
LINE
8
0
10
301
20
-81
11
301
21
-71
0
LINE
8
0
10
299
20
-69
11
289
21
-69
0
LINE
8
0
10
287
20
-71
11
287
21
-81
0
LINE
8
0
10
289
20
-64
11
299
21
-64
0
LINE
8
0
10
301
20
-62
11
301
21
-52
0
LINE
8
0
10
299
20
-50
11
289
21
-50
0
LINE
8
0
10
287
20
-52
11
287
21
-62
0
LINE
8
0
10
270
20
-102
11
280
21
-102
0
LINE
8
0
10
282
20
-100
11
282
21
-90
0
LINE
8
0
10
280
20
-88
11
270
21
-88
0
LINE
8
0
10
268
20
-90
11
268
21
-100
0
LINE
8
0
10
270
20
-83
11
280
21
-83
0
LINE
8
0
10
282
20
-81
11
282
21
-71
0
LINE
8
0
10
280
20
-69
11
270
21
-69
0
LINE
8
0
10
268
20
-71
11
268
21
-81
0
LINE
8
0
10
270
20
-64
11
280
21
-64
0
LINE
8
0
10
282
20
-62
11
282
21
-52
0
LINE
8
0
10
280
20
-50
11
270
21
-50
0
LINE
8
0
10
268
20
-52
11
268
21
-62
0
LINE
8
0
10
300
20
-122
11
310
21
-122
0
LINE
8
0
10
312
20
-120
11
312
21
-110
0
LINE
8
0
10
310
20
-108
11
300
21
-108
0
LINE
8
0
10
298
20
-110
11
298
21
-120
0
LINE
8
0
10
280.5625904
20
-127.1906095
11
289.9595166
21
-123.7704081
0
LINE
8
0
10
291.1548616
20
-121.2069827
11
287.7346602
21
-111.8100565
0
LINE
8
0
10
285.1712348
20
-110.6147115
11
275.7743086
21
-114.0349129
0
LINE
8
0
10
274.5789636
20
-116.5983383
11
277.999165
21
-125.9952645
0
LINE
8
0
10
263.8990452
20
-138.4154051
11
271.5594896
21
-131.9875289
0
LINE
8
0
10
271.8060033
20
-129.1698648
11
265.3781271
21
-121.5094204
0
LINE
8
0
10
262.560463
20
-121.2629067
11
254.9000186
21
-127.6907829
0
LINE
8
0
10
254.6535049
20
-130.508447
11
261.0813811
21
-138.1688914
0
ARC
8
0
10
207.38653
20
-136.8833162
40
2
50
229.9999988
51
319.9999988
0
ARC
8
0
10
213.8144062
20
-129.2228718
40
2
50
319.9999988
51
49.9999988
0
ARC
8
0
10
206.1539618
20
-122.7949956
40
2
50
49.9999988
51
139.9999988
0
ARC
8
0
10
199.7260856
20
-130.45544
40
2
50
139.9999988
51
229.9999988
0
ARC
8
0
10
270.2739144
20
-130.45544
40
2
50
310.0000012
51
40.0000012
0
ARC
8
0
10
263.8460382
20
-122.7949956
40
2
50
40.0000012
51
130.0000012
0
ARC
8
0
10
256.1855938
20
-129.2228718
40
2
50
130.0000012
51
220.0000012
0
ARC
8
0
10
262.61347
20
-136.8833162
40
2
50
220.0000012
51
310.0000012
0
ARC
8
0
10
105
20
-105
40
2
50
270
51
0
0
ARC
8
0
10
105
20
-95
40
2
50
0
51
90
0
ARC
8
0
10
95
20
-95
40
2
50
90
51
180
0
ARC
8
0
10
95
20
-105
40
2
50
180
51
270
0
ARC
8
0
10
105
20
-86
40
2
50
270
51
0
0
ARC
8
0
10
105
20
-76
40
2
50
0
51
90
0
ARC
8
0
10
95
20
-76
40
2
50
90
51
180
0
ARC
8
0
10
95
20
-86
40
2
50
180
51
270
0
ARC
8
0
10
105
20
-67
40
2
50
270
51
0
0
ARC
8
0
10
105
20
-57
40
2
50
0
51
90
0
ARC
8
0
10
95
20
-57
40
2
50
90
51
180
0
ARC
8
0
10
95
20
-67
40
2
50
180
51
270
0
ARC
8
0
10
124
20
-105
40
2
50
270
51
0
0
ARC
8
0
10
124
20
-95
40
2
50
0
51
90
0
ARC
8
0
10
114
20
-95
40
2
50
90
51
180
0
ARC
8
0
10
114
20
-105
40
2
50
180
51
270
0
ARC
8
0
10
124
20
-86
40
2
50
270
51
0
0
ARC
8
0
10
124
20
-76
40
2
50
0
51
90
0
ARC
8
0
10
114
20
-76
40
2
50
90
51
180
0
ARC
8
0
10
114
20
-86
40
2
50
180
51
270
0
ARC
8
0
10
124
20
-67
40
2
50
270
51
0
0
ARC
8
0
10
124
20
-57
40
2
50
0
51
90
0
ARC
8
0
10
114
20
-57
40
2
50
90
51
180
0
ARC
8
0
10
114
20
-67
40
2
50
180
51
270
0
ARC
8
0
10
143
20
-100
40
2
50
270
51
0
0
ARC
8
0
10
143
20
-90
40
2
50
0
51
90
0
ARC
8
0
10
133
20
-90
40
2
50
90
51
180
0
ARC
8
0
10
133
20
-100
40
2
50
180
51
270
0
ARC
8
0
10
143
20
-81
40
2
50
270
51
0
0
ARC
8
0
10
143
20
-71
40
2
50
0
51
90
0
ARC
8
0
10
133
20
-71
40
2
50
90
51
180
0
ARC
8
0
10
133
20
-81
40
2
50
180
51
270
0
ARC
8
0
10
143
20
-62
40
2
50
270
51
0
0
ARC
8
0
10
143
20
-52
40
2
50
0
51
90
0
ARC
8
0
10
133
20
-52
40
2
50
90
51
180
0
ARC
8
0
10
133
20
-62
40
2
50
180
51
270
0
ARC
8
0
10
162
20
-95
40
2
50
270
51
0
0
ARC
8
0
10
162
20
-85
40
2
50
0
51
90
0
ARC
8
0
10
152
20
-85
40
2
50
90
51
180
0
ARC
8
0
10
152
20
-95
40
2
50
180
51
270
0
ARC
8
0
10
162
20
-76
40
2
50
270
51
0
0
ARC
8
0
10
162
20
-66
40
2
50
0
51
90
0
ARC
8
0
10
152
20
-66
40
2
50
90
51
180
0
ARC
8
0
10
152
20
-76
40
2
50
180
51
270
0
ARC
8
0
10
162
20
-57
40
2
50
270
51
0
0
ARC
8
0
10
162
20
-47
40
2
50
0
51
90
0
ARC
8
0
10
152
20
-47
40
2
50
90
51
180
0
ARC
8
0
10
152
20
-57
40
2
50
180
51
270
0
ARC
8
0
10
181
20
-100
40
2
50
270
51
0
0
ARC
8
0
10
181
20
-90
40
2
50
0
51
90
0
ARC
8
0
10
171
20
-90
40
2
50
90
51
180
0
ARC
8
0
10
171
20
-100
40
2
50
180
51
270
0
ARC
8
0
10
181
20
-81
40
2
50
270
51
0
0
ARC
8
0
10
181
20
-71
40
2
50
0
51
90
0
ARC
8
0
10
171
20
-71
40
2
50
90
51
180
0
ARC
8
0
10
171
20
-81
40
2
50
180
51
270
0
ARC
8
0
10
181
20
-62
40
2
50
270
51
0
0
ARC
8
0
10
181
20
-52
40
2
50
0
51
90
0
ARC
8
0
10
171
20
-52
40
2
50
90
51
180
0
ARC
8
0
10
171
20
-62
40
2
50
180
51
270
0
ARC
8
0
10
200
20
-100
40
2
50
270
51
0
0
ARC
8
0
10
200
20
-90
40
2
50
0
51
90
0
ARC
8
0
10
190
20
-90
40
2
50
90
51
180
0
ARC
8
0
10
190
20
-100
40
2
50
180
51
270
0
ARC
8
0
10
200
20
-81
40
2
50
270
51
0
0
ARC
8
0
10
200
20
-71
40
2
50
0
51
90
0
ARC
8
0
10
190
20
-71
40
2
50
90
51
180
0
ARC
8
0
10
190
20
-81
40
2
50
180
51
270
0
ARC
8
0
10
200
20
-62
40
2
50
270
51
0
0
ARC
8
0
10
200
20
-52
40
2
50
0
51
90
0
ARC
8
0
10
190
20
-52
40
2
50
90
51
180
0
ARC
8
0
10
190
20
-62
40
2
50
180
51
270
0
ARC
8
0
10
170
20
-120
40
2
50
270
51
0
0
ARC
8
0
10
170
20
-110
40
2
50
0
51
90
0
ARC
8
0
10
160
20
-110
40
2
50
90
51
180
0
ARC
8
0
10
160
20
-120
40
2
50
180
51
270
0
ARC
8
0
10
375
20
-105
40
2
50
270
51
0
0
ARC
8
0
10
375
20
-95
40
2
50
0
51
90
0
ARC
8
0
10
365
20
-95
40
2
50
90
51
180
0
ARC
8
0
10
365
20
-105
40
2
50
180
51
270
0
ARC
8
0
10
375
20
-86
40
2
50
270
51
0
0
ARC
8
0
10
375
20
-76
40
2
50
0
51
90
0
ARC
8
0
10
365
20
-76
40
2
50
90
51
180
0
ARC
8
0
10
365
20
-86
40
2
50
180
51
270
0
ARC
8
0
10
375
20
-67
40
2
50
270
51
0
0
ARC
8
0
10
375
20
-57
40
2
50
0
51
90
0
ARC
8
0
10
365
20
-57
40
2
50
90
51
180
0
ARC
8
0
10
365
20
-67
40
2
50
180
51
270
0
ARC
8
0
10
356
20
-105
40
2
50
270
51
0
0
ARC
8
0
10
356
20
-95
40
2
50
0
51
90
0
ARC
8
0
10
346
20
-95
40
2
50
90
51
180
0
ARC
8
0
10
346
20
-105
40
2
50
180
51
270
0
ARC
8
0
10
356
20
-86
40
2
50
270
51
0
0
ARC
8
0
10
356
20
-76
40
2
50
0
51
90
0
ARC
8
0
10
346
20
-76
40
2
50
90
51
180
0
ARC
8
0
10
346
20
-86
40
2
50
180
51
270
0
ARC
8
0
10
356
20
-67
40
2
50
270
51
0
0
ARC
8
0
10
356
20
-57
40
2
50
0
51
90
0
ARC
8
0
10
346
20
-57
40
2
50
90
51
180
0
ARC
8
0
10
346
20
-67
40
2
50
180
51
270
0
ARC
8
0
10
337
20
-100
40
2
50
270
51
0
0
ARC
8
0
10
337
20
-90
40
2
50
0
51
90
0
ARC
8
0
10
327
20
-90
40
2
50
90
51
180
0
ARC
8
0
10
327
20
-100
40
2
50
180
51
270
0
ARC
8
0
10
337
20
-81
40
2
50
270
51
0
0
ARC
8
0
10
337
20
-71
40
2
50
0
51
90
0
ARC
8
0
10
327
20
-71
40
2
50
90
51
180
0
ARC
8
0
10
327
20
-81
40
2
50
180
51
270
0
ARC
8
0
10
337
20
-62
40
2
50
270
51
0
0
ARC
8
0
10
337
20
-52
40
2
50
0
51
90
0
ARC
8
0
10
327
20
-52
40
2
50
90
51
180
0
ARC
8
0
10
327
20
-62
40
2
50
180
51
270
0
ARC
8
0
10
318
20
-95
40
2
50
270
51
0
0
ARC
8
0
10
318
20
-85
40
2
50
0
51
90
0
ARC
8
0
10
308
20
-85
40
2
50
90
51
180
0
ARC
8
0
10
308
20
-95
40
2
50
180
51
270
0
ARC
8
0
10
318
20
-76
40
2
50
270
51
0
0
ARC
8
0
10
318
20
-66
40
2
50
0
51
90
0
ARC
8
0
10
308
20
-66
40
2
50
90
51
180
0
ARC
8
0
10
308
20
-76
40
2
50
180
51
270
0
ARC
8
0
10
318
20
-57
40
2
50
270
51
0
0
ARC
8
0
10
318
20
-47
40
2
50
0
51
90
0
ARC
8
0
10
308
20
-47
40
2
50
90
51
180
0
ARC
8
0
10
308
20
-57
40
2
50
180
51
270
0
ARC
8
0
10
299
20
-100
40
2
50
270
51
0
0
ARC
8
0
10
299
20
-90
40
2
50
0
51
90
0
ARC
8
0
10
289
20
-90
40
2
50
90
51
180
0
ARC
8
0
10
289
20
-100
40
2
50
180
51
270
0
ARC
8
0
10
299
20
-81
40
2
50
270
51
0
0
ARC
8
0
10
299
20
-71
40
2
50
0
51
90
0
ARC
8
0
10
289
20
-71
40
2
50
90
51
180
0
ARC
8
0
10
289
20
-81
40
2
50
180
51
270
0
ARC
8
0
10
299
20
-62
40
2
50
270
51
0
0
ARC
8
0
10
299
20
-52
40
2
50
0
51
90
0
ARC
8
0
10
289
20
-52
40
2
50
90
51
180
0
ARC
8
0
10
289
20
-62
40
2
50
180
51
270
0
ARC
8
0
10
280
20
-100
40
2
50
270
51
0
0
ARC
8
0
10
280
20
-90
40
2
50
0
51
90
0
ARC
8
0
10
270
20
-90
40
2
50
90
51
180
0
ARC
8
0
10
270
20
-100
40
2
50
180
51
270
0
ARC
8
0
10
280
20
-81
40
2
50
270
51
0
0
ARC
8
0
10
280
20
-71
40
2
50
0
51
90
0
ARC
8
0
10
270
20
-71
40
2
50
90
51
180
0
ARC
8
0
10
270
20
-81
40
2
50
180
51
270
0
ARC
8
0
10
280
20
-62
40
2
50
270
51
0
0
ARC
8
0
10
280
20
-52
40
2
50
0
51
90
0
ARC
8
0
10
270
20
-52
40
2
50
90
51
180
0
ARC
8
0
10
270
20
-62
40
2
50
180
51
270
0
ARC
8
0
10
310
20
-120
40
2
50
270
51
0
0
ARC
8
0
10
310
20
-110
40
2
50
0
51
90
0
ARC
8
0
10
300
20
-110
40
2
50
90
51
180
0
ARC
8
0
10
300
20
-120
40
2
50
180
51
270
0
ARC
8
0
10
289.2754764
20
-121.8910229
40
2
50
289.9999981
51
19.9999981
0
ARC
8
0
10
285.855275
20
-112.4940967
40
2
50
19.9999981
51
109.9999981
0
ARC
8
0
10
276.4583488
20
-115.9142981
40
2
50
109.9999981
51
199.9999981
0
ARC
8
0
10
279.8785502
20
-125.3112243
40
2
50
199.9999981
51
289.9999981
0
ARC
8
0
10
190.1214498
20
-125.3112243
40
2
50
250.0000019
51
340.0000019
0
ARC
8
0
10
193.5416512
20
-115.9142981
40
2
50
340.0000019
51
70.0000019
0
ARC
8
0
10
184.144725
20
-112.4940967
40
2
50
70.0000019
51
160.0000019
0
ARC
8
0
10
180.7245236
20
-121.8910229
40
2
50
160.0000019
51
250.0000019
0
ENDSEC
0
EOF