0
SECTION
2
HEADER
9
$INSUNITS
70
4
0
ENDSEC
0
SECTION
2
TABLES
0
TABLE
2
LTYPE
0
LTYPE
72
65
70
64
2
CONTINUOUS
3
______
73
0
40
0
0
ENDTAB
0
TABLE
2
LAYER
0
ENDTAB
0
ENDSEC
0
SECTION
2
ENTITIES
0
LINE
8
0
10
363
20
-107
11
377
21
-107
0
LINE
8
0
10
377
20
-107
11
377
21
-93
0
LINE
8
0
10
377
20
-93
11
363
21
-93
0
LINE
8
0
10
363
20
-93
11
363
21
-107
0
LINE
8
0
10
363
20
-88
11
377
21
-88
0
LINE
8
0
10
377
20
-88
11
377
21
-74
0
LINE
8
0
10
377
20
-74
11
363
21
-74
0
LINE
8
0
10
363
20
-74
11
363
21
-88
0
LINE
8
0
10
363
20
-69
11
377
21
-69
0
LINE
8
0
10
377
20
-69
11
377
21
-55
0
LINE
8
0
10
377
20
-55
11
363
21
-55
0
LINE
8
0
10
363
20
-55
11
363
21
-69
0
LINE
8
0
10
344
20
-107
11
358
21
-107
0
LINE
8
0
10
358
20
-107
11
358
21
-93
0
LINE
8
0
10
358
20
-93
11
344
21
-93
0
LINE
8
0
10
344
20
-93
11
344
21
-107
0
LINE
8
0
10
344
20
-88
11
358
21
-88
0
LINE
8
0
10
358
20
-88
11
358
21
-74
0
LINE
8
0
10
358
20
-74
11
344
21
-74
0
LINE
8
0
10
344
20
-74
11
344
21
-88
0
LINE
8
0
10
344
20
-69
11
358
21
-69
0
LINE
8
0
10
358
20
-69
11
358
21
-55
0
LINE
8
0
10
358
20
-55
11
344
21
-55
0
LINE
8
0
10
344
20
-55
11
344
21
-69
0
LINE
8
0
10
325
20
-102
11
339
21
-102
0
LINE
8
0
10
339
20
-102
11
339
21
-88
0
LINE
8
0
10
339
20
-88
11
325
21
-88
0
LINE
8
0
10
325
20
-88
11
325
21
-102
0
LINE
8
0
10
325
20
-83
11
339
21
-83
0
LINE
8
0
10
339
20
-83
11
339
21
-69
0
LINE
8
0
10
339
20
-69
11
325
21
-69
0
LINE
8
0
10
325
20
-69
11
325
21
-83
0
LINE
8
0
10
325
20
-64
11
339
21
-64
0
LINE
8
0
10
339
20
-64
11
339
21
-50
0
LINE
8
0
10
339
20
-50
11
325
21
-50
0
LINE
8
0
10
325
20
-50
11
325
21
-64
0
LINE
8
0
10
306
20
-97
11
320
21
-97
0
LINE
8
0
10
320
20
-97
11
320
21
-83
0
LINE
8
0
10
320
20
-83
11
306
21
-83
0
LINE
8
0
10
306
20
-83
11
306
21
-97
0
LINE
8
0
10
306
20
-78
11
320
21
-78
0
LINE
8
0
10
320
20
-78
11
320
21
-64
0
LINE
8
0
10
320
20
-64
11
306
21
-64
0
LINE
8
0
10
306
20
-64
11
306
21
-78
0
LINE
8
0
10
306
20
-59
11
320
21
-59
0
LINE
8
0
10
320
20
-59
11
320
21
-45
0
LINE
8
0
10
320
20
-45
11
306
21
-45
0
LINE
8
0
10
306
20
-45
11
306
21
-59
0
LINE
8
0
10
287
20
-102
11
301
21
-102
0
LINE
8
0
10
301
20
-102
11
301
21
-88
0
LINE
8
0
10
301
20
-88
11
287
21
-88
0
LINE
8
0
10
287
20
-88
11
287
21
-102
0
LINE
8
0
10
287
20
-83
11
301
21
-83
0
LINE
8
0
10
301
20
-83
11
301
21
-69
0
LINE
8
0
10
301
20
-69
11
287
21
-69
0
LINE
8
0
10
287
20
-69
11
287
21
-83
0
LINE
8
0
10
287
20
-64
11
301
21
-64
0
LINE
8
0
10
301
20
-64
11
301
21
-50
0
LINE
8
0
10
301
20
-50
11
287
21
-50
0
LINE
8
0
10
287
20
-50
11
287
21
-64
0
LINE
8
0
10
268
20
-102
11
282
21
-102
0
LINE
8
0
10
282
20
-102
11
282
21
-88
0
LINE
8
0
10
282
20
-88
11
268
21
-88
0
LINE
8
0
10
268
20
-88
11
268
21
-102
0
LINE
8
0
10
268
20
-83
11
282
21
-83
0
LINE
8
0
10
282
20
-83
11
282
21
-69
0
LINE
8
0
10
282
20
-69
11
268
21
-69
0
LINE
8
0
10
268
20
-69
11
268
21
-83
0
LINE
8
0
10
268
20
-64
11
282
21
-64
0
LINE
8
0
10
282
20
-64
11
282
21
-50
0
LINE
8
0
10
282
20
-50
11
268
21
-50
0
LINE
8
0
10
268
20
-50
11
268
21
-64
0
LINE
8
0
10
298
20
-122
11
312
21
-122
0
LINE
8
0
10
312
20
-122
11
312
21
-108
0
LINE
8
0
10
312
20
-108
11
298
21
-108
0
LINE
8
0
10
298
20
-108
11
298
21
-122
0
LINE
8
0
10
278.6832053
20
-127.8746498
11
291.8389019
21
-123.0863678
0
LINE
8
0
10
291.8389019
20
-123.0863678
11
287.0506199
21
-109.9306712
0
LINE
8
0
10
287.0506199
20
-109.9306712
11
273.8949233
21
-114.7189532
0
LINE
8
0
10
273.8949233
20
-114.7189532
11
278.6832053
21
-127.8746498
0
LINE
8
0
10
262.3669563
20
-139.7009803
11
273.0915785
21
-130.7019537
0
LINE
8
0
10
273.0915785
20
-130.7019537
11
264.0925519
21
-119.9773315
0
LINE
8
0
10
264.0925519
20
-119.9773315
11
253.3679297
21
-128.9763581
0
LINE
8
0
10
253.3679297
20
-128.9763581
11
262.3669563
21
-139.7009803
0
ENDSEC
0
EOF