0
SECTION
2
HEADER
9
$INSUNITS
70
4
0
ENDSEC
0
SECTION
2
TABLES
0
TABLE
2
LTYPE
0
LTYPE
72
65
70
64
2
CONTINUOUS
3
______
73
0
40
0
0
ENDTAB
0
TABLE
2
LAYER
0
ENDTAB
0
ENDSEC
0
SECTION
2
ENTITIES
0
LINE
8
0
10
93
20
-107
11
107
21
-107
0
LINE
8
0
10
107
20
-107
11
107
21
-93
0
LINE
8
0
10
107
20
-93
11
93
21
-93
0
LINE
8
0
10
93
20
-93
11
93
21
-107
0
LINE
8
0
10
93
20
-88
11
107
21
-88
0
LINE
8
0
10
107
20
-88
11
107
21
-74
0
LINE
8
0
10
107
20
-74
11
93
21
-74
0
LINE
8
0
10
93
20
-74
11
93
21
-88
0
LINE
8
0
10
93
20
-69
11
107
21
-69
0
LINE
8
0
10
107
20
-69
11
107
21
-55
0
LINE
8
0
10
107
20
-55
11
93
21
-55
0
LINE
8
0
10
93
20
-55
11
93
21
-69
0
LINE
8
0
10
112
20
-107
11
126
21
-107
0
LINE
8
0
10
126
20
-107
11
126
21
-93
0
LINE
8
0
10
126
20
-93
11
112
21
-93
0
LINE
8
0
10
112
20
-93
11
112
21
-107
0
LINE
8
0
10
112
20
-88
11
126
21
-88
0
LINE
8
0
10
126
20
-88
11
126
21
-74
0
LINE
8
0
10
126
20
-74
11
112
21
-74
0
LINE
8
0
10
112
20
-74
11
112
21
-88
0
LINE
8
0
10
112
20
-69
11
126
21
-69
0
LINE
8
0
10
126
20
-69
11
126
21
-55
0
LINE
8
0
10
126
20
-55
11
112
21
-55
0
LINE
8
0
10
112
20
-55
11
112
21
-69
0
LINE
8
0
10
131
20
-102
11
145
21
-102
0
LINE
8
0
10
145
20
-102
11
145
21
-88
0
LINE
8
0
10
145
20
-88
11
131
21
-88
0
LINE
8
0
10
131
20
-88
11
131
21
-102
0
LINE
8
0
10
131
20
-83
11
145
21
-83
0
LINE
8
0
10
145
20
-83
11
145
21
-69
0
LINE
8
0
10
145
20
-69
11
131
21
-69
0
LINE
8
0
10
131
20
-69
11
131
21
-83
0
LINE
8
0
10
131
20
-64
11
145
21
-64
0
LINE
8
0
10
145
20
-64
11
145
21
-50
0
LINE
8
0
10
145
20
-50
11
131
21
-50
0
LINE
8
0
10
131
20
-50
11
131
21
-64
0
LINE
8
0
10
150
20
-97
11
164
21
-97
0
LINE
8
0
10
164
20
-97
11
164
21
-83
0
LINE
8
0
10
164
20
-83
11
150
21
-83
0
LINE
8
0
10
150
20
-83
11
150
21
-97
0
LINE
8
0
10
150
20
-78
11
164
21
-78
0
LINE
8
0
10
164
20
-78
11
164
21
-64
0
LINE
8
0
10
164
20
-64
11
150
21
-64
0
LINE
8
0
10
150
20
-64
11
150
21
-78
0
LINE
8
0
10
150
20
-59
11
164
21
-59
0
LINE
8
0
10
164
20
-59
11
164
21
-45
0
LINE
8
0
10
164
20
-45
11
150
21
-45
0
LINE
8
0
10
150
20
-45
11
150
21
-59
0
LINE
8
0
10
169
20
-102
11
183
21
-102
0
LINE
8
0
10
183
20
-102
11
183
21
-88
0
LINE
8
0
10
183
20
-88
11
169
21
-88
0
LINE
8
0
10
169
20
-88
11
169
21
-102
0
LINE
8
0
10
169
20
-83
11
183
21
-83
0
LINE
8
0
10
183
20
-83
11
183
21
-69
0
LINE
8
0
10
183
20
-69
11
169
21
-69
0
LINE
8
0
10
169
20
-69
11
169
21
-83
0
LINE
8
0
10
169
20
-64
11
183
21
-64
0
LINE
8
0
10
183
20
-64
11
183
21
-50
0
LINE
8
0
10
183
20
-50
11
169
21
-50
0
LINE
8
0
10
169
20
-50
11
169
21
-64
0
LINE
8
0
10
188
20
-102
11
202
21
-102
0
LINE
8
0
10
202
20
-102
11
202
21
-88
0
LINE
8
0
10
202
20
-88
11
188
21
-88
0
LINE
8
0
10
188
20
-88
11
188
21
-102
0
LINE
8
0
10
188
20
-83
11
202
21
-83
0
LINE
8
0
10
202
20
-83
11
202
21
-69
0
LINE
8
0
10
202
20
-69
11
188
21
-69
0
LINE
8
0
10
188
20
-69
11
188
21
-83
0
LINE
8
0
10
188
20
-64
11
202
21
-64
0
LINE
8
0
10
202
20
-64
11
202
21
-50
0
LINE
8
0
10
202
20
-50
11
188
21
-50
0
LINE
8
0
10
188
20
-50
11
188
21
-64
0
LINE
8
0
10
158
20
-122
11
172
21
-122
0
LINE
8
0
10
172
20
-122
11
172
21
-108
0
LINE
8
0
10
172
20
-108
11
158
21
-108
0
LINE
8
0
10
158
20
-108
11
158
21
-122
0
LINE
8
0
10
178.1610981
20
-123.0863678
11
191.3167947
21
-127.8746498
0
LINE
8
0
10
191.3167947
20
-127.8746498
11
196.1050767
21
-114.7189532
0
LINE
8
0
10
196.1050767
20
-114.7189532
11
182.9493801
21
-109.9306712
0
LINE
8
0
10
182.9493801
20
-109.9306712
11
178.1610981
21
-123.0863678
0
LINE
8
0
10
196.9084215
20
-130.7019537
11
207.6330437
21
-139.7009803
0
LINE
8
0
10
207.6330437
20
-139.7009803
11
216.6320703
21
-128.9763581
0
LINE
8
0
10
216.6320703
20
-128.9763581
11
205.9074481
21
-119.9773315
0
LINE
8
0
10
205.9074481
20
-119.9773315
11
196.9084215
21
-130.7019537
0
ENDSEC
0
EOF