0
SECTION
2
HEADER
9
$INSUNITS
70
4
0
ENDSEC
0
SECTION
2
TABLES
0
TABLE
2
LTYPE
0
LTYPE
72
65
70
64
2
CONTINUOUS
3
______
73
0
40
0
0
ENDTAB
0
TABLE
2
LAYER
0
ENDTAB
0
ENDSEC
0
SECTION
2
ENTITIES
0
LINE
8
0
10
99.7273834
20
-113.9
11
87.4
21
-113.9
0
LINE
8
0
10
85.4
20
-111.9
11
85.4
21
-49.8050065
0
LINE
8
0
10
87.0835252
20
-47.8302043
11
147.6427656
21
-38.1251978
0
LINE
8
0
10
147.9592404
20
-38.1
11
166.0802384
21
-38.1
0
LINE
8
0
10
166.3189052
20
-38.1142915
11
207.6810948
21
-43.0857085
0
LINE
8
0
10
207.9197616
20
-43.1
11
235
21
-43.1
0
LINE
8
0
10
237
20
-45.1
11
237
21
-100.0327532
0
LINE
8
0
10
236.869529
20
-100.7432892
11
225.9166188
21
-129.5620713
0
LINE
8
0
10
225.5791787
20
-130.1371106
11
210.2610305
21
-148.3925687
0
LINE
8
0
10
207.4978497
20
-148.6831954
11
189.5781462
21
-134.687017
0
LINE
8
0
10
189.0406604
20
-134.3873431
11
174.5356969
21
-129.0241241
0
LINE
8
0
10
173.8420906
20
-128.9
11
154.2726166
21
-128.9
0
LINE
8
0
10
153.7373288
20
-128.8270358
11
100.2626712
21
-113.9729642
0
LINE
8
0
10
99.7283526
20
-111.9
11
89.4
21
-111.9
0
LINE
8
0
10
87.4
20
-109.9
11
87.4
21
-51.7970146
0
LINE
8
0
10
89.0743708
20
-49.8237012
11
147.8382793
21
-40.1266866
0
LINE
8
0
10
148.1639085
20
-40.1
11
165.8802384
21
-40.1
0
LINE
8
0
10
166.1189052
20
-40.1142915
11
207.4810948
21
-45.0857085
0
LINE
8
0
10
207.7197616
20
-45.1
11
233
21
-45.1
0
LINE
8
0
10
235
20
-47.1
11
235
21
-99.7323709
0
LINE
8
0
10
234.869266
20
-100.4435985
11
224.1916752
21
-128.5067095
0
LINE
8
0
10
223.8544981
20
-129.0810571
11
210.0026803
21
-145.5890108
0
LINE
8
0
10
207.254646
20
-145.8913514
11
190.0775983
21
-132.7380383
0
LINE
8
0
10
189.5337339
20
-132.4422591
11
174.3259772
21
-127.0163049
0
LINE
8
0
10
173.6538962
20
-126.9
11
154.4716474
21
-126.9
0
LINE
8
0
10
153.9381942
20
-126.8275445
11
100.2618058
21
-111.9724555
0
ARC
8
0
10
87.4
20
-111.9
40
2
50
180
51
270
0
ARC
8
0
10
87.4
20
-49.8050065
40
2
50
99.1046034
51
180
0
ARC
8
0
10
147.9592404
20
-40.1
40
2
50
90
51
99.1046034
0
ARC
8
0
10
166.0802384
20
-40.1
40
2
50
83.146367
51
90
0
ARC
8
0
10
207.9197616
20
-41.1
40
2
50
263.146367
51
270
0
ARC
8
0
10
235
20
-45.1
40
2
50
0
51
90
0
ARC
8
0
10
235
20
-100.0327532
40
2
50
339.1901299
51
0
0
ARC
8
0
10
224.0470898
20
-128.8515353
40
2
50
319.9999988
51
339.1901299
0
ARC
8
0
10
208.7289416
20
-147.1069935
40
2
50
232.0083971
51
319.9999988
0
ARC
8
0
10
188.3470542
20
-136.263219
40
2
50
52.0083971
51
69.7080963
0
ARC
8
0
10
173.8420906
20
-130.9
40
2
50
69.7080963
51
90
0
ARC
8
0
10
154.2726166
20
-126.9
40
2
50
254.4758869
51
270
0
ARC
8
0
10
99.7273834
20
-115.9
40
2
50
74.4758869
51
90
0
ARC
8
0
10
89.4
20
-109.9
40
2
50
180
51
270
0
ARC
8
0
10
89.4
20
-51.7970146
40
2
50
99.3703034
51
180
0
ARC
8
0
10
148.1639085
20
-42.1
40
2
50
90
51
99.3703034
0
ARC
8
0
10
165.8802384
20
-42.1
40
2
50
83.146367
51
90
0
ARC
8
0
10
207.7197616
20
-43.1
40
2
50
263.146367
51
270
0
ARC
8
0
10
233
20
-47.1
40
2
50
0
51
90
0
ARC
8
0
10
233
20
-99.7323709
40
2
50
339.1689328
51
0
0
ARC
8
0
10
222.3224092
20
-127.7954819
40
2
50
319.9999988
51
339.1689328
0
ARC
8
0
10
208.4705914
20
-144.3034356
40
2
50
232.556939
51
319.9999988
0
ARC
8
0
10
188.8616529
20
-134.3259542
40
2
50
52.556939
51
70.3641767
0
ARC
8
0
10
173.6538962
20
-128.9
40
2
50
70.3641767
51
90
0
ARC
8
0
10
154.4716474
20
-124.9
40
2
50
254.5304265
51
270
0
ARC
8
0
10
99.7283526
20
-113.9
40
2
50
74.5304265
51
90
0
ENDSEC
0
EOF