0
SECTION
2
HEADER
9
$INSUNITS
70
4
0
ENDSEC
0
SECTION
2
TABLES
0
TABLE
2
LTYPE
0
LTYPE
72
65
70
64
2
CONTINUOUS
3
______
73
0
40
0
0
ENDTAB
0
TABLE
2
LAYER
0
ENDTAB
0
ENDSEC
0
SECTION
2
ENTITIES
0
LINE
8
0
10
370.2716474
20
-111.9
11
380.6
21
-111.9
0
LINE
8
0
10
382.6
20
-109.9
11
382.6
21
-51.7970146
0
LINE
8
0
10
380.9256292
20
-49.8237012
11
322.1617207
21
-40.1266866
0
LINE
8
0
10
321.8360915
20
-40.1
11
304.1197616
21
-40.1
0
LINE
8
0
10
303.8810948
20
-40.1142915
11
264.1613332
21
-44.8883013
0
LINE
8
0
10
262.4
20
-46.8740098
11
262.4
21
-99.5672199
0
LINE
8
0
10
262.1349541
20
-100.5621743
11
246.6229405
21
-127.611282
0
LINE
8
0
10
246.8258058
20
-129.8918117
11
259.9973197
21
-145.5890108
0
LINE
8
0
10
262.745354
20
-145.8913514
11
279.9224017
21
-132.7380383
0
LINE
8
0
10
280.4662661
20
-132.4422591
11
295.6740228
21
-127.0163049
0
LINE
8
0
10
296.3461038
20
-126.9
11
315.5283526
21
-126.9
0
LINE
8
0
10
316.0618058
20
-126.8275445
11
369.7381942
21
-111.9724555
0
LINE
8
0
10
365
20
-107
11
375
21
-107
0
LINE
8
0
10
377
20
-105
11
377
21
-95
0
LINE
8
0
10
375
20
-93
11
365
21
-93
0
LINE
8
0
10
363
20
-95
11
363
21
-105
0
LINE
8
0
10
365
20
-88
11
375
21
-88
0
LINE
8
0
10
377
20
-86
11
377
21
-76
0
LINE
8
0
10
375
20
-74
11
365
21
-74
0
LINE
8
0
10
363
20
-76
11
363
21
-86
0
LINE
8
0
10
365
20
-69
11
375
21
-69
0
LINE
8
0
10
377
20
-67
11
377
21
-57
0
LINE
8
0
10
375
20
-55
11
365
21
-55
0
LINE
8
0
10
363
20
-57
11
363
21
-67
0
LINE
8
0
10
346
20
-107
11
356
21
-107
0
LINE
8
0
10
358
20
-105
11
358
21
-95
0
LINE
8
0
10
356
20
-93
11
346
21
-93
0
LINE
8
0
10
344
20
-95
11
344
21
-105
0
LINE
8
0
10
346
20
-88
11
356
21
-88
0
LINE
8
0
10
358
20
-86
11
358
21
-76
0
LINE
8
0
10
356
20
-74
11
346
21
-74
0
LINE
8
0
10
344
20
-76
11
344
21
-86
0
LINE
8
0
10
346
20
-69
11
356
21
-69
0
LINE
8
0
10
358
20
-67
11
358
21
-57
0
LINE
8
0
10
356
20
-55
11
346
21
-55
0
LINE
8
0
10
344
20
-57
11
344
21
-67
0
LINE
8
0
10
327
20
-102
11
337
21
-102
0
LINE
8
0
10
339
20
-100
11
339
21
-90
0
LINE
8
0
10
337
20
-88
11
327
21
-88
0
LINE
8
0
10
325
20
-90
11
325
21
-100
0
LINE
8
0
10
327
20
-83
11
337
21
-83
0
LINE
8
0
10
339
20
-81
11
339
21
-71
0
LINE
8
0
10
337
20
-69
11
327
21
-69
0
LINE
8
0
10
325
20
-71
11
325
21
-81
0
LINE
8
0
10
327
20
-64
11
337
21
-64
0
LINE
8
0
10
339
20
-62
11
339
21
-52
0
LINE
8
0
10
337
20
-50
11
327
21
-50
0
LINE
8
0
10
325
20
-52
11
325
21
-62
0
LINE
8
0
10
308
20
-97
11
318
21
-97
0
LINE
8
0
10
320
20
-95
11
320
21
-85
0
LINE
8
0
10
318
20
-83
11
308
21
-83
0
LINE
8
0
10
306
20
-85
11
306
21
-95
0
LINE
8
0
10
308
20
-78
11
318
21
-78
0
LINE
8
0
10
320
20
-76
11
320
21
-66
0
LINE
8
0
10
318
20
-64
11
308
21
-64
0
LINE
8
0
10
306
20
-66
11
306
21
-76
0
LINE
8
0
10
308
20
-59
11
318
21
-59
0
LINE
8
0
10
320
20
-57
11
320
21
-47
0
LINE
8
0
10
318
20
-45
11
308
21
-45
0
LINE
8
0
10
306
20
-47
11
306
21
-57
0
LINE
8
0
10
289
20
-102
11
299
21
-102
0
LINE
8
0
10
301
20
-100
11
301
21
-90
0
LINE
8
0
10
299
20
-88
11
289
21
-88
0
LINE
8
0
10
287
20
-90
11
287
21
-100
0
LINE
8
0
10
289
20
-83
11
299
21
-83
0
LINE
8
0
10
301
20
-81
11
301
21
-71
0
LINE
8
0
10
299
20
-69
11
289
21
-69
0
LINE
8
0
10
287
20
-71
11
287
21
-81
0
LINE
8
0
10
289
20
-64
11
299
21
-64
0
LINE
8
0
10
301
20
-62
11
301
21
-52
0
LINE
8
0
10
299
20
-50
11
289
21
-50
0
LINE
8
0
10
287
20
-52
11
287
21
-62
0
LINE
8
0
10
270
20
-102
11
280
21
-102
0
LINE
8
0
10
282
20
-100
11
282
21
-90
0
LINE
8
0
10
280
20
-88
11
270
21
-88
0
LINE
8
0
10
268
20
-90
11
268
21
-100
0
LINE
8
0
10
270
20
-83
11
280
21
-83
0
LINE
8
0
10
282
20
-81
11
282
21
-71
0
LINE
8
0
10
280
20
-69
11
270
21
-69
0
LINE
8
0
10
268
20
-71
11
268
21
-81
0
LINE
8
0
10
270
20
-64
11
280
21
-64
0
LINE
8
0
10
282
20
-62
11
282
21
-52
0
LINE
8
0
10
280
20
-50
11
270
21
-50
0
LINE
8
0
10
268
20
-52
11
268
21
-62
0
LINE
8
0
10
300
20
-122
11
310
21
-122
0
LINE
8
0
10
312
20
-120
11
312
21
-110
0
LINE
8
0
10
310
20
-108
11
300
21
-108
0
LINE
8
0
10
298
20
-110
11
298
21
-120
0
LINE
8
0
10
280.5625904
20
-127.1906095
11
289.9595166
21
-123.7704081
0
LINE
8
0
10
291.1548616
20
-121.2069827
11
287.7346602
21
-111.8100565
0
LINE
8
0
10
285.1712348
20
-110.6147115
11
275.7743086
21
-114.0349129
0
LINE
8
0
10
274.5789636
20
-116.5983383
11
277.999165
21
-125.9952645
0
LINE
8
0
10
263.8990452
20
-138.4154051
11
271.5594896
21
-131.9875289
0
LINE
8
0
10
271.8060033
20
-129.1698648
11
265.3781271
21
-121.5094204
0
LINE
8
0
10
262.560463
20
-121.2629067
11
254.9000186
21
-127.6907829
0
LINE
8
0
10
254.6535049
20
-130.508447
11
261.0813811
21
-138.1688914
0
ARC
8
0
10
380.6
20
-109.9
40
2
50
270
51
0
0
ARC
8
0
10
380.6
20
-51.7970146
40
2
50
0
51
80.6296966
0
ARC
8
0
10
321.8360915
20
-42.1
40
2
50
80.6296966
51
90
0
ARC
8
0
10
304.1197616
20
-42.1
40
2
50
90
51
96.853633
0
ARC
8
0
10
264.4
20
-46.8740098
40
2
50
96.853633
51
180
0
ARC
8
0
10
260.4
20
-99.5672199
40
2
50
330.1667657
51
0
0
ARC
8
0
10
248.3578946
20
-128.6062365
40
2
50
150.1667657
51
220.0000012
0
ARC
8
0
10
261.5294086
20
-144.3034356
40
2
50
220.0000012
51
307.443061
0
ARC
8
0
10
281.1383471
20
-134.3259542
40
2
50
109.6358233
51
127.443061
0
ARC
8
0
10
296.3461038
20
-128.9
40
2
50
90
51
109.6358233
0
ARC
8
0
10
315.5283526
20
-124.9
40
2
50
270
51
285.4695735
0
ARC
8
0
10
370.2716474
20
-113.9
40
2
50
90
51
105.4695735
0
ARC
8
0
10
270.2739144
20
-130.45544
40
2
50
310.0000012
51
40.0000012
0
ARC
8
0
10
263.8460382
20
-122.7949956
40
2
50
40.0000012
51
130.0000012
0
ARC
8
0
10
256.1855938
20
-129.2228718
40
2
50
130.0000012
51
220.0000012
0
ARC
8
0
10
262.61347
20
-136.8833162
40
2
50
220.0000012
51
310.0000012
0
ARC
8
0
10
375
20
-105
40
2
50
270
51
0
0
ARC
8
0
10
375
20
-95
40
2
50
0
51
90
0
ARC
8
0
10
365
20
-95
40
2
50
90
51
180
0
ARC
8
0
10
365
20
-105
40
2
50
180
51
270
0
ARC
8
0
10
375
20
-86
40
2
50
270
51
0
0
ARC
8
0
10
375
20
-76
40
2
50
0
51
90
0
ARC
8
0
10
365
20
-76
40
2
50
90
51
180
0
ARC
8
0
10
365
20
-86
40
2
50
180
51
270
0
ARC
8
0
10
375
20
-67
40
2
50
270
51
0
0
ARC
8
0
10
375
20
-57
40
2
50
0
51
90
0
ARC
8
0
10
365
20
-57
40
2
50
90
51
180
0
ARC
8
0
10
365
20
-67
40
2
50
180
51
270
0
ARC
8
0
10
356
20
-105
40
2
50
270
51
0
0
ARC
8
0
10
356
20
-95
40
2
50
0
51
90
0
ARC
8
0
10
346
20
-95
40
2
50
90
51
180
0
ARC
8
0
10
346
20
-105
40
2
50
180
51
270
0
ARC
8
0
10
356
20
-86
40
2
50
270
51
0
0
ARC
8
0
10
356
20
-76
40
2
50
0
51
90
0
ARC
8
0
10
346
20
-76
40
2
50
90
51
180
0
ARC
8
0
10
346
20
-86
40
2
50
180
51
270
0
ARC
8
0
10
356
20
-67
40
2
50
270
51
0
0
ARC
8
0
10
356
20
-57
40
2
50
0
51
90
0
ARC
8
0
10
346
20
-57
40
2
50
90
51
180
0
ARC
8
0
10
346
20
-67
40
2
50
180
51
270
0
ARC
8
0
10
337
20
-100
40
2
50
270
51
0
0
ARC
8
0
10
337
20
-90
40
2
50
0
51
90
0
ARC
8
0
10
327
20
-90
40
2
50
90
51
180
0
ARC
8
0
10
327
20
-100
40
2
50
180
51
270
0
ARC
8
0
10
337
20
-81
40
2
50
270
51
0
0
ARC
8
0
10
337
20
-71
40
2
50
0
51
90
0
ARC
8
0
10
327
20
-71
40
2
50
90
51
180
0
ARC
8
0
10
327
20
-81
40
2
50
180
51
270
0
ARC
8
0
10
337
20
-62
40
2
50
270
51
0
0
ARC
8
0
10
337
20
-52
40
2
50
0
51
90
0
ARC
8
0
10
327
20
-52
40
2
50
90
51
180
0
ARC
8
0
10
327
20
-62
40
2
50
180
51
270
0
ARC
8
0
10
318
20
-95
40
2
50
270
51
0
0
ARC
8
0
10
318
20
-85
40
2
50
0
51
90
0
ARC
8
0
10
308
20
-85
40
2
50
90
51
180
0
ARC
8
0
10
308
20
-95
40
2
50
180
51
270
0
ARC
8
0
10
318
20
-76
40
2
50
270
51
0
0
ARC
8
0
10
318
20
-66
40
2
50
0
51
90
0
ARC
8
0
10
308
20
-66
40
2
50
90
51
180
0
ARC
8
0
10
308
20
-76
40
2
50
180
51
270
0
ARC
8
0
10
318
20
-57
40
2
50
270
51
0
0
ARC
8
0
10
318
20
-47
40
2
50
0
51
90
0
ARC
8
0
10
308
20
-47
40
2
50
90
51
180
0
ARC
8
0
10
308
20
-57
40
2
50
180
51
270
0
ARC
8
0
10
299
20
-100
40
2
50
270
51
0
0
ARC
8
0
10
299
20
-90
40
2
50
0
51
90
0
ARC
8
0
10
289
20
-90
40
2
50
90
51
180
0
ARC
8
0
10
289
20
-100
40
2
50
180
51
270
0
ARC
8
0
10
299
20
-81
40
2
50
270
51
0
0
ARC
8
0
10
299
20
-71
40
2
50
0
51
90
0
ARC
8
0
10
289
20
-71
40
2
50
90
51
180
0
ARC
8
0
10
289
20
-81
40
2
50
180
51
270
0
ARC
8
0
10
299
20
-62
40
2
50
270
51
0
0
ARC
8
0
10
299
20
-52
40
2
50
0
51
90
0
ARC
8
0
10
289
20
-52
40
2
50
90
51
180
0
ARC
8
0
10
289
20
-62
40
2
50
180
51
270
0
ARC
8
0
10
280
20
-100
40
2
50
270
51
0
0
ARC
8
0
10
280
20
-90
40
2
50
0
51
90
0
ARC
8
0
10
270
20
-90
40
2
50
90
51
180
0
ARC
8
0
10
270
20
-100
40
2
50
180
51
270
0
ARC
8
0
10
280
20
-81
40
2
50
270
51
0
0
ARC
8
0
10
280
20
-71
40
2
50
0
51
90
0
ARC
8
0
10
270
20
-71
40
2
50
90
51
180
0
ARC
8
0
10
270
20
-81
40
2
50
180
51
270
0
ARC
8
0
10
280
20
-62
40
2
50
270
51
0
0
ARC
8
0
10
280
20
-52
40
2
50
0
51
90
0
ARC
8
0
10
270
20
-52
40
2
50
90
51
180
0
ARC
8
0
10
270
20
-62
40
2
50
180
51
270
0
ARC
8
0
10
310
20
-120
40
2
50
270
51
0
0
ARC
8
0
10
310
20
-110
40
2
50
0
51
90
0
ARC
8
0
10
300
20
-110
40
2
50
90
51
180
0
ARC
8
0
10
300
20
-120
40
2
50
180
51
270
0
ARC
8
0
10
289.2754764
20
-121.8910229
40
2
50
289.9999981
51
19.9999981
0
ARC
8
0
10
285.855275
20
-112.4940967
40
2
50
19.9999981
51
109.9999981
0
ARC
8
0
10
276.4583488
20
-115.9142981
40
2
50
109.9999981
51
199.9999981
0
ARC
8
0
10
279.8785502
20
-125.3112243
40
2
50
199.9999981
51
289.9999981
0
ENDSEC
0
EOF