0
SECTION
2
HEADER
9
$INSUNITS
70
4
0
ENDSEC
0
SECTION
2
TABLES
0
TABLE
2
LTYPE
0
LTYPE
72
65
70
64
2
CONTINUOUS
3
______
73
0
40
0
0
ENDTAB
0
TABLE
2
LAYER
0
ENDTAB
0
ENDSEC
0
SECTION
2
ENTITIES
0
LINE
8
0
10
370.2726166
20
-113.9
11
382.6
21
-113.9
0
LINE
8
0
10
384.6
20
-111.9
11
384.6
21
-49.8050065
0
LINE
8
0
10
382.9164748
20
-47.8302043
11
322.3572344
21
-38.1251978
0
LINE
8
0
10
322.0407596
20
-38.1
11
303.9197616
21
-38.1
0
LINE
8
0
10
303.6810948
20
-38.1142915
11
262.3189052
21
-43.0857085
0
LINE
8
0
10
262.0802384
20
-43.1
11
235
21
-43.1
0
LINE
8
0
10
233
20
-45.1
11
233
21
-100.0327532
0
LINE
8
0
10
233.130471
20
-100.7432892
11
244.0833812
21
-129.5620713
0
LINE
8
0
10
244.4208213
20
-130.1371106
11
259.7389695
21
-148.3925687
0
LINE
8
0
10
262.5021503
20
-148.6831954
11
280.4218538
21
-134.687017
0
LINE
8
0
10
280.9593396
20
-134.3873431
11
295.4643031
21
-129.0241241
0
LINE
8
0
10
296.1579094
20
-128.9
11
315.7273834
21
-128.9
0
LINE
8
0
10
316.2626712
20
-128.8270358
11
369.7373288
21
-113.9729642
0
LINE
8
0
10
370.2716474
20
-111.9
11
380.6
21
-111.9
0
LINE
8
0
10
382.6
20
-109.9
11
382.6
21
-51.7970146
0
LINE
8
0
10
380.9256292
20
-49.8237012
11
322.1617207
21
-40.1266866
0
LINE
8
0
10
321.8360915
20
-40.1
11
304.1197616
21
-40.1
0
LINE
8
0
10
303.8810948
20
-40.1142915
11
262.5189052
21
-45.0857085
0
LINE
8
0
10
262.2802384
20
-45.1
11
237
21
-45.1
0
LINE
8
0
10
235
20
-47.1
11
235
21
-99.7323709
0
LINE
8
0
10
235.130734
20
-100.4435985
11
245.8083248
21
-128.5067095
0
LINE
8
0
10
246.1455019
20
-129.0810571
11
259.9973197
21
-145.5890108
0
LINE
8
0
10
262.745354
20
-145.8913514
11
279.9224017
21
-132.7380383
0
LINE
8
0
10
280.4662661
20
-132.4422591
11
295.6740228
21
-127.0163049
0
LINE
8
0
10
296.3461038
20
-126.9
11
315.5283526
21
-126.9
0
LINE
8
0
10
316.0618058
20
-126.8275445
11
369.7381942
21
-111.9724555
0
ARC
8
0
10
382.6
20
-111.9
40
2
50
270
51
0
0
ARC
8
0
10
382.6
20
-49.8050065
40
2
50
0
51
80.8953966
0
ARC
8
0
10
322.0407596
20
-40.1
40
2
50
80.8953966
51
90
0
ARC
8
0
10
303.9197616
20
-40.1
40
2
50
90
51
96.853633
0
ARC
8
0
10
262.0802384
20
-41.1
40
2
50
270
51
276.853633
0
ARC
8
0
10
235
20
-45.1
40
2
50
90
51
180
0
ARC
8
0
10
235
20
-100.0327532
40
2
50
180
51
200.8098701
0
ARC
8
0
10
245.9529102
20
-128.8515353
40
2
50
200.8098701
51
220.0000012
0
ARC
8
0
10
261.2710584
20
-147.1069935
40
2
50
220.0000012
51
307.9916029
0
ARC
8
0
10
281.6529458
20
-136.263219
40
2
50
110.2919037
51
127.9916029
0
ARC
8
0
10
296.1579094
20
-130.9
40
2
50
90
51
110.2919037
0
ARC
8
0
10
315.7273834
20
-126.9
40
2
50
270
51
285.5241131
0
ARC
8
0
10
370.2726166
20
-115.9
40
2
50
90
51
105.5241131
0
ARC
8
0
10
380.6
20
-109.9
40
2
50
270
51
0
0
ARC
8
0
10
380.6
20
-51.7970146
40
2
50
0
51
80.6296966
0
ARC
8
0
10
321.8360915
20
-42.1
40
2
50
80.6296966
51
90
0
ARC
8
0
10
304.1197616
20
-42.1
40
2
50
90
51
96.853633
0
ARC
8
0
10
262.2802384
20
-43.1
40
2
50
270
51
276.853633
0
ARC
8
0
10
237
20
-47.1
40
2
50
90
51
180
0
ARC
8
0
10
237
20
-99.7323709
40
2
50
180
51
200.8310672
0
ARC
8
0
10
247.6775908
20
-127.7954819
40
2
50
200.8310672
51
220.0000012
0
ARC
8
0
10
261.5294086
20
-144.3034356
40
2
50
220.0000012
51
307.443061
0
ARC
8
0
10
281.1383471
20
-134.3259542
40
2
50
109.6358233
51
127.443061
0
ARC
8
0
10
296.3461038
20
-128.9
40
2
50
90
51
109.6358233
0
ARC
8
0
10
315.5283526
20
-124.9
40
2
50
270
51
285.4695735
0
ARC
8
0
10
370.2716474
20
-113.9
40
2
50
90
51
105.4695735
0
ENDSEC
0
EOF